<ttFont>
    <TTGlyph name="A" xMin="4" yMin="-18" xMax="626" yMax="663">
      <contour>
        <pt x="371" y="288" on="1"/>
        <pt x="355" y="343" on="0"/>
        <pt x="311" y="516" on="0"/>
        <pt x="307" y="530" on="1"/>
        <pt x="245" y="314" on="0"/>
        <pt x="237" y="288" on="1"/>
        <pt x="285" y="286" on="0"/>
        <pt x="313" y="286" on="1"/>
        <pt x="352" y="286" on="0"/>
      </contour>
      <contour>
        <pt x="300" y="187" on="1"/>
        <pt x="259" y="187" on="0"/>
        <pt x="211" y="191" on="1"/>
        <pt x="143" y="27" on="0"/>
        <pt x="129" y="-18" on="1"/>
        <pt x="94" y="-13" on="0"/>
        <pt x="62" y="-7" on="0"/>
        <pt x="20" y="8" on="0"/>
        <pt x="4" y="32" on="0"/>
        <pt x="4" y="50" on="1"/>
        <pt x="4" y="71" on="0"/>
        <pt x="73" y="233" on="0"/>
        <pt x="189" y="519" on="0"/>
        <pt x="229" y="656" on="1"/>
        <pt x="276" y="663" on="0"/>
        <pt x="306" y="663" on="1"/>
        <pt x="390" y="663" on="0"/>
        <pt x="414" y="590" on="1"/>
        <pt x="488" y="362" on="0"/>
        <pt x="520" y="280" on="1"/>
        <pt x="598" y="77" on="0"/>
        <pt x="626" y="22" on="1"/>
        <pt x="579" y="-10" on="0"/>
        <pt x="533" y="-10" on="1"/>
        <pt x="474" y="-10" on="0"/>
        <pt x="457" y="28" on="1"/>
        <pt x="446" y="54" on="0"/>
        <pt x="409" y="150" on="0"/>
        <pt x="393" y="189" on="1"/>
        <pt x="315" y="187" on="0"/>
      </contour>
    </TTGlyph>
    <TTGlyph name="AE" xMin="0" yMin="-10" xMax="796" yMax="666">
      <contour>
        <pt x="260" y="288" on="1"/>
        <pt x="312" y="286" on="0"/>
        <pt x="340" y="286" on="1"/>
        <pt x="340" y="482" on="1"/>
        <pt x="338" y="478" on="0"/>
      </contour>
      <contour>
        <pt x="491" y="561" on="1"/>
        <pt x="495" y="529" on="0"/>
        <pt x="495" y="407" on="1"/>
        <pt x="574" y="407" on="1"/>
        <pt x="638" y="407" on="0"/>
        <pt x="692" y="413" on="1"/>
        <pt x="698" y="400" on="0"/>
        <pt x="698" y="371" on="1"/>
        <pt x="698" y="334" on="0"/>
        <pt x="664" y="305" on="0"/>
        <pt x="620" y="305" on="1"/>
        <pt x="495" y="305" on="1"/>
        <pt x="495" y="136" on="0"/>
        <pt x="503" y="102" on="1"/>
        <pt x="547" y="100" on="0"/>
        <pt x="574" y="100" on="1"/>
        <pt x="737" y="100" on="0"/>
        <pt x="784" y="123" on="1"/>
        <pt x="796" y="93" on="0"/>
        <pt x="796" y="54" on="1"/>
        <pt x="796" y="20" on="0"/>
        <pt x="743" y="-2" on="0"/>
        <pt x="664" y="-2" on="1"/>
        <pt x="425" y="-2" on="0"/>
        <pt x="387" y="0" on="1"/>
        <pt x="358" y="1" on="0"/>
        <pt x="338" y="27" on="0"/>
        <pt x="338" y="57" on="1"/>
        <pt x="338" y="71" on="0"/>
        <pt x="340" y="187" on="1"/>
        <pt x="312" y="187" on="1"/>
        <pt x="296" y="187" on="0"/>
        <pt x="228" y="189" on="1"/>
        <pt x="145" y="45" on="0"/>
        <pt x="122" y="-10" on="1"/>
        <pt x="50" y="-2" on="0"/>
        <pt x="0" y="28" on="0"/>
        <pt x="0" y="54" on="1"/>
        <pt x="0" y="69" on="0"/>
        <pt x="30" y="130" on="0"/>
        <pt x="110" y="270" on="0"/>
        <pt x="137" y="321" on="1"/>
        <pt x="237" y="511" on="0"/>
        <pt x="296" y="654" on="1"/>
        <pt x="416" y="666" on="0"/>
        <pt x="590" y="666" on="1"/>
        <pt x="734" y="666" on="0"/>
        <pt x="777" y="650" on="1"/>
        <pt x="796" y="643" on="0"/>
        <pt x="796" y="610" on="1"/>
        <pt x="796" y="571" on="0"/>
        <pt x="784" y="542" on="1"/>
        <pt x="718" y="563" on="0"/>
        <pt x="561" y="563" on="1"/>
        <pt x="541" y="563" on="0"/>
      </contour>
    </TTGlyph>
    <TTGlyph name="Aacute" xMin="4" yMin="-18" xMax="626" yMax="936">
      <contour>
        <pt x="371" y="288" on="1"/>
        <pt x="355" y="343" on="0"/>
        <pt x="311" y="516" on="0"/>
        <pt x="307" y="530" on="1"/>
        <pt x="245" y="314" on="0"/>
        <pt x="237" y="288" on="1"/>
        <pt x="285" y="286" on="0"/>
        <pt x="313" y="286" on="1"/>
        <pt x="352" y="286" on="0"/>
      </contour>
      <contour>
        <pt x="300" y="187" on="1"/>
        <pt x="259" y="187" on="0"/>
        <pt x="211" y="191" on="1"/>
        <pt x="143" y="27" on="0"/>
        <pt x="129" y="-18" on="1"/>
        <pt x="94" y="-13" on="0"/>
        <pt x="62" y="-7" on="0"/>
        <pt x="20" y="8" on="0"/>
        <pt x="4" y="32" on="0"/>
        <pt x="4" y="50" on="1"/>
        <pt x="4" y="71" on="0"/>
        <pt x="73" y="233" on="0"/>
        <pt x="189" y="519" on="0"/>
        <pt x="229" y="656" on="1"/>
        <pt x="276" y="663" on="0"/>
        <pt x="306" y="663" on="1"/>
        <pt x="390" y="663" on="0"/>
        <pt x="414" y="590" on="1"/>
        <pt x="488" y="362" on="0"/>
        <pt x="520" y="280" on="1"/>
        <pt x="598" y="77" on="0"/>
        <pt x="626" y="22" on="1"/>
        <pt x="579" y="-10" on="0"/>
        <pt x="533" y="-10" on="1"/>
        <pt x="474" y="-10" on="0"/>
        <pt x="457" y="28" on="1"/>
        <pt x="446" y="54" on="0"/>
        <pt x="409" y="150" on="0"/>
        <pt x="393" y="189" on="1"/>
        <pt x="315" y="187" on="0"/>
      </contour>
      <contour>
        <pt x="465" y="822" on="1"/>
        <pt x="441" y="807" on="0"/>
        <pt x="267" y="734" on="0"/>
        <pt x="249" y="716" on="1"/>
        <pt x="214" y="744" on="0"/>
        <pt x="214" y="767" on="1"/>
        <pt x="214" y="786" on="0"/>
        <pt x="266" y="825" on="0"/>
        <pt x="334" y="855" on="0"/>
        <pt x="415" y="908" on="0"/>
        <pt x="436" y="936" on="1"/>
        <pt x="489" y="907" on="0"/>
        <pt x="489" y="867" on="1"/>
        <pt x="489" y="838" on="0"/>
      </contour>
    </TTGlyph>
    <TTGlyph name="Acircumflex" xMin="4" yMin="-18" xMax="626" yMax="912">
      <contour>
        <pt x="371" y="288" on="1"/>
        <pt x="355" y="343" on="0"/>
        <pt x="311" y="516" on="0"/>
        <pt x="307" y="530" on="1"/>
        <pt x="245" y="314" on="0"/>
        <pt x="237" y="288" on="1"/>
        <pt x="285" y="286" on="0"/>
        <pt x="313" y="286" on="1"/>
        <pt x="352" y="286" on="0"/>
      </contour>
      <contour>
        <pt x="300" y="187" on="1"/>
        <pt x="259" y="187" on="0"/>
        <pt x="211" y="191" on="1"/>
        <pt x="143" y="27" on="0"/>
        <pt x="129" y="-18" on="1"/>
        <pt x="94" y="-13" on="0"/>
        <pt x="62" y="-7" on="0"/>
        <pt x="20" y="8" on="0"/>
        <pt x="4" y="32" on="0"/>
        <pt x="4" y="50" on="1"/>
        <pt x="4" y="71" on="0"/>
        <pt x="73" y="233" on="0"/>
        <pt x="189" y="519" on="0"/>
        <pt x="229" y="656" on="1"/>
        <pt x="276" y="663" on="0"/>
        <pt x="306" y="663" on="1"/>
        <pt x="390" y="663" on="0"/>
        <pt x="414" y="590" on="1"/>
        <pt x="488" y="362" on="0"/>
        <pt x="520" y="280" on="1"/>
        <pt x="598" y="77" on="0"/>
        <pt x="626" y="22" on="1"/>
        <pt x="579" y="-10" on="0"/>
        <pt x="533" y="-10" on="1"/>
        <pt x="474" y="-10" on="0"/>
        <pt x="457" y="28" on="1"/>
        <pt x="446" y="54" on="0"/>
        <pt x="409" y="150" on="0"/>
        <pt x="393" y="189" on="1"/>
        <pt x="315" y="187" on="0"/>
      </contour>
      <contour>
        <pt x="296" y="912" on="1"/>
        <pt x="460" y="822" on="0"/>
        <pt x="460" y="769" on="1"/>
        <pt x="460" y="752" on="0"/>
        <pt x="425" y="718" on="0"/>
        <pt x="398" y="712" on="1"/>
        <pt x="374" y="740" on="0"/>
        <pt x="322" y="784" on="0"/>
        <pt x="308" y="792" on="1"/>
        <pt x="294" y="801" on="1"/>
        <pt x="195" y="720" on="0"/>
        <pt x="171" y="720" on="1"/>
        <pt x="154" y="720" on="0"/>
        <pt x="131" y="735" on="0"/>
        <pt x="115" y="758" on="1"/>
        <pt x="197" y="847" on="0"/>
      </contour>
    </TTGlyph>
    <TTGlyph name="Adieresis" xMin="4" yMin="-18" xMax="626" yMax="900">
      <contour>
        <pt x="371" y="288" on="1"/>
        <pt x="355" y="343" on="0"/>
        <pt x="311" y="516" on="0"/>
        <pt x="307" y="530" on="1"/>
        <pt x="245" y="314" on="0"/>
        <pt x="237" y="288" on="1"/>
        <pt x="285" y="286" on="0"/>
        <pt x="313" y="286" on="1"/>
        <pt x="352" y="286" on="0"/>
      </contour>
      <contour>
        <pt x="300" y="187" on="1"/>
        <pt x="259" y="187" on="0"/>
        <pt x="211" y="191" on="1"/>
        <pt x="143" y="27" on="0"/>
        <pt x="129" y="-18" on="1"/>
        <pt x="94" y="-13" on="0"/>
        <pt x="62" y="-7" on="0"/>
        <pt x="20" y="8" on="0"/>
        <pt x="4" y="32" on="0"/>
        <pt x="4" y="50" on="1"/>
        <pt x="4" y="71" on="0"/>
        <pt x="73" y="233" on="0"/>
        <pt x="189" y="519" on="0"/>
        <pt x="229" y="656" on="1"/>
        <pt x="276" y="663" on="0"/>
        <pt x="306" y="663" on="1"/>
        <pt x="390" y="663" on="0"/>
        <pt x="414" y="590" on="1"/>
        <pt x="488" y="362" on="0"/>
        <pt x="520" y="280" on="1"/>
        <pt x="598" y="77" on="0"/>
        <pt x="626" y="22" on="1"/>
        <pt x="579" y="-10" on="0"/>
        <pt x="533" y="-10" on="1"/>
        <pt x="474" y="-10" on="0"/>
        <pt x="457" y="28" on="1"/>
        <pt x="446" y="54" on="0"/>
        <pt x="409" y="150" on="0"/>
        <pt x="393" y="189" on="1"/>
        <pt x="315" y="187" on="0"/>
      </contour>
      <contour>
        <pt x="405" y="713" on="1"/>
        <pt x="367" y="713" on="0"/>
        <pt x="314" y="766" on="0"/>
        <pt x="314" y="807" on="1"/>
        <pt x="314" y="846" on="0"/>
        <pt x="370" y="900" on="0"/>
        <pt x="444" y="900" on="0"/>
        <pt x="497" y="846" on="0"/>
        <pt x="497" y="807" on="1"/>
        <pt x="497" y="766" on="0"/>
        <pt x="441" y="713" on="0"/>
      </contour>
      <contour>
        <pt x="176" y="713" on="1"/>
        <pt x="138" y="713" on="0"/>
        <pt x="85" y="766" on="0"/>
        <pt x="85" y="807" on="1"/>
        <pt x="85" y="846" on="0"/>
        <pt x="141" y="900" on="0"/>
        <pt x="215" y="900" on="0"/>
        <pt x="268" y="846" on="0"/>
        <pt x="268" y="807" on="1"/>
        <pt x="268" y="766" on="0"/>
        <pt x="212" y="713" on="0"/>
      </contour>
    </TTGlyph>
    <TTGlyph name="Agrave" xMin="4" yMin="-18" xMax="626" yMax="948">
      <contour>
        <pt x="371" y="288" on="1"/>
        <pt x="355" y="343" on="0"/>
        <pt x="311" y="516" on="0"/>
        <pt x="307" y="530" on="1"/>
        <pt x="245" y="314" on="0"/>
        <pt x="237" y="288" on="1"/>
        <pt x="285" y="286" on="0"/>
        <pt x="313" y="286" on="1"/>
        <pt x="352" y="286" on="0"/>
      </contour>
      <contour>
        <pt x="300" y="187" on="1"/>
        <pt x="259" y="187" on="0"/>
        <pt x="211" y="191" on="1"/>
        <pt x="143" y="27" on="0"/>
        <pt x="129" y="-18" on="1"/>
        <pt x="94" y="-13" on="0"/>
        <pt x="62" y="-7" on="0"/>
        <pt x="20" y="8" on="0"/>
        <pt x="4" y="32" on="0"/>
        <pt x="4" y="50" on="1"/>
        <pt x="4" y="71" on="0"/>
        <pt x="73" y="233" on="0"/>
        <pt x="189" y="519" on="0"/>
        <pt x="229" y="656" on="1"/>
        <pt x="276" y="663" on="0"/>
        <pt x="306" y="663" on="1"/>
        <pt x="390" y="663" on="0"/>
        <pt x="414" y="590" on="1"/>
        <pt x="488" y="362" on="0"/>
        <pt x="520" y="280" on="1"/>
        <pt x="598" y="77" on="0"/>
        <pt x="626" y="22" on="1"/>
        <pt x="579" y="-10" on="0"/>
        <pt x="533" y="-10" on="1"/>
        <pt x="474" y="-10" on="0"/>
        <pt x="457" y="28" on="1"/>
        <pt x="446" y="54" on="0"/>
        <pt x="409" y="150" on="0"/>
        <pt x="393" y="189" on="1"/>
        <pt x="315" y="187" on="0"/>
      </contour>
      <contour>
        <pt x="166" y="948" on="1"/>
        <pt x="186" y="922" on="0"/>
        <pt x="258" y="868" on="0"/>
        <pt x="316" y="833" on="0"/>
        <pt x="361" y="790" on="0"/>
        <pt x="361" y="771" on="1"/>
        <pt x="361" y="744" on="0"/>
        <pt x="322" y="716" on="1"/>
        <pt x="285" y="743" on="0"/>
        <pt x="162" y="806" on="0"/>
        <pt x="99" y="851" on="0"/>
        <pt x="99" y="877" on="1"/>
        <pt x="99" y="916" on="0"/>
      </contour>
    </TTGlyph>
    <TTGlyph name="Aring" xMin="4" yMin="-18" xMax="626" yMax="966">
      <contour>
        <pt x="371" y="288" on="1"/>
        <pt x="355" y="343" on="0"/>
        <pt x="311" y="516" on="0"/>
        <pt x="307" y="530" on="1"/>
        <pt x="245" y="314" on="0"/>
        <pt x="237" y="288" on="1"/>
        <pt x="285" y="286" on="0"/>
        <pt x="313" y="286" on="1"/>
        <pt x="352" y="286" on="0"/>
      </contour>
      <contour>
        <pt x="300" y="187" on="1"/>
        <pt x="259" y="187" on="0"/>
        <pt x="211" y="191" on="1"/>
        <pt x="143" y="27" on="0"/>
        <pt x="129" y="-18" on="1"/>
        <pt x="94" y="-13" on="0"/>
        <pt x="62" y="-7" on="0"/>
        <pt x="20" y="8" on="0"/>
        <pt x="4" y="32" on="0"/>
        <pt x="4" y="50" on="1"/>
        <pt x="4" y="71" on="0"/>
        <pt x="73" y="233" on="0"/>
        <pt x="189" y="519" on="0"/>
        <pt x="229" y="656" on="1"/>
        <pt x="276" y="663" on="0"/>
        <pt x="306" y="663" on="1"/>
        <pt x="390" y="663" on="0"/>
        <pt x="414" y="590" on="1"/>
        <pt x="488" y="362" on="0"/>
        <pt x="520" y="280" on="1"/>
        <pt x="598" y="77" on="0"/>
        <pt x="626" y="22" on="1"/>
        <pt x="579" y="-10" on="0"/>
        <pt x="533" y="-10" on="1"/>
        <pt x="474" y="-10" on="0"/>
        <pt x="457" y="28" on="1"/>
        <pt x="446" y="54" on="0"/>
        <pt x="409" y="150" on="0"/>
        <pt x="393" y="189" on="1"/>
        <pt x="315" y="187" on="0"/>
      </contour>
      <contour>
        <pt x="296" y="733" on="1"/>
        <pt x="245" y="733" on="0"/>
        <pt x="180" y="797" on="0"/>
        <pt x="180" y="849" on="1"/>
        <pt x="180" y="902" on="0"/>
        <pt x="245" y="966" on="0"/>
        <pt x="296" y="966" on="1"/>
        <pt x="348" y="966" on="0"/>
        <pt x="411" y="902" on="0"/>
        <pt x="411" y="849" on="1"/>
        <pt x="411" y="797" on="0"/>
        <pt x="348" y="733" on="0"/>
      </contour>
      <contour>
        <pt x="350" y="844" on="1"/>
        <pt x="350" y="875" on="0"/>
        <pt x="320" y="916" on="0"/>
        <pt x="296" y="916" on="1"/>
        <pt x="271" y="916" on="0"/>
        <pt x="241" y="882" on="0"/>
        <pt x="241" y="854" on="1"/>
        <pt x="241" y="823" on="0"/>
        <pt x="271" y="783" on="0"/>
        <pt x="296" y="783" on="1"/>
        <pt x="322" y="783" on="0"/>
        <pt x="350" y="816" on="0"/>
      </contour>
    </TTGlyph>
    <TTGlyph name="Atilde" xMin="4" yMin="-18" xMax="626" yMax="861">
      <contour>
        <pt x="371" y="288" on="1"/>
        <pt x="355" y="343" on="0"/>
        <pt x="311" y="516" on="0"/>
        <pt x="307" y="530" on="1"/>
        <pt x="245" y="314" on="0"/>
        <pt x="237" y="288" on="1"/>
        <pt x="285" y="286" on="0"/>
        <pt x="313" y="286" on="1"/>
        <pt x="352" y="286" on="0"/>
      </contour>
      <contour>
        <pt x="300" y="187" on="1"/>
        <pt x="259" y="187" on="0"/>
        <pt x="211" y="191" on="1"/>
        <pt x="143" y="27" on="0"/>
        <pt x="129" y="-18" on="1"/>
        <pt x="94" y="-13" on="0"/>
        <pt x="62" y="-7" on="0"/>
        <pt x="20" y="8" on="0"/>
        <pt x="4" y="32" on="0"/>
        <pt x="4" y="50" on="1"/>
        <pt x="4" y="71" on="0"/>
        <pt x="73" y="233" on="0"/>
        <pt x="189" y="519" on="0"/>
        <pt x="229" y="656" on="1"/>
        <pt x="276" y="663" on="0"/>
        <pt x="306" y="663" on="1"/>
        <pt x="390" y="663" on="0"/>
        <pt x="414" y="590" on="1"/>
        <pt x="488" y="362" on="0"/>
        <pt x="520" y="280" on="1"/>
        <pt x="598" y="77" on="0"/>
        <pt x="626" y="22" on="1"/>
        <pt x="579" y="-10" on="0"/>
        <pt x="533" y="-10" on="1"/>
        <pt x="474" y="-10" on="0"/>
        <pt x="457" y="28" on="1"/>
        <pt x="446" y="54" on="0"/>
        <pt x="409" y="150" on="0"/>
        <pt x="393" y="189" on="1"/>
        <pt x="315" y="187" on="0"/>
      </contour>
      <contour>
        <pt x="479" y="817" on="1"/>
        <pt x="479" y="782" on="0"/>
        <pt x="399" y="717" on="0"/>
        <pt x="351" y="717" on="1"/>
        <pt x="327" y="717" on="0"/>
        <pt x="239" y="760" on="0"/>
        <pt x="222" y="760" on="1"/>
        <pt x="200" y="760" on="0"/>
        <pt x="154" y="720" on="1"/>
        <pt x="115" y="734" on="0"/>
        <pt x="115" y="761" on="1"/>
        <pt x="115" y="795" on="0"/>
        <pt x="196" y="861" on="0"/>
        <pt x="243" y="861" on="1"/>
        <pt x="267" y="861" on="0"/>
        <pt x="356" y="818" on="0"/>
        <pt x="373" y="818" on="1"/>
        <pt x="396" y="818" on="0"/>
        <pt x="440" y="858" on="1"/>
        <pt x="453" y="856" on="0"/>
        <pt x="479" y="833" on="0"/>
      </contour>
    </TTGlyph>
    <TTGlyph name="B" xMin="45" yMin="-10" xMax="544" yMax="673">
      <contour>
        <pt x="248" y="401" on="1"/>
        <pt x="299" y="401" on="0"/>
        <pt x="363" y="448" on="0"/>
        <pt x="363" y="495" on="1"/>
        <pt x="363" y="536" on="0"/>
        <pt x="298" y="572" on="0"/>
        <pt x="250" y="572" on="1"/>
        <pt x="229" y="572" on="0"/>
        <pt x="211" y="569" on="1"/>
        <pt x="215" y="507" on="0"/>
        <pt x="215" y="403" on="1"/>
        <pt x="226" y="401" on="0"/>
      </contour>
      <contour>
        <pt x="210" y="307" on="1"/>
        <pt x="210" y="261" on="0"/>
        <pt x="202" y="117" on="1"/>
        <pt x="248" y="92" on="0"/>
        <pt x="290" y="92" on="1"/>
        <pt x="333" y="92" on="0"/>
        <pt x="386" y="147" on="0"/>
        <pt x="386" y="198" on="1"/>
        <pt x="386" y="245" on="0"/>
        <pt x="327" y="310" on="0"/>
        <pt x="268" y="310" on="1"/>
        <pt x="236" y="310" on="0"/>
      </contour>
      <contour>
        <pt x="45" y="53" on="1"/>
        <pt x="61" y="167" on="0"/>
        <pt x="61" y="387" on="1"/>
        <pt x="61" y="573" on="0"/>
        <pt x="48" y="661" on="1"/>
        <pt x="134" y="673" on="0"/>
        <pt x="232" y="673" on="1"/>
        <pt x="291" y="673" on="0"/>
        <pt x="389" y="656" on="0"/>
        <pt x="472" y="618" on="0"/>
        <pt x="519" y="549" on="0"/>
        <pt x="519" y="501" on="1"/>
        <pt x="519" y="397" on="0"/>
        <pt x="412" y="362" on="1"/>
        <pt x="482" y="339" on="0"/>
        <pt x="544" y="258" on="0"/>
        <pt x="544" y="191" on="1"/>
        <pt x="544" y="123" on="0"/>
        <pt x="467" y="29" on="0"/>
        <pt x="352" y="-10" on="0"/>
        <pt x="281" y="-10" on="1"/>
        <pt x="141" y="-10" on="0"/>
      </contour>
    </TTGlyph>
    <TTGlyph name="C" xMin="32" yMin="-10" xMax="601" yMax="673">
      <contour>
        <pt x="525" y="177" on="1"/>
        <pt x="601" y="142" on="0"/>
        <pt x="601" y="95" on="1"/>
        <pt x="601" y="66" on="0"/>
        <pt x="552" y="22" on="0"/>
        <pt x="479" y="0" on="0"/>
        <pt x="413" y="-10" on="0"/>
        <pt x="386" y="-10" on="1"/>
        <pt x="321" y="-10" on="0"/>
        <pt x="203" y="25" on="0"/>
        <pt x="96" y="100" on="0"/>
        <pt x="32" y="239" on="0"/>
        <pt x="32" y="332" on="1"/>
        <pt x="32" y="492" on="0"/>
        <pt x="222" y="673" on="0"/>
        <pt x="385" y="673" on="1"/>
        <pt x="472" y="673" on="0"/>
        <pt x="591" y="610" on="0"/>
        <pt x="591" y="564" on="1"/>
        <pt x="591" y="529" on="0"/>
        <pt x="533" y="485" on="0"/>
        <pt x="485" y="479" on="1"/>
        <pt x="468" y="525" on="0"/>
        <pt x="394" y="572" on="0"/>
        <pt x="352" y="572" on="1"/>
        <pt x="283" y="572" on="0"/>
        <pt x="194" y="446" on="0"/>
        <pt x="194" y="352" on="1"/>
        <pt x="194" y="241" on="0"/>
        <pt x="285" y="91" on="0"/>
        <pt x="367" y="91" on="1"/>
        <pt x="413" y="91" on="0"/>
        <pt x="498" y="133" on="0"/>
      </contour>
    </TTGlyph>
    <TTGlyph name="Ccedilla" xMin="32" yMin="-252" xMax="601" yMax="673">
      <contour>
        <pt x="525" y="177" on="1"/>
        <pt x="601" y="142" on="0"/>
        <pt x="601" y="95" on="1"/>
        <pt x="601" y="66" on="0"/>
        <pt x="552" y="22" on="0"/>
        <pt x="479" y="0" on="0"/>
        <pt x="413" y="-10" on="0"/>
        <pt x="386" y="-10" on="1"/>
        <pt x="373" y="-10" on="0"/>
        <pt x="347" y="-8" on="1"/>
        <pt x="342" y="-23" on="0"/>
        <pt x="342" y="-30" on="1"/>
        <pt x="342" y="-41" on="0"/>
        <pt x="370" y="-61" on="0"/>
        <pt x="403" y="-79" on="0"/>
        <pt x="431" y="-118" on="0"/>
        <pt x="431" y="-144" on="1"/>
        <pt x="431" y="-183" on="0"/>
        <pt x="338" y="-252" on="0"/>
        <pt x="271" y="-252" on="1"/>
        <pt x="236" y="-252" on="0"/>
        <pt x="201" y="-226" on="0"/>
        <pt x="201" y="-207" on="1"/>
        <pt x="201" y="-180" on="0"/>
        <pt x="226" y="-153" on="1"/>
        <pt x="239" y="-166" on="0"/>
        <pt x="260" y="-166" on="1"/>
        <pt x="290" y="-166" on="0"/>
        <pt x="290" y="-128" on="1"/>
        <pt x="290" y="-108" on="0"/>
        <pt x="245" y="-72" on="0"/>
        <pt x="245" y="-54" on="1"/>
        <pt x="245" y="-34" on="0"/>
        <pt x="262" y="7" on="1"/>
        <pt x="160" y="36" on="0"/>
        <pt x="32" y="196" on="0"/>
        <pt x="32" y="332" on="1"/>
        <pt x="32" y="492" on="0"/>
        <pt x="222" y="673" on="0"/>
        <pt x="385" y="673" on="1"/>
        <pt x="472" y="673" on="0"/>
        <pt x="591" y="610" on="0"/>
        <pt x="591" y="564" on="1"/>
        <pt x="591" y="529" on="0"/>
        <pt x="533" y="485" on="0"/>
        <pt x="485" y="479" on="1"/>
        <pt x="468" y="525" on="0"/>
        <pt x="394" y="572" on="0"/>
        <pt x="352" y="572" on="1"/>
        <pt x="283" y="572" on="0"/>
        <pt x="194" y="446" on="0"/>
        <pt x="194" y="352" on="1"/>
        <pt x="194" y="241" on="0"/>
        <pt x="285" y="91" on="0"/>
        <pt x="367" y="91" on="1"/>
        <pt x="413" y="91" on="0"/>
        <pt x="498" y="133" on="0"/>
      </contour>
    </TTGlyph>
    <TTGlyph name="D" xMin="43" yMin="-10" xMax="627" yMax="673">
      <contour>
        <pt x="43" y="53" on="1"/>
        <pt x="56" y="145" on="0"/>
        <pt x="58" y="389" on="1"/>
        <pt x="58" y="564" on="0"/>
        <pt x="45" y="661" on="1"/>
        <pt x="114" y="673" on="0"/>
        <pt x="219" y="673" on="1"/>
        <pt x="306" y="673" on="0"/>
        <pt x="447" y="639" on="0"/>
        <pt x="563" y="564" on="0"/>
        <pt x="627" y="428" on="0"/>
        <pt x="627" y="333" on="1"/>
        <pt x="627" y="183" on="0"/>
        <pt x="447" y="-10" on="0"/>
        <pt x="281" y="-10" on="1"/>
        <pt x="128" y="-10" on="0"/>
      </contour>
      <contour>
        <pt x="209" y="570" on="1"/>
        <pt x="213" y="511" on="0"/>
        <pt x="213" y="430" on="1"/>
        <pt x="213" y="235" on="0"/>
        <pt x="199" y="119" on="1"/>
        <pt x="254" y="91" on="0"/>
        <pt x="302" y="91" on="1"/>
        <pt x="380" y="91" on="0"/>
        <pt x="463" y="218" on="0"/>
        <pt x="463" y="313" on="1"/>
        <pt x="463" y="442" on="0"/>
        <pt x="356" y="573" on="0"/>
        <pt x="256" y="573" on="1"/>
        <pt x="232" y="573" on="0"/>
      </contour>
    </TTGlyph>
    <TTGlyph name="Delta" xMin="26" yMin="0" xMax="655" yMax="645">
      <contour>
        <pt x="310" y="467" on="1"/>
        <pt x="159" y="119" on="1"/>
        <pt x="211" y="112" on="0"/>
        <pt x="316" y="112" on="1"/>
        <pt x="417" y="112" on="0"/>
        <pt x="458" y="117" on="1"/>
      </contour>
      <contour>
        <pt x="611" y="0" on="1"/>
        <pt x="70" y="0" on="1"/>
        <pt x="26" y="0" on="0"/>
        <pt x="26" y="47" on="1"/>
        <pt x="221" y="478" on="0"/>
        <pt x="277" y="618" on="1"/>
        <pt x="287" y="645" on="0"/>
        <pt x="345" y="645" on="1"/>
        <pt x="368" y="645" on="0"/>
        <pt x="398" y="640" on="1"/>
        <pt x="427" y="573" on="0"/>
        <pt x="639" y="82" on="0"/>
        <pt x="655" y="48" on="1"/>
        <pt x="655" y="0" on="0"/>
      </contour>
    </TTGlyph>
    <TTGlyph name="E" xMin="43" yMin="-2" xMax="512" yMax="666">
      <contour>
        <pt x="207" y="561" on="1"/>
        <pt x="211" y="529" on="0"/>
        <pt x="211" y="407" on="1"/>
        <pt x="290" y="407" on="1"/>
        <pt x="354" y="407" on="0"/>
        <pt x="408" y="413" on="1"/>
        <pt x="414" y="400" on="0"/>
        <pt x="414" y="371" on="1"/>
        <pt x="414" y="334" on="0"/>
        <pt x="380" y="305" on="0"/>
        <pt x="336" y="305" on="1"/>
        <pt x="211" y="305" on="1"/>
        <pt x="211" y="136" on="0"/>
        <pt x="219" y="102" on="1"/>
        <pt x="263" y="100" on="0"/>
        <pt x="290" y="100" on="1"/>
        <pt x="453" y="100" on="0"/>
        <pt x="500" y="123" on="1"/>
        <pt x="512" y="93" on="0"/>
        <pt x="512" y="54" on="1"/>
        <pt x="512" y="20" on="0"/>
        <pt x="459" y="-2" on="0"/>
        <pt x="380" y="-2" on="1"/>
        <pt x="141" y="-2" on="0"/>
        <pt x="103" y="0" on="1"/>
        <pt x="74" y="1" on="0"/>
        <pt x="54" y="27" on="0"/>
        <pt x="54" y="57" on="1"/>
        <pt x="54" y="73" on="0"/>
        <pt x="56" y="189" on="0"/>
        <pt x="56" y="224" on="1"/>
        <pt x="56" y="424" on="1"/>
        <pt x="56" y="565" on="0"/>
        <pt x="43" y="657" on="1"/>
        <pt x="172" y="666" on="0"/>
        <pt x="306" y="666" on="1"/>
        <pt x="450" y="666" on="0"/>
        <pt x="493" y="650" on="1"/>
        <pt x="512" y="643" on="0"/>
        <pt x="512" y="610" on="1"/>
        <pt x="512" y="571" on="0"/>
        <pt x="500" y="542" on="1"/>
        <pt x="434" y="563" on="0"/>
        <pt x="277" y="563" on="1"/>
        <pt x="257" y="563" on="0"/>
      </contour>
    </TTGlyph>
    <TTGlyph name="Eacute" xMin="43" yMin="-2" xMax="512" yMax="936">
      <contour>
        <pt x="207" y="561" on="1"/>
        <pt x="211" y="529" on="0"/>
        <pt x="211" y="407" on="1"/>
        <pt x="290" y="407" on="1"/>
        <pt x="354" y="407" on="0"/>
        <pt x="408" y="413" on="1"/>
        <pt x="414" y="400" on="0"/>
        <pt x="414" y="371" on="1"/>
        <pt x="414" y="334" on="0"/>
        <pt x="380" y="305" on="0"/>
        <pt x="336" y="305" on="1"/>
        <pt x="211" y="305" on="1"/>
        <pt x="211" y="136" on="0"/>
        <pt x="219" y="102" on="1"/>
        <pt x="263" y="100" on="0"/>
        <pt x="290" y="100" on="1"/>
        <pt x="453" y="100" on="0"/>
        <pt x="500" y="123" on="1"/>
        <pt x="512" y="93" on="0"/>
        <pt x="512" y="54" on="1"/>
        <pt x="512" y="20" on="0"/>
        <pt x="459" y="-2" on="0"/>
        <pt x="380" y="-2" on="1"/>
        <pt x="141" y="-2" on="0"/>
        <pt x="103" y="0" on="1"/>
        <pt x="74" y="1" on="0"/>
        <pt x="54" y="27" on="0"/>
        <pt x="54" y="57" on="1"/>
        <pt x="54" y="73" on="0"/>
        <pt x="56" y="189" on="0"/>
        <pt x="56" y="224" on="1"/>
        <pt x="56" y="424" on="1"/>
        <pt x="56" y="565" on="0"/>
        <pt x="43" y="657" on="1"/>
        <pt x="172" y="666" on="0"/>
        <pt x="306" y="666" on="1"/>
        <pt x="450" y="666" on="0"/>
        <pt x="493" y="650" on="1"/>
        <pt x="512" y="643" on="0"/>
        <pt x="512" y="610" on="1"/>
        <pt x="512" y="571" on="0"/>
        <pt x="500" y="542" on="1"/>
        <pt x="434" y="563" on="0"/>
        <pt x="277" y="563" on="1"/>
        <pt x="257" y="563" on="0"/>
      </contour>
      <contour>
        <pt x="446" y="822" on="1"/>
        <pt x="422" y="807" on="0"/>
        <pt x="248" y="734" on="0"/>
        <pt x="230" y="716" on="1"/>
        <pt x="195" y="744" on="0"/>
        <pt x="195" y="767" on="1"/>
        <pt x="195" y="786" on="0"/>
        <pt x="247" y="825" on="0"/>
        <pt x="315" y="855" on="0"/>
        <pt x="396" y="908" on="0"/>
        <pt x="417" y="936" on="1"/>
        <pt x="470" y="907" on="0"/>
        <pt x="470" y="867" on="1"/>
        <pt x="470" y="838" on="0"/>
      </contour>
    </TTGlyph>
    <TTGlyph name="Ecircumflex" xMin="43" yMin="-2" xMax="512" yMax="912">
      <contour>
        <pt x="207" y="561" on="1"/>
        <pt x="211" y="529" on="0"/>
        <pt x="211" y="407" on="1"/>
        <pt x="290" y="407" on="1"/>
        <pt x="354" y="407" on="0"/>
        <pt x="408" y="413" on="1"/>
        <pt x="414" y="400" on="0"/>
        <pt x="414" y="371" on="1"/>
        <pt x="414" y="334" on="0"/>
        <pt x="380" y="305" on="0"/>
        <pt x="336" y="305" on="1"/>
        <pt x="211" y="305" on="1"/>
        <pt x="211" y="136" on="0"/>
        <pt x="219" y="102" on="1"/>
        <pt x="263" y="100" on="0"/>
        <pt x="290" y="100" on="1"/>
        <pt x="453" y="100" on="0"/>
        <pt x="500" y="123" on="1"/>
        <pt x="512" y="93" on="0"/>
        <pt x="512" y="54" on="1"/>
        <pt x="512" y="20" on="0"/>
        <pt x="459" y="-2" on="0"/>
        <pt x="380" y="-2" on="1"/>
        <pt x="141" y="-2" on="0"/>
        <pt x="103" y="0" on="1"/>
        <pt x="74" y="1" on="0"/>
        <pt x="54" y="27" on="0"/>
        <pt x="54" y="57" on="1"/>
        <pt x="54" y="73" on="0"/>
        <pt x="56" y="189" on="0"/>
        <pt x="56" y="224" on="1"/>
        <pt x="56" y="424" on="1"/>
        <pt x="56" y="565" on="0"/>
        <pt x="43" y="657" on="1"/>
        <pt x="172" y="666" on="0"/>
        <pt x="306" y="666" on="1"/>
        <pt x="450" y="666" on="0"/>
        <pt x="493" y="650" on="1"/>
        <pt x="512" y="643" on="0"/>
        <pt x="512" y="610" on="1"/>
        <pt x="512" y="571" on="0"/>
        <pt x="500" y="542" on="1"/>
        <pt x="434" y="563" on="0"/>
        <pt x="277" y="563" on="1"/>
        <pt x="257" y="563" on="0"/>
      </contour>
      <contour>
        <pt x="277" y="912" on="1"/>
        <pt x="441" y="822" on="0"/>
        <pt x="441" y="769" on="1"/>
        <pt x="441" y="752" on="0"/>
        <pt x="406" y="718" on="0"/>
        <pt x="379" y="712" on="1"/>
        <pt x="355" y="740" on="0"/>
        <pt x="303" y="784" on="0"/>
        <pt x="289" y="792" on="1"/>
        <pt x="275" y="801" on="1"/>
        <pt x="176" y="720" on="0"/>
        <pt x="152" y="720" on="1"/>
        <pt x="135" y="720" on="0"/>
        <pt x="112" y="735" on="0"/>
        <pt x="96" y="758" on="1"/>
        <pt x="178" y="847" on="0"/>
      </contour>
    </TTGlyph>
    <TTGlyph name="Edieresis" xMin="43" yMin="-2" xMax="512" yMax="900">
      <contour>
        <pt x="207" y="561" on="1"/>
        <pt x="211" y="529" on="0"/>
        <pt x="211" y="407" on="1"/>
        <pt x="290" y="407" on="1"/>
        <pt x="354" y="407" on="0"/>
        <pt x="408" y="413" on="1"/>
        <pt x="414" y="400" on="0"/>
        <pt x="414" y="371" on="1"/>
        <pt x="414" y="334" on="0"/>
        <pt x="380" y="305" on="0"/>
        <pt x="336" y="305" on="1"/>
        <pt x="211" y="305" on="1"/>
        <pt x="211" y="136" on="0"/>
        <pt x="219" y="102" on="1"/>
        <pt x="263" y="100" on="0"/>
        <pt x="290" y="100" on="1"/>
        <pt x="453" y="100" on="0"/>
        <pt x="500" y="123" on="1"/>
        <pt x="512" y="93" on="0"/>
        <pt x="512" y="54" on="1"/>
        <pt x="512" y="20" on="0"/>
        <pt x="459" y="-2" on="0"/>
        <pt x="380" y="-2" on="1"/>
        <pt x="141" y="-2" on="0"/>
        <pt x="103" y="0" on="1"/>
        <pt x="74" y="1" on="0"/>
        <pt x="54" y="27" on="0"/>
        <pt x="54" y="57" on="1"/>
        <pt x="54" y="73" on="0"/>
        <pt x="56" y="189" on="0"/>
        <pt x="56" y="224" on="1"/>
        <pt x="56" y="424" on="1"/>
        <pt x="56" y="565" on="0"/>
        <pt x="43" y="657" on="1"/>
        <pt x="172" y="666" on="0"/>
        <pt x="306" y="666" on="1"/>
        <pt x="450" y="666" on="0"/>
        <pt x="493" y="650" on="1"/>
        <pt x="512" y="643" on="0"/>
        <pt x="512" y="610" on="1"/>
        <pt x="512" y="571" on="0"/>
        <pt x="500" y="542" on="1"/>
        <pt x="434" y="563" on="0"/>
        <pt x="277" y="563" on="1"/>
        <pt x="257" y="563" on="0"/>
      </contour>
      <contour>
        <pt x="386" y="713" on="1"/>
        <pt x="348" y="713" on="0"/>
        <pt x="295" y="766" on="0"/>
        <pt x="295" y="807" on="1"/>
        <pt x="295" y="846" on="0"/>
        <pt x="351" y="900" on="0"/>
        <pt x="425" y="900" on="0"/>
        <pt x="478" y="846" on="0"/>
        <pt x="478" y="807" on="1"/>
        <pt x="478" y="766" on="0"/>
        <pt x="422" y="713" on="0"/>
      </contour>
      <contour>
        <pt x="157" y="713" on="1"/>
        <pt x="119" y="713" on="0"/>
        <pt x="66" y="766" on="0"/>
        <pt x="66" y="807" on="1"/>
        <pt x="66" y="846" on="0"/>
        <pt x="122" y="900" on="0"/>
        <pt x="196" y="900" on="0"/>
        <pt x="249" y="846" on="0"/>
        <pt x="249" y="807" on="1"/>
        <pt x="249" y="766" on="0"/>
        <pt x="193" y="713" on="0"/>
      </contour>
    </TTGlyph>
    <TTGlyph name="Egrave" xMin="43" yMin="-2" xMax="512" yMax="948">
      <contour>
        <pt x="207" y="561" on="1"/>
        <pt x="211" y="529" on="0"/>
        <pt x="211" y="407" on="1"/>
        <pt x="290" y="407" on="1"/>
        <pt x="354" y="407" on="0"/>
        <pt x="408" y="413" on="1"/>
        <pt x="414" y="400" on="0"/>
        <pt x="414" y="371" on="1"/>
        <pt x="414" y="334" on="0"/>
        <pt x="380" y="305" on="0"/>
        <pt x="336" y="305" on="1"/>
        <pt x="211" y="305" on="1"/>
        <pt x="211" y="136" on="0"/>
        <pt x="219" y="102" on="1"/>
        <pt x="263" y="100" on="0"/>
        <pt x="290" y="100" on="1"/>
        <pt x="453" y="100" on="0"/>
        <pt x="500" y="123" on="1"/>
        <pt x="512" y="93" on="0"/>
        <pt x="512" y="54" on="1"/>
        <pt x="512" y="20" on="0"/>
        <pt x="459" y="-2" on="0"/>
        <pt x="380" y="-2" on="1"/>
        <pt x="141" y="-2" on="0"/>
        <pt x="103" y="0" on="1"/>
        <pt x="74" y="1" on="0"/>
        <pt x="54" y="27" on="0"/>
        <pt x="54" y="57" on="1"/>
        <pt x="54" y="73" on="0"/>
        <pt x="56" y="189" on="0"/>
        <pt x="56" y="224" on="1"/>
        <pt x="56" y="424" on="1"/>
        <pt x="56" y="565" on="0"/>
        <pt x="43" y="657" on="1"/>
        <pt x="172" y="666" on="0"/>
        <pt x="306" y="666" on="1"/>
        <pt x="450" y="666" on="0"/>
        <pt x="493" y="650" on="1"/>
        <pt x="512" y="643" on="0"/>
        <pt x="512" y="610" on="1"/>
        <pt x="512" y="571" on="0"/>
        <pt x="500" y="542" on="1"/>
        <pt x="434" y="563" on="0"/>
        <pt x="277" y="563" on="1"/>
        <pt x="257" y="563" on="0"/>
      </contour>
      <contour>
        <pt x="147" y="948" on="1"/>
        <pt x="167" y="922" on="0"/>
        <pt x="239" y="868" on="0"/>
        <pt x="297" y="833" on="0"/>
        <pt x="342" y="790" on="0"/>
        <pt x="342" y="771" on="1"/>
        <pt x="342" y="744" on="0"/>
        <pt x="303" y="716" on="1"/>
        <pt x="266" y="743" on="0"/>
        <pt x="143" y="806" on="0"/>
        <pt x="80" y="851" on="0"/>
        <pt x="80" y="877" on="1"/>
        <pt x="80" y="916" on="0"/>
      </contour>
    </TTGlyph>
    <TTGlyph name="Eth" xMin="-10" yMin="-10" xMax="657" yMax="673">
      <contour>
        <pt x="73" y="53" on="1"/>
        <pt x="83" y="131" on="0"/>
        <pt x="87" y="305" on="1"/>
        <pt x="41" y="304" on="0"/>
        <pt x="-4" y="299" on="1"/>
        <pt x="-10" y="312" on="0"/>
        <pt x="-10" y="341" on="1"/>
        <pt x="-10" y="378" on="0"/>
        <pt x="24" y="407" on="0"/>
        <pt x="68" y="407" on="1"/>
        <pt x="88" y="407" on="1"/>
        <pt x="88" y="562" on="0"/>
        <pt x="75" y="661" on="1"/>
        <pt x="144" y="673" on="0"/>
        <pt x="249" y="673" on="1"/>
        <pt x="336" y="673" on="0"/>
        <pt x="477" y="639" on="0"/>
        <pt x="593" y="564" on="0"/>
        <pt x="657" y="428" on="0"/>
        <pt x="657" y="333" on="1"/>
        <pt x="657" y="183" on="0"/>
        <pt x="477" y="-10" on="0"/>
        <pt x="311" y="-10" on="1"/>
        <pt x="158" y="-10" on="0"/>
      </contour>
      <contour>
        <pt x="239" y="570" on="1"/>
        <pt x="243" y="511" on="0"/>
        <pt x="243" y="430" on="1"/>
        <pt x="243" y="407" on="1"/>
        <pt x="261" y="407" on="1"/>
        <pt x="325" y="407" on="0"/>
        <pt x="379" y="413" on="1"/>
        <pt x="385" y="400" on="0"/>
        <pt x="385" y="371" on="1"/>
        <pt x="385" y="334" on="0"/>
        <pt x="351" y="305" on="0"/>
        <pt x="307" y="305" on="1"/>
        <pt x="241" y="305" on="1"/>
        <pt x="238" y="200" on="0"/>
        <pt x="229" y="119" on="1"/>
        <pt x="284" y="91" on="0"/>
        <pt x="332" y="91" on="1"/>
        <pt x="410" y="91" on="0"/>
        <pt x="493" y="218" on="0"/>
        <pt x="493" y="313" on="1"/>
        <pt x="493" y="442" on="0"/>
        <pt x="386" y="573" on="0"/>
        <pt x="286" y="573" on="1"/>
        <pt x="262" y="573" on="0"/>
      </contour>
    </TTGlyph>
    <TTGlyph name="Euro" xMin="26" yMin="-9" xMax="585" yMax="673">
      <contour>
        <pt x="547" y="542" on="1"/>
        <pt x="497" y="579" on="0"/>
        <pt x="432" y="579" on="1"/>
        <pt x="358" y="579" on="0"/>
        <pt x="272" y="484" on="0"/>
        <pt x="258" y="410" on="1"/>
        <pt x="291" y="410" on="1"/>
        <pt x="435" y="410" on="0"/>
        <pt x="523" y="418" on="1"/>
        <pt x="526" y="396" on="1"/>
        <pt x="526" y="355" on="0"/>
        <pt x="487" y="355" on="1"/>
        <pt x="252" y="355" on="1"/>
        <pt x="251" y="347" on="0"/>
        <pt x="251" y="332" on="1"/>
        <pt x="251" y="311" on="0"/>
        <pt x="252" y="300" on="1"/>
        <pt x="291" y="300" on="1"/>
        <pt x="435" y="300" on="0"/>
        <pt x="523" y="308" on="1"/>
        <pt x="526" y="286" on="1"/>
        <pt x="526" y="245" on="0"/>
        <pt x="487" y="245" on="1"/>
        <pt x="261" y="245" on="1"/>
        <pt x="277" y="176" on="0"/>
        <pt x="357" y="89" on="0"/>
        <pt x="424" y="89" on="1"/>
        <pt x="480" y="89" on="0"/>
        <pt x="538" y="130" on="1"/>
        <pt x="559" y="115" on="0"/>
        <pt x="585" y="75" on="0"/>
        <pt x="585" y="60" on="1"/>
        <pt x="585" y="24" on="0"/>
        <pt x="496" y="-9" on="0"/>
        <pt x="435" y="-9" on="1"/>
        <pt x="299" y="-9" on="0"/>
        <pt x="132" y="128" on="0"/>
        <pt x="109" y="244" on="1"/>
        <pt x="68" y="242" on="0"/>
        <pt x="31" y="237" on="1"/>
        <pt x="26" y="254" on="0"/>
        <pt x="26" y="262" on="1"/>
        <pt x="26" y="300" on="0"/>
        <pt x="65" y="300" on="1"/>
        <pt x="101" y="300" on="1"/>
        <pt x="100" y="311" on="0"/>
        <pt x="100" y="334" on="1"/>
        <pt x="100" y="354" on="1"/>
        <pt x="75" y="353" on="0"/>
        <pt x="31" y="347" on="1"/>
        <pt x="26" y="364" on="0"/>
        <pt x="26" y="372" on="1"/>
        <pt x="26" y="410" on="0"/>
        <pt x="65" y="410" on="1"/>
        <pt x="106" y="410" on="1"/>
        <pt x="128" y="529" on="0"/>
        <pt x="300" y="673" on="0"/>
        <pt x="435" y="673" on="1"/>
        <pt x="585" y="673" on="0"/>
        <pt x="585" y="614" on="1"/>
        <pt x="585" y="570" on="0"/>
      </contour>
    </TTGlyph>
    <TTGlyph name="Eurooldstyle" xMin="20" yMin="-9" xMax="569" yMax="579">
      <contour>
        <pt x="527" y="118" on="1"/>
        <pt x="569" y="93" on="0"/>
        <pt x="569" y="47" on="1"/>
        <pt x="569" y="-9" on="0"/>
        <pt x="426" y="-9" on="1"/>
        <pt x="300" y="-9" on="0"/>
        <pt x="125" y="96" on="0"/>
        <pt x="101" y="206" on="1"/>
        <pt x="48" y="202" on="0"/>
        <pt x="24" y="199" on="1"/>
        <pt x="20" y="221" on="0"/>
        <pt x="20" y="223" on="1"/>
        <pt x="20" y="263" on="0"/>
        <pt x="60" y="263" on="1"/>
        <pt x="93" y="263" on="1"/>
        <pt x="93" y="286" on="1"/>
        <pt x="93" y="307" on="1"/>
        <pt x="41" y="302" on="0"/>
        <pt x="24" y="300" on="1"/>
        <pt x="20" y="322" on="0"/>
        <pt x="20" y="324" on="1"/>
        <pt x="20" y="364" on="0"/>
        <pt x="60" y="364" on="1"/>
        <pt x="101" y="364" on="1"/>
        <pt x="126" y="469" on="0"/>
        <pt x="302" y="579" on="0"/>
        <pt x="430" y="579" on="1"/>
        <pt x="491" y="579" on="0"/>
        <pt x="569" y="549" on="0"/>
        <pt x="569" y="521" on="1"/>
        <pt x="569" y="479" on="0"/>
        <pt x="527" y="452" on="1"/>
        <pt x="487" y="484" on="0"/>
        <pt x="431" y="484" on="1"/>
        <pt x="369" y="484" on="0"/>
        <pt x="278" y="418" on="0"/>
        <pt x="258" y="364" on="1"/>
        <pt x="272" y="364" on="1"/>
        <pt x="407" y="364" on="0"/>
        <pt x="506" y="373" on="1"/>
        <pt x="510" y="350" on="1"/>
        <pt x="510" y="309" on="0"/>
        <pt x="470" y="309" on="1"/>
        <pt x="245" y="309" on="1"/>
        <pt x="244" y="301" on="0"/>
        <pt x="244" y="285" on="1"/>
        <pt x="244" y="270" on="0"/>
        <pt x="245" y="263" on="1"/>
        <pt x="272" y="263" on="1"/>
        <pt x="407" y="263" on="0"/>
        <pt x="506" y="272" on="1"/>
        <pt x="510" y="249" on="1"/>
        <pt x="510" y="208" on="0"/>
        <pt x="470" y="208" on="1"/>
        <pt x="256" y="208" on="1"/>
        <pt x="276" y="153" on="0"/>
        <pt x="366" y="87" on="0"/>
        <pt x="432" y="87" on="1"/>
        <pt x="486" y="87" on="0"/>
      </contour>
    </TTGlyph>
    <TTGlyph name="F" xMin="43" yMin="-3" xMax="512" yMax="666">
      <contour>
        <pt x="207" y="561" on="1"/>
        <pt x="211" y="529" on="0"/>
        <pt x="211" y="397" on="1"/>
        <pt x="290" y="397" on="1"/>
        <pt x="354" y="397" on="0"/>
        <pt x="408" y="403" on="1"/>
        <pt x="414" y="390" on="0"/>
        <pt x="414" y="361" on="1"/>
        <pt x="414" y="324" on="0"/>
        <pt x="380" y="295" on="0"/>
        <pt x="336" y="295" on="1"/>
        <pt x="211" y="295" on="1"/>
        <pt x="211" y="203" on="1"/>
        <pt x="211" y="87" on="0"/>
        <pt x="235" y="11" on="1"/>
        <pt x="226" y="7" on="0"/>
        <pt x="168" y="-3" on="0"/>
        <pt x="152" y="-3" on="1"/>
        <pt x="94" y="-3" on="0"/>
        <pt x="55" y="38" on="0"/>
        <pt x="55" y="93" on="1"/>
        <pt x="55" y="109" on="0"/>
        <pt x="57" y="189" on="0"/>
        <pt x="57" y="224" on="1"/>
        <pt x="57" y="424" on="1"/>
        <pt x="57" y="557" on="0"/>
        <pt x="43" y="657" on="1"/>
        <pt x="172" y="666" on="0"/>
        <pt x="306" y="666" on="1"/>
        <pt x="450" y="666" on="0"/>
        <pt x="493" y="650" on="1"/>
        <pt x="512" y="643" on="0"/>
        <pt x="512" y="610" on="1"/>
        <pt x="512" y="571" on="0"/>
        <pt x="500" y="542" on="1"/>
        <pt x="434" y="563" on="0"/>
        <pt x="277" y="563" on="1"/>
        <pt x="257" y="563" on="0"/>
      </contour>
    </TTGlyph>
    <TTGlyph name="G" xMin="32" yMin="-10" xMax="612" yMax="673">
      <contour>
        <pt x="606" y="92" on="1"/>
        <pt x="606" y="50" on="0"/>
        <pt x="480" y="-10" on="0"/>
        <pt x="383" y="-10" on="1"/>
        <pt x="222" y="-10" on="0"/>
        <pt x="32" y="172" on="0"/>
        <pt x="32" y="492" on="0"/>
        <pt x="222" y="673" on="0"/>
        <pt x="385" y="673" on="1"/>
        <pt x="472" y="673" on="0"/>
        <pt x="591" y="610" on="0"/>
        <pt x="591" y="564" on="1"/>
        <pt x="591" y="530" on="0"/>
        <pt x="534" y="485" on="0"/>
        <pt x="485" y="479" on="1"/>
        <pt x="468" y="525" on="0"/>
        <pt x="393" y="572" on="0"/>
        <pt x="352" y="572" on="1"/>
        <pt x="286" y="572" on="0"/>
        <pt x="194" y="448" on="0"/>
        <pt x="194" y="352" on="1"/>
        <pt x="194" y="241" on="0"/>
        <pt x="285" y="91" on="0"/>
        <pt x="366" y="91" on="1"/>
        <pt x="433" y="91" on="0"/>
        <pt x="460" y="129" on="1"/>
        <pt x="459" y="215" on="0"/>
        <pt x="452" y="296" on="1"/>
        <pt x="491" y="304" on="0"/>
        <pt x="518" y="304" on="1"/>
        <pt x="612" y="304" on="0"/>
        <pt x="612" y="246" on="1"/>
        <pt x="612" y="243" on="0"/>
        <pt x="606" y="133" on="0"/>
      </contour>
    </TTGlyph>
    <TTGlyph name="H" xMin="43" yMin="-3" xMax="623" yMax="666">
      <contour>
        <pt x="445" y="411" on="1"/>
        <pt x="445" y="431" on="1"/>
        <pt x="445" y="541" on="0"/>
        <pt x="436" y="658" on="1"/>
        <pt x="474" y="666" on="0"/>
        <pt x="515" y="666" on="1"/>
        <pt x="553" y="666" on="0"/>
        <pt x="606" y="640" on="0"/>
        <pt x="606" y="612" on="1"/>
        <pt x="606" y="607" on="0"/>
        <pt x="599" y="455" on="0"/>
        <pt x="599" y="404" on="1"/>
        <pt x="599" y="203" on="1"/>
        <pt x="599" y="91" on="0"/>
        <pt x="623" y="11" on="1"/>
        <pt x="586" y="-3" on="0"/>
        <pt x="532" y="-3" on="1"/>
        <pt x="512" y="-3" on="0"/>
        <pt x="486" y="2" on="0"/>
        <pt x="457" y="17" on="0"/>
        <pt x="443" y="54" on="0"/>
        <pt x="443" y="83" on="1"/>
        <pt x="443" y="102" on="0"/>
        <pt x="445" y="207" on="0"/>
        <pt x="445" y="231" on="1"/>
        <pt x="445" y="313" on="1"/>
        <pt x="407" y="311" on="0"/>
        <pt x="328" y="311" on="1"/>
        <pt x="246" y="311" on="0"/>
        <pt x="206" y="313" on="1"/>
        <pt x="206" y="203" on="1"/>
        <pt x="206" y="91" on="0"/>
        <pt x="230" y="11" on="1"/>
        <pt x="193" y="-3" on="0"/>
        <pt x="139" y="-3" on="1"/>
        <pt x="119" y="-3" on="0"/>
        <pt x="93" y="2" on="0"/>
        <pt x="64" y="17" on="0"/>
        <pt x="50" y="54" on="0"/>
        <pt x="50" y="83" on="1"/>
        <pt x="50" y="102" on="0"/>
        <pt x="52" y="207" on="0"/>
        <pt x="52" y="231" on="1"/>
        <pt x="52" y="431" on="1"/>
        <pt x="52" y="541" on="0"/>
        <pt x="43" y="658" on="1"/>
        <pt x="81" y="666" on="0"/>
        <pt x="122" y="666" on="1"/>
        <pt x="160" y="666" on="0"/>
        <pt x="213" y="640" on="0"/>
        <pt x="213" y="612" on="1"/>
        <pt x="213" y="607" on="0"/>
        <pt x="206" y="461" on="0"/>
        <pt x="206" y="411" on="1"/>
        <pt x="244" y="409" on="0"/>
        <pt x="328" y="409" on="1"/>
        <pt x="408" y="409" on="0"/>
      </contour>
    </TTGlyph>
    <TTGlyph name="I" xMin="43" yMin="-3" xMax="230" yMax="666">
      <contour>
        <pt x="52" y="231" on="1"/>
        <pt x="52" y="431" on="1"/>
        <pt x="52" y="541" on="0"/>
        <pt x="43" y="658" on="1"/>
        <pt x="81" y="666" on="0"/>
        <pt x="122" y="666" on="1"/>
        <pt x="160" y="666" on="0"/>
        <pt x="213" y="639" on="0"/>
        <pt x="213" y="611" on="1"/>
        <pt x="213" y="606" on="0"/>
        <pt x="206" y="455" on="0"/>
        <pt x="206" y="404" on="1"/>
        <pt x="206" y="203" on="1"/>
        <pt x="206" y="91" on="0"/>
        <pt x="230" y="11" on="1"/>
        <pt x="193" y="-3" on="0"/>
        <pt x="139" y="-3" on="1"/>
        <pt x="119" y="-3" on="0"/>
        <pt x="93" y="2" on="0"/>
        <pt x="64" y="17" on="0"/>
        <pt x="50" y="54" on="0"/>
        <pt x="50" y="83" on="1"/>
        <pt x="50" y="102" on="0"/>
        <pt x="52" y="207" on="0"/>
      </contour>
    </TTGlyph>
    <TTGlyph name="Iacute" xMin="43" yMin="-3" xMax="328" yMax="936">
      <contour>
        <pt x="52" y="231" on="1"/>
        <pt x="52" y="431" on="1"/>
        <pt x="52" y="541" on="0"/>
        <pt x="43" y="658" on="1"/>
        <pt x="81" y="666" on="0"/>
        <pt x="122" y="666" on="1"/>
        <pt x="160" y="666" on="0"/>
        <pt x="213" y="639" on="0"/>
        <pt x="213" y="611" on="1"/>
        <pt x="213" y="606" on="0"/>
        <pt x="206" y="455" on="0"/>
        <pt x="206" y="404" on="1"/>
        <pt x="206" y="203" on="1"/>
        <pt x="206" y="91" on="0"/>
        <pt x="230" y="11" on="1"/>
        <pt x="193" y="-3" on="0"/>
        <pt x="139" y="-3" on="1"/>
        <pt x="119" y="-3" on="0"/>
        <pt x="93" y="2" on="0"/>
        <pt x="64" y="17" on="0"/>
        <pt x="50" y="54" on="0"/>
        <pt x="50" y="83" on="1"/>
        <pt x="50" y="102" on="0"/>
        <pt x="52" y="207" on="0"/>
      </contour>
      <contour>
        <pt x="304" y="822" on="1"/>
        <pt x="280" y="807" on="0"/>
        <pt x="106" y="734" on="0"/>
        <pt x="88" y="716" on="1"/>
        <pt x="53" y="744" on="0"/>
        <pt x="53" y="767" on="1"/>
        <pt x="53" y="786" on="0"/>
        <pt x="105" y="825" on="0"/>
        <pt x="173" y="855" on="0"/>
        <pt x="254" y="908" on="0"/>
        <pt x="275" y="936" on="1"/>
        <pt x="328" y="907" on="0"/>
        <pt x="328" y="867" on="1"/>
        <pt x="328" y="838" on="0"/>
      </contour>
    </TTGlyph>
    <TTGlyph name="Icircumflex" xMin="-46" yMin="-3" xMax="299" yMax="912">
      <contour>
        <pt x="52" y="231" on="1"/>
        <pt x="52" y="431" on="1"/>
        <pt x="52" y="541" on="0"/>
        <pt x="43" y="658" on="1"/>
        <pt x="81" y="666" on="0"/>
        <pt x="122" y="666" on="1"/>
        <pt x="160" y="666" on="0"/>
        <pt x="213" y="639" on="0"/>
        <pt x="213" y="611" on="1"/>
        <pt x="213" y="606" on="0"/>
        <pt x="206" y="455" on="0"/>
        <pt x="206" y="404" on="1"/>
        <pt x="206" y="203" on="1"/>
        <pt x="206" y="91" on="0"/>
        <pt x="230" y="11" on="1"/>
        <pt x="193" y="-3" on="0"/>
        <pt x="139" y="-3" on="1"/>
        <pt x="119" y="-3" on="0"/>
        <pt x="93" y="2" on="0"/>
        <pt x="64" y="17" on="0"/>
        <pt x="50" y="54" on="0"/>
        <pt x="50" y="83" on="1"/>
        <pt x="50" y="102" on="0"/>
        <pt x="52" y="207" on="0"/>
      </contour>
      <contour>
        <pt x="135" y="912" on="1"/>
        <pt x="299" y="822" on="0"/>
        <pt x="299" y="769" on="1"/>
        <pt x="299" y="752" on="0"/>
        <pt x="264" y="718" on="0"/>
        <pt x="237" y="712" on="1"/>
        <pt x="213" y="740" on="0"/>
        <pt x="161" y="784" on="0"/>
        <pt x="147" y="792" on="1"/>
        <pt x="133" y="801" on="1"/>
        <pt x="34" y="720" on="0"/>
        <pt x="10" y="720" on="1"/>
        <pt x="-7" y="720" on="0"/>
        <pt x="-30" y="735" on="0"/>
        <pt x="-46" y="758" on="1"/>
        <pt x="36" y="847" on="0"/>
      </contour>
    </TTGlyph>
    <TTGlyph name="Idieresis" xMin="-76" yMin="-3" xMax="336" yMax="900">
      <contour>
        <pt x="52" y="231" on="1"/>
        <pt x="52" y="431" on="1"/>
        <pt x="52" y="541" on="0"/>
        <pt x="43" y="658" on="1"/>
        <pt x="81" y="666" on="0"/>
        <pt x="122" y="666" on="1"/>
        <pt x="160" y="666" on="0"/>
        <pt x="213" y="639" on="0"/>
        <pt x="213" y="611" on="1"/>
        <pt x="213" y="606" on="0"/>
        <pt x="206" y="455" on="0"/>
        <pt x="206" y="404" on="1"/>
        <pt x="206" y="203" on="1"/>
        <pt x="206" y="91" on="0"/>
        <pt x="230" y="11" on="1"/>
        <pt x="193" y="-3" on="0"/>
        <pt x="139" y="-3" on="1"/>
        <pt x="119" y="-3" on="0"/>
        <pt x="93" y="2" on="0"/>
        <pt x="64" y="17" on="0"/>
        <pt x="50" y="54" on="0"/>
        <pt x="50" y="83" on="1"/>
        <pt x="50" y="102" on="0"/>
        <pt x="52" y="207" on="0"/>
      </contour>
      <contour>
        <pt x="15" y="713" on="1"/>
        <pt x="-23" y="713" on="0"/>
        <pt x="-76" y="766" on="0"/>
        <pt x="-76" y="807" on="1"/>
        <pt x="-76" y="846" on="0"/>
        <pt x="-20" y="900" on="0"/>
        <pt x="54" y="900" on="0"/>
        <pt x="107" y="846" on="0"/>
        <pt x="107" y="807" on="1"/>
        <pt x="107" y="766" on="0"/>
        <pt x="51" y="713" on="0"/>
      </contour>
      <contour>
        <pt x="244" y="713" on="1"/>
        <pt x="206" y="713" on="0"/>
        <pt x="153" y="766" on="0"/>
        <pt x="153" y="807" on="1"/>
        <pt x="153" y="846" on="0"/>
        <pt x="209" y="900" on="0"/>
        <pt x="283" y="900" on="0"/>
        <pt x="336" y="846" on="0"/>
        <pt x="336" y="807" on="1"/>
        <pt x="336" y="766" on="0"/>
        <pt x="280" y="713" on="0"/>
      </contour>
    </TTGlyph>
    <TTGlyph name="Igrave" xMin="-62" yMin="-3" xMax="230" yMax="948">
      <contour>
        <pt x="52" y="231" on="1"/>
        <pt x="52" y="431" on="1"/>
        <pt x="52" y="541" on="0"/>
        <pt x="43" y="658" on="1"/>
        <pt x="81" y="666" on="0"/>
        <pt x="122" y="666" on="1"/>
        <pt x="160" y="666" on="0"/>
        <pt x="213" y="639" on="0"/>
        <pt x="213" y="611" on="1"/>
        <pt x="213" y="606" on="0"/>
        <pt x="206" y="455" on="0"/>
        <pt x="206" y="404" on="1"/>
        <pt x="206" y="203" on="1"/>
        <pt x="206" y="91" on="0"/>
        <pt x="230" y="11" on="1"/>
        <pt x="193" y="-3" on="0"/>
        <pt x="139" y="-3" on="1"/>
        <pt x="119" y="-3" on="0"/>
        <pt x="93" y="2" on="0"/>
        <pt x="64" y="17" on="0"/>
        <pt x="50" y="54" on="0"/>
        <pt x="50" y="83" on="1"/>
        <pt x="50" y="102" on="0"/>
        <pt x="52" y="207" on="0"/>
      </contour>
      <contour>
        <pt x="5" y="948" on="1"/>
        <pt x="25" y="922" on="0"/>
        <pt x="97" y="868" on="0"/>
        <pt x="155" y="833" on="0"/>
        <pt x="200" y="790" on="0"/>
        <pt x="200" y="771" on="1"/>
        <pt x="200" y="744" on="0"/>
        <pt x="161" y="716" on="1"/>
        <pt x="124" y="743" on="0"/>
        <pt x="1" y="806" on="0"/>
        <pt x="-62" y="851" on="0"/>
        <pt x="-62" y="877" on="1"/>
        <pt x="-62" y="916" on="0"/>
      </contour>
    </TTGlyph>
    <TTGlyph name="J" xMin="-25" yMin="-119" xMax="247" yMax="666">
      <contour>
        <pt x="56" y="-119" on="1"/>
        <pt x="16" y="-119" on="0"/>
        <pt x="-21" y="-69" on="0"/>
        <pt x="-25" y="-22" on="1"/>
        <pt x="47" y="-10" on="0"/>
        <pt x="87" y="61" on="0"/>
        <pt x="87" y="136" on="1"/>
        <pt x="87" y="157" on="0"/>
        <pt x="86" y="378" on="0"/>
        <pt x="86" y="431" on="1"/>
        <pt x="86" y="541" on="0"/>
        <pt x="77" y="658" on="1"/>
        <pt x="125" y="666" on="0"/>
        <pt x="155" y="666" on="1"/>
        <pt x="196" y="666" on="0"/>
        <pt x="247" y="638" on="0"/>
        <pt x="247" y="612" on="1"/>
        <pt x="247" y="611" on="0"/>
        <pt x="240" y="459" on="0"/>
        <pt x="240" y="405" on="1"/>
        <pt x="240" y="107" on="1"/>
        <pt x="240" y="54" on="0"/>
        <pt x="209" y="-30" on="0"/>
        <pt x="165" y="-78" on="0"/>
        <pt x="111" y="-109" on="0"/>
        <pt x="71" y="-119" on="0"/>
      </contour>
    </TTGlyph>
    <TTGlyph name="J_alt" xMin="-85" yMin="-142" xMax="333" yMax="666">
      <contour>
        <pt x="241" y="666" on="1"/>
        <pt x="284" y="666" on="0"/>
        <pt x="333" y="636" on="0"/>
        <pt x="333" y="613" on="1"/>
        <pt x="333" y="612" on="0"/>
        <pt x="326" y="465" on="0"/>
        <pt x="326" y="417" on="1"/>
        <pt x="326" y="359" on="0"/>
        <pt x="327" y="188" on="0"/>
        <pt x="328" y="63" on="0"/>
        <pt x="328" y="60" on="1"/>
        <pt x="328" y="-37" on="0"/>
        <pt x="180" y="-142" on="0"/>
        <pt x="51" y="-142" on="1"/>
        <pt x="26" y="-142" on="0"/>
        <pt x="-29" y="-134" on="0"/>
        <pt x="-85" y="-102" on="0"/>
        <pt x="-85" y="-77" on="1"/>
        <pt x="-85" y="-39" on="0"/>
        <pt x="-40" y="1" on="1"/>
        <pt x="6" y="-42" on="0"/>
        <pt x="63" y="-42" on="1"/>
        <pt x="109" y="-42" on="0"/>
        <pt x="170" y="21" on="0"/>
        <pt x="170" y="82" on="1"/>
        <pt x="170" y="85" on="0"/>
        <pt x="171" y="291" on="0"/>
        <pt x="171" y="427" on="1"/>
        <pt x="171" y="554" on="0"/>
        <pt x="163" y="658" on="1"/>
        <pt x="213" y="666" on="0"/>
      </contour>
    </TTGlyph>
    <TTGlyph name="K" xMin="43" yMin="-10" xMax="614" yMax="673">
      <contour>
        <pt x="52" y="231" on="1"/>
        <pt x="52" y="431" on="1"/>
        <pt x="52" y="541" on="0"/>
        <pt x="43" y="658" on="1"/>
        <pt x="81" y="666" on="0"/>
        <pt x="122" y="666" on="1"/>
        <pt x="160" y="666" on="0"/>
        <pt x="213" y="640" on="0"/>
        <pt x="213" y="612" on="1"/>
        <pt x="213" y="607" on="0"/>
        <pt x="206" y="455" on="0"/>
        <pt x="206" y="404" on="1"/>
        <pt x="287" y="461" on="0"/>
        <pt x="445" y="613" on="0"/>
        <pt x="469" y="673" on="1"/>
        <pt x="516" y="658" on="0"/>
        <pt x="548" y="625" on="0"/>
        <pt x="548" y="602" on="1"/>
        <pt x="548" y="536" on="0"/>
        <pt x="341" y="385" on="1"/>
        <pt x="456" y="205" on="0"/>
        <pt x="517" y="132" on="1"/>
        <pt x="549" y="95" on="0"/>
        <pt x="578" y="95" on="1"/>
        <pt x="581" y="95" on="0"/>
        <pt x="605" y="98" on="1"/>
        <pt x="614" y="71" on="0"/>
        <pt x="614" y="53" on="1"/>
        <pt x="614" y="21" on="0"/>
        <pt x="555" y="-10" on="0"/>
        <pt x="513" y="-10" on="1"/>
        <pt x="458" y="-10" on="0"/>
        <pt x="404" y="41" on="1"/>
        <pt x="333" y="108" on="0"/>
        <pt x="223" y="304" on="1"/>
        <pt x="221" y="303" on="0"/>
        <pt x="206" y="293" on="1"/>
        <pt x="206" y="203" on="1"/>
        <pt x="206" y="91" on="0"/>
        <pt x="230" y="11" on="1"/>
        <pt x="193" y="-3" on="0"/>
        <pt x="139" y="-3" on="1"/>
        <pt x="119" y="-3" on="0"/>
        <pt x="93" y="2" on="0"/>
        <pt x="64" y="17" on="0"/>
        <pt x="50" y="54" on="0"/>
        <pt x="50" y="83" on="1"/>
        <pt x="50" y="102" on="0"/>
        <pt x="52" y="207" on="0"/>
      </contour>
    </TTGlyph>
    <TTGlyph name="L" xMin="43" yMin="-2" xMax="508" yMax="666">
      <contour>
        <pt x="52" y="224" on="1"/>
        <pt x="52" y="431" on="1"/>
        <pt x="52" y="541" on="0"/>
        <pt x="43" y="658" on="1"/>
        <pt x="81" y="666" on="0"/>
        <pt x="122" y="666" on="1"/>
        <pt x="160" y="666" on="0"/>
        <pt x="213" y="640" on="0"/>
        <pt x="213" y="612" on="1"/>
        <pt x="213" y="607" on="0"/>
        <pt x="206" y="458" on="0"/>
        <pt x="206" y="407" on="1"/>
        <pt x="206" y="211" on="1"/>
        <pt x="206" y="134" on="0"/>
        <pt x="214" y="102" on="1"/>
        <pt x="258" y="100" on="0"/>
        <pt x="286" y="100" on="1"/>
        <pt x="449" y="100" on="0"/>
        <pt x="496" y="123" on="1"/>
        <pt x="508" y="93" on="0"/>
        <pt x="508" y="54" on="1"/>
        <pt x="508" y="20" on="0"/>
        <pt x="455" y="-2" on="0"/>
        <pt x="376" y="-2" on="1"/>
        <pt x="137" y="-2" on="0"/>
        <pt x="99" y="0" on="1"/>
        <pt x="70" y="1" on="0"/>
        <pt x="50" y="27" on="0"/>
        <pt x="50" y="57" on="1"/>
        <pt x="50" y="91" on="0"/>
        <pt x="52" y="204" on="0"/>
      </contour>
    </TTGlyph>
    <TTGlyph name="Lslash" xMin="-29" yMin="-2" xMax="526" yMax="666">
      <contour>
        <pt x="14" y="186" on="1"/>
        <pt x="-29" y="204" on="0"/>
        <pt x="-29" y="232" on="1"/>
        <pt x="-29" y="249" on="0"/>
        <pt x="-14" y="261" on="1"/>
        <pt x="70" y="325" on="1"/>
        <pt x="70" y="431" on="1"/>
        <pt x="70" y="541" on="0"/>
        <pt x="61" y="658" on="1"/>
        <pt x="99" y="666" on="0"/>
        <pt x="140" y="666" on="1"/>
        <pt x="178" y="666" on="0"/>
        <pt x="231" y="640" on="0"/>
        <pt x="231" y="612" on="1"/>
        <pt x="231" y="603" on="0"/>
        <pt x="225" y="487" on="0"/>
        <pt x="224" y="446" on="1"/>
        <pt x="269" y="483" on="0"/>
        <pt x="322" y="530" on="1"/>
        <pt x="366" y="514" on="0"/>
        <pt x="366" y="485" on="1"/>
        <pt x="366" y="469" on="0"/>
        <pt x="351" y="455" on="1"/>
        <pt x="224" y="356" on="1"/>
        <pt x="224" y="211" on="1"/>
        <pt x="224" y="134" on="0"/>
        <pt x="232" y="102" on="1"/>
        <pt x="276" y="100" on="0"/>
        <pt x="304" y="100" on="1"/>
        <pt x="467" y="100" on="0"/>
        <pt x="514" y="123" on="1"/>
        <pt x="526" y="93" on="0"/>
        <pt x="526" y="54" on="1"/>
        <pt x="526" y="20" on="0"/>
        <pt x="473" y="-2" on="0"/>
        <pt x="394" y="-2" on="1"/>
        <pt x="155" y="-2" on="0"/>
        <pt x="117" y="0" on="1"/>
        <pt x="88" y="1" on="0"/>
        <pt x="68" y="27" on="0"/>
        <pt x="68" y="57" on="1"/>
        <pt x="68" y="91" on="0"/>
        <pt x="70" y="204" on="0"/>
        <pt x="70" y="224" on="1"/>
        <pt x="70" y="235" on="1"/>
        <pt x="61" y="227" on="0"/>
        <pt x="23" y="193" on="0"/>
      </contour>
    </TTGlyph>
    <TTGlyph name="M" xMin="43" yMin="-3" xMax="778" yMax="668">
      <contour>
        <pt x="759" y="436" on="1"/>
        <pt x="759" y="203" on="1"/>
        <pt x="759" y="73" on="0"/>
        <pt x="778" y="10" on="1"/>
        <pt x="726" y="-3" on="0"/>
        <pt x="692" y="-3" on="1"/>
        <pt x="602" y="-3" on="0"/>
        <pt x="602" y="72" on="1"/>
        <pt x="602" y="84" on="0"/>
        <pt x="603" y="170" on="0"/>
        <pt x="604" y="337" on="0"/>
        <pt x="604" y="415" on="1"/>
        <pt x="515" y="164" on="0"/>
        <pt x="485" y="8" on="1"/>
        <pt x="457" y="-2" on="0"/>
        <pt x="417" y="-2" on="1"/>
        <pt x="335" y="-2" on="0"/>
        <pt x="320" y="35" on="1"/>
        <pt x="301" y="81" on="0"/>
        <pt x="221" y="356" on="0"/>
        <pt x="196" y="420" on="1"/>
        <pt x="196" y="203" on="1"/>
        <pt x="196" y="68" on="0"/>
        <pt x="215" y="5" on="1"/>
        <pt x="179" y="-3" on="0"/>
        <pt x="145" y="-3" on="1"/>
        <pt x="60" y="-3" on="0"/>
        <pt x="60" y="54" on="1"/>
        <pt x="60" y="70" on="0"/>
        <pt x="62" y="196" on="0"/>
        <pt x="62" y="231" on="1"/>
        <pt x="62" y="483" on="1"/>
        <pt x="62" y="595" on="0"/>
        <pt x="43" y="659" on="1"/>
        <pt x="106" y="668" on="0"/>
        <pt x="143" y="668" on="1"/>
        <pt x="234" y="668" on="0"/>
        <pt x="261" y="608" on="1"/>
        <pt x="291" y="541" on="0"/>
        <pt x="348" y="366" on="0"/>
        <pt x="379" y="255" on="0"/>
        <pt x="412" y="133" on="1"/>
        <pt x="468" y="399" on="0"/>
        <pt x="569" y="619" on="1"/>
        <pt x="582" y="647" on="0"/>
        <pt x="640" y="667" on="0"/>
        <pt x="687" y="667" on="1"/>
        <pt x="740" y="667" on="0"/>
        <pt x="777" y="659" on="1"/>
        <pt x="759" y="599" on="0"/>
      </contour>
    </TTGlyph>
    <TTGlyph name="N" xMin="43" yMin="-3" xMax="609" yMax="667">
      <contour>
        <pt x="608" y="4" on="1"/>
        <pt x="576" y="-3" on="0"/>
        <pt x="546" y="-3" on="1"/>
        <pt x="461" y="-3" on="0"/>
        <pt x="431" y="44" on="1"/>
        <pt x="392" y="105" on="0"/>
        <pt x="342" y="194" on="1"/>
        <pt x="250" y="359" on="0"/>
        <pt x="205" y="431" on="1"/>
        <pt x="205" y="203" on="1"/>
        <pt x="205" y="76" on="0"/>
        <pt x="226" y="10" on="1"/>
        <pt x="197" y="-3" on="0"/>
        <pt x="151" y="-3" on="1"/>
        <pt x="101" y="-3" on="0"/>
        <pt x="59" y="26" on="0"/>
        <pt x="59" y="66" on="1"/>
        <pt x="59" y="82" on="0"/>
        <pt x="62" y="196" on="0"/>
        <pt x="62" y="231" on="1"/>
        <pt x="62" y="431" on="1"/>
        <pt x="62" y="592" on="0"/>
        <pt x="43" y="653" on="1"/>
        <pt x="91" y="667" on="0"/>
        <pt x="130" y="667" on="1"/>
        <pt x="202" y="667" on="0"/>
        <pt x="238" y="623" on="1"/>
        <pt x="311" y="532" on="0"/>
        <pt x="457" y="275" on="1"/>
        <pt x="456" y="431" on="1"/>
        <pt x="456" y="568" on="0"/>
        <pt x="449" y="659" on="1"/>
        <pt x="491" y="666" on="0"/>
        <pt x="511" y="666" on="1"/>
        <pt x="609" y="666" on="0"/>
        <pt x="609" y="608" on="1"/>
        <pt x="609" y="604" on="0"/>
        <pt x="601" y="443" on="0"/>
        <pt x="601" y="404" on="1"/>
        <pt x="601" y="233" on="1"/>
        <pt x="601" y="95" on="0"/>
      </contour>
    </TTGlyph>
    <TTGlyph name="Ntilde" xMin="43" yMin="-3" xMax="609" yMax="861">
      <contour>
        <pt x="608" y="4" on="1"/>
        <pt x="576" y="-3" on="0"/>
        <pt x="546" y="-3" on="1"/>
        <pt x="461" y="-3" on="0"/>
        <pt x="431" y="44" on="1"/>
        <pt x="392" y="105" on="0"/>
        <pt x="342" y="194" on="1"/>
        <pt x="250" y="359" on="0"/>
        <pt x="205" y="431" on="1"/>
        <pt x="205" y="203" on="1"/>
        <pt x="205" y="76" on="0"/>
        <pt x="226" y="10" on="1"/>
        <pt x="197" y="-3" on="0"/>
        <pt x="151" y="-3" on="1"/>
        <pt x="101" y="-3" on="0"/>
        <pt x="59" y="26" on="0"/>
        <pt x="59" y="66" on="1"/>
        <pt x="59" y="82" on="0"/>
        <pt x="62" y="196" on="0"/>
        <pt x="62" y="231" on="1"/>
        <pt x="62" y="431" on="1"/>
        <pt x="62" y="592" on="0"/>
        <pt x="43" y="653" on="1"/>
        <pt x="91" y="667" on="0"/>
        <pt x="130" y="667" on="1"/>
        <pt x="202" y="667" on="0"/>
        <pt x="238" y="623" on="1"/>
        <pt x="311" y="532" on="0"/>
        <pt x="457" y="275" on="1"/>
        <pt x="456" y="431" on="1"/>
        <pt x="456" y="568" on="0"/>
        <pt x="449" y="659" on="1"/>
        <pt x="491" y="666" on="0"/>
        <pt x="511" y="666" on="1"/>
        <pt x="609" y="666" on="0"/>
        <pt x="609" y="608" on="1"/>
        <pt x="609" y="604" on="0"/>
        <pt x="601" y="443" on="0"/>
        <pt x="601" y="404" on="1"/>
        <pt x="601" y="233" on="1"/>
        <pt x="601" y="95" on="0"/>
      </contour>
      <contour>
        <pt x="515" y="817" on="1"/>
        <pt x="515" y="782" on="0"/>
        <pt x="435" y="717" on="0"/>
        <pt x="387" y="717" on="1"/>
        <pt x="363" y="717" on="0"/>
        <pt x="275" y="760" on="0"/>
        <pt x="258" y="760" on="1"/>
        <pt x="236" y="760" on="0"/>
        <pt x="190" y="720" on="1"/>
        <pt x="151" y="734" on="0"/>
        <pt x="151" y="761" on="1"/>
        <pt x="151" y="795" on="0"/>
        <pt x="232" y="861" on="0"/>
        <pt x="279" y="861" on="1"/>
        <pt x="303" y="861" on="0"/>
        <pt x="392" y="818" on="0"/>
        <pt x="409" y="818" on="1"/>
        <pt x="432" y="818" on="0"/>
        <pt x="476" y="858" on="1"/>
        <pt x="489" y="856" on="0"/>
        <pt x="515" y="833" on="0"/>
      </contour>
    </TTGlyph>
    <TTGlyph name="O" xMin="32" yMin="-10" xMax="696" yMax="673">
      <contour>
        <pt x="363" y="-10" on="1"/>
        <pt x="212" y="-10" on="0"/>
        <pt x="32" y="176" on="0"/>
        <pt x="32" y="331" on="1"/>
        <pt x="32" y="488" on="0"/>
        <pt x="211" y="673" on="0"/>
        <pt x="363" y="673" on="1"/>
        <pt x="516" y="673" on="0"/>
        <pt x="696" y="488" on="0"/>
        <pt x="696" y="331" on="1"/>
        <pt x="696" y="176" on="0"/>
        <pt x="515" y="-10" on="0"/>
      </contour>
      <contour>
        <pt x="532" y="313" on="1"/>
        <pt x="532" y="379" on="0"/>
        <pt x="501" y="491" on="0"/>
        <pt x="422" y="572" on="0"/>
        <pt x="364" y="572" on="1"/>
        <pt x="286" y="572" on="0"/>
        <pt x="194" y="454" on="0"/>
        <pt x="194" y="362" on="1"/>
        <pt x="194" y="292" on="0"/>
        <pt x="225" y="175" on="0"/>
        <pt x="304" y="91" on="0"/>
        <pt x="362" y="91" on="1"/>
        <pt x="443" y="91" on="0"/>
        <pt x="532" y="214" on="0"/>
      </contour>
    </TTGlyph>
    <TTGlyph name="OE" xMin="32" yMin="-10" xMax="913" yMax="673">
      <contour>
        <pt x="363" y="-10" on="1"/>
        <pt x="212" y="-10" on="0"/>
        <pt x="32" y="176" on="0"/>
        <pt x="32" y="331" on="1"/>
        <pt x="32" y="488" on="0"/>
        <pt x="211" y="673" on="0"/>
        <pt x="363" y="673" on="1"/>
        <pt x="408" y="673" on="0"/>
        <pt x="453" y="657" on="1"/>
        <pt x="576" y="666" on="0"/>
        <pt x="707" y="666" on="1"/>
        <pt x="851" y="666" on="0"/>
        <pt x="894" y="650" on="1"/>
        <pt x="913" y="643" on="0"/>
        <pt x="913" y="610" on="1"/>
        <pt x="913" y="571" on="0"/>
        <pt x="901" y="542" on="1"/>
        <pt x="835" y="563" on="0"/>
        <pt x="678" y="563" on="1"/>
        <pt x="658" y="563" on="0"/>
        <pt x="608" y="561" on="1"/>
        <pt x="612" y="529" on="0"/>
        <pt x="612" y="407" on="1"/>
        <pt x="691" y="407" on="1"/>
        <pt x="755" y="407" on="0"/>
        <pt x="809" y="413" on="1"/>
        <pt x="815" y="400" on="0"/>
        <pt x="815" y="371" on="1"/>
        <pt x="815" y="334" on="0"/>
        <pt x="781" y="305" on="0"/>
        <pt x="737" y="305" on="1"/>
        <pt x="612" y="305" on="1"/>
        <pt x="612" y="136" on="0"/>
        <pt x="620" y="102" on="1"/>
        <pt x="664" y="100" on="0"/>
        <pt x="691" y="100" on="1"/>
        <pt x="854" y="100" on="0"/>
        <pt x="901" y="123" on="1"/>
        <pt x="913" y="93" on="0"/>
        <pt x="913" y="54" on="1"/>
        <pt x="913" y="20" on="0"/>
        <pt x="860" y="-2" on="0"/>
        <pt x="781" y="-2" on="1"/>
        <pt x="542" y="-2" on="0"/>
        <pt x="504" y="0" on="1"/>
        <pt x="477" y="2" on="0"/>
        <pt x="468" y="11" on="1"/>
        <pt x="415" y="-10" on="0"/>
      </contour>
      <contour>
        <pt x="457" y="224" on="1"/>
        <pt x="457" y="424" on="1"/>
        <pt x="457" y="484" on="0"/>
        <pt x="454" y="539" on="1"/>
        <pt x="414" y="572" on="0"/>
        <pt x="364" y="572" on="1"/>
        <pt x="286" y="572" on="0"/>
        <pt x="194" y="454" on="0"/>
        <pt x="194" y="362" on="1"/>
        <pt x="194" y="292" on="0"/>
        <pt x="225" y="175" on="0"/>
        <pt x="304" y="91" on="0"/>
        <pt x="362" y="91" on="1"/>
        <pt x="417" y="91" on="0"/>
        <pt x="456" y="119" on="1"/>
        <pt x="456" y="134" on="0"/>
        <pt x="457" y="205" on="0"/>
      </contour>
    </TTGlyph>
    <TTGlyph name="Oacute" xMin="32" yMin="-10" xMax="696" yMax="936">
      <contour>
        <pt x="363" y="-10" on="1"/>
        <pt x="212" y="-10" on="0"/>
        <pt x="32" y="176" on="0"/>
        <pt x="32" y="331" on="1"/>
        <pt x="32" y="488" on="0"/>
        <pt x="211" y="673" on="0"/>
        <pt x="363" y="673" on="1"/>
        <pt x="516" y="673" on="0"/>
        <pt x="696" y="488" on="0"/>
        <pt x="696" y="331" on="1"/>
        <pt x="696" y="176" on="0"/>
        <pt x="515" y="-10" on="0"/>
      </contour>
      <contour>
        <pt x="532" y="313" on="1"/>
        <pt x="532" y="379" on="0"/>
        <pt x="501" y="491" on="0"/>
        <pt x="422" y="572" on="0"/>
        <pt x="364" y="572" on="1"/>
        <pt x="286" y="572" on="0"/>
        <pt x="194" y="454" on="0"/>
        <pt x="194" y="362" on="1"/>
        <pt x="194" y="292" on="0"/>
        <pt x="225" y="175" on="0"/>
        <pt x="304" y="91" on="0"/>
        <pt x="362" y="91" on="1"/>
        <pt x="443" y="91" on="0"/>
        <pt x="532" y="214" on="0"/>
      </contour>
      <contour>
        <pt x="533" y="822" on="1"/>
        <pt x="509" y="807" on="0"/>
        <pt x="335" y="734" on="0"/>
        <pt x="317" y="716" on="1"/>
        <pt x="282" y="744" on="0"/>
        <pt x="282" y="767" on="1"/>
        <pt x="282" y="786" on="0"/>
        <pt x="334" y="825" on="0"/>
        <pt x="402" y="855" on="0"/>
        <pt x="483" y="908" on="0"/>
        <pt x="504" y="936" on="1"/>
        <pt x="557" y="907" on="0"/>
        <pt x="557" y="867" on="1"/>
        <pt x="557" y="838" on="0"/>
      </contour>
    </TTGlyph>
    <TTGlyph name="Ocircumflex" xMin="32" yMin="-10" xMax="696" yMax="912">
      <contour>
        <pt x="363" y="-10" on="1"/>
        <pt x="212" y="-10" on="0"/>
        <pt x="32" y="176" on="0"/>
        <pt x="32" y="331" on="1"/>
        <pt x="32" y="488" on="0"/>
        <pt x="211" y="673" on="0"/>
        <pt x="363" y="673" on="1"/>
        <pt x="516" y="673" on="0"/>
        <pt x="696" y="488" on="0"/>
        <pt x="696" y="331" on="1"/>
        <pt x="696" y="176" on="0"/>
        <pt x="515" y="-10" on="0"/>
      </contour>
      <contour>
        <pt x="532" y="313" on="1"/>
        <pt x="532" y="379" on="0"/>
        <pt x="501" y="491" on="0"/>
        <pt x="422" y="572" on="0"/>
        <pt x="364" y="572" on="1"/>
        <pt x="286" y="572" on="0"/>
        <pt x="194" y="454" on="0"/>
        <pt x="194" y="362" on="1"/>
        <pt x="194" y="292" on="0"/>
        <pt x="225" y="175" on="0"/>
        <pt x="304" y="91" on="0"/>
        <pt x="362" y="91" on="1"/>
        <pt x="443" y="91" on="0"/>
        <pt x="532" y="214" on="0"/>
      </contour>
      <contour>
        <pt x="364" y="912" on="1"/>
        <pt x="528" y="822" on="0"/>
        <pt x="528" y="769" on="1"/>
        <pt x="528" y="752" on="0"/>
        <pt x="493" y="718" on="0"/>
        <pt x="466" y="712" on="1"/>
        <pt x="442" y="740" on="0"/>
        <pt x="390" y="784" on="0"/>
        <pt x="376" y="792" on="1"/>
        <pt x="362" y="801" on="1"/>
        <pt x="263" y="720" on="0"/>
        <pt x="239" y="720" on="1"/>
        <pt x="222" y="720" on="0"/>
        <pt x="199" y="735" on="0"/>
        <pt x="183" y="758" on="1"/>
        <pt x="265" y="847" on="0"/>
      </contour>
    </TTGlyph>
    <TTGlyph name="Odieresis" xMin="32" yMin="-10" xMax="696" yMax="900">
      <contour>
        <pt x="363" y="-10" on="1"/>
        <pt x="212" y="-10" on="0"/>
        <pt x="32" y="176" on="0"/>
        <pt x="32" y="331" on="1"/>
        <pt x="32" y="488" on="0"/>
        <pt x="211" y="673" on="0"/>
        <pt x="363" y="673" on="1"/>
        <pt x="516" y="673" on="0"/>
        <pt x="696" y="488" on="0"/>
        <pt x="696" y="331" on="1"/>
        <pt x="696" y="176" on="0"/>
        <pt x="515" y="-10" on="0"/>
      </contour>
      <contour>
        <pt x="532" y="313" on="1"/>
        <pt x="532" y="379" on="0"/>
        <pt x="501" y="491" on="0"/>
        <pt x="422" y="572" on="0"/>
        <pt x="364" y="572" on="1"/>
        <pt x="286" y="572" on="0"/>
        <pt x="194" y="454" on="0"/>
        <pt x="194" y="362" on="1"/>
        <pt x="194" y="292" on="0"/>
        <pt x="225" y="175" on="0"/>
        <pt x="304" y="91" on="0"/>
        <pt x="362" y="91" on="1"/>
        <pt x="443" y="91" on="0"/>
        <pt x="532" y="214" on="0"/>
      </contour>
      <contour>
        <pt x="473" y="713" on="1"/>
        <pt x="435" y="713" on="0"/>
        <pt x="382" y="766" on="0"/>
        <pt x="382" y="807" on="1"/>
        <pt x="382" y="846" on="0"/>
        <pt x="438" y="900" on="0"/>
        <pt x="512" y="900" on="0"/>
        <pt x="565" y="846" on="0"/>
        <pt x="565" y="807" on="1"/>
        <pt x="565" y="766" on="0"/>
        <pt x="509" y="713" on="0"/>
      </contour>
      <contour>
        <pt x="244" y="713" on="1"/>
        <pt x="206" y="713" on="0"/>
        <pt x="153" y="766" on="0"/>
        <pt x="153" y="807" on="1"/>
        <pt x="153" y="846" on="0"/>
        <pt x="209" y="900" on="0"/>
        <pt x="283" y="900" on="0"/>
        <pt x="336" y="846" on="0"/>
        <pt x="336" y="807" on="1"/>
        <pt x="336" y="766" on="0"/>
        <pt x="280" y="713" on="0"/>
      </contour>
    </TTGlyph>
    <TTGlyph name="Ograve" xMin="32" yMin="-10" xMax="696" yMax="948">
      <contour>
        <pt x="363" y="-10" on="1"/>
        <pt x="212" y="-10" on="0"/>
        <pt x="32" y="176" on="0"/>
        <pt x="32" y="331" on="1"/>
        <pt x="32" y="488" on="0"/>
        <pt x="211" y="673" on="0"/>
        <pt x="363" y="673" on="1"/>
        <pt x="516" y="673" on="0"/>
        <pt x="696" y="488" on="0"/>
        <pt x="696" y="331" on="1"/>
        <pt x="696" y="176" on="0"/>
        <pt x="515" y="-10" on="0"/>
      </contour>
      <contour>
        <pt x="532" y="313" on="1"/>
        <pt x="532" y="379" on="0"/>
        <pt x="501" y="491" on="0"/>
        <pt x="422" y="572" on="0"/>
        <pt x="364" y="572" on="1"/>
        <pt x="286" y="572" on="0"/>
        <pt x="194" y="454" on="0"/>
        <pt x="194" y="362" on="1"/>
        <pt x="194" y="292" on="0"/>
        <pt x="225" y="175" on="0"/>
        <pt x="304" y="91" on="0"/>
        <pt x="362" y="91" on="1"/>
        <pt x="443" y="91" on="0"/>
        <pt x="532" y="214" on="0"/>
      </contour>
      <contour>
        <pt x="234" y="948" on="1"/>
        <pt x="254" y="922" on="0"/>
        <pt x="326" y="868" on="0"/>
        <pt x="384" y="833" on="0"/>
        <pt x="429" y="790" on="0"/>
        <pt x="429" y="771" on="1"/>
        <pt x="429" y="744" on="0"/>
        <pt x="390" y="716" on="1"/>
        <pt x="353" y="743" on="0"/>
        <pt x="230" y="806" on="0"/>
        <pt x="167" y="851" on="0"/>
        <pt x="167" y="877" on="1"/>
        <pt x="167" y="916" on="0"/>
      </contour>
    </TTGlyph>
    <TTGlyph name="Omega" xMin="29" yMin="0" xMax="832" yMax="678">
      <contour>
        <pt x="431" y="678" on="1"/>
        <pt x="575" y="678" on="0"/>
        <pt x="771" y="507" on="0"/>
        <pt x="771" y="371" on="1"/>
        <pt x="771" y="272" on="0"/>
        <pt x="669" y="142" on="0"/>
        <pt x="572" y="94" on="1"/>
        <pt x="734" y="94" on="1"/>
        <pt x="756" y="125" on="0"/>
        <pt x="787" y="191" on="1"/>
        <pt x="797" y="195" on="0"/>
        <pt x="804" y="195" on="1"/>
        <pt x="832" y="195" on="0"/>
        <pt x="832" y="172" on="1"/>
        <pt x="832" y="135" on="0"/>
        <pt x="805" y="0" on="1"/>
        <pt x="553" y="0" on="1"/>
        <pt x="480" y="0" on="0"/>
        <pt x="480" y="66" on="1"/>
        <pt x="480" y="78" on="0"/>
        <pt x="482" y="100" on="1"/>
        <pt x="606" y="188" on="0"/>
        <pt x="606" y="361" on="1"/>
        <pt x="605" y="468" on="0"/>
        <pt x="515" y="587" on="0"/>
        <pt x="430" y="587" on="1"/>
        <pt x="346" y="587" on="0"/>
        <pt x="255" y="467" on="0"/>
        <pt x="254" y="361" on="1"/>
        <pt x="254" y="188" on="0"/>
        <pt x="379" y="100" on="1"/>
        <pt x="382" y="85" on="0"/>
        <pt x="382" y="66" on="1"/>
        <pt x="382" y="0" on="0"/>
        <pt x="308" y="0" on="1"/>
        <pt x="57" y="0" on="1"/>
        <pt x="50" y="32" on="0"/>
        <pt x="29" y="158" on="0"/>
        <pt x="29" y="172" on="1"/>
        <pt x="29" y="195" on="0"/>
        <pt x="58" y="195" on="1"/>
        <pt x="64" y="195" on="0"/>
        <pt x="74" y="191" on="1"/>
        <pt x="111" y="116" on="0"/>
        <pt x="127" y="94" on="1"/>
        <pt x="290" y="94" on="1"/>
        <pt x="191" y="142" on="0"/>
        <pt x="89" y="272" on="0"/>
        <pt x="89" y="371" on="1"/>
        <pt x="89" y="507" on="0"/>
        <pt x="286" y="678" on="0"/>
      </contour>
    </TTGlyph>
    <TTGlyph name="Oslash" xMin="32" yMin="-84" xMax="696" yMax="744">
      <contour>
        <pt x="363" y="-10" on="1"/>
        <pt x="286" y="-10" on="0"/>
        <pt x="226" y="14" on="1"/>
        <pt x="203" y="-27" on="1"/>
        <pt x="181" y="-67" on="0"/>
        <pt x="175" y="-84" on="1"/>
        <pt x="129" y="-79" on="0"/>
        <pt x="129" y="-53" on="1"/>
        <pt x="129" y="-43" on="0"/>
        <pt x="154" y="2" on="1"/>
        <pt x="175" y="40" on="1"/>
        <pt x="32" y="130" on="0"/>
        <pt x="32" y="331" on="1"/>
        <pt x="32" y="488" on="0"/>
        <pt x="211" y="673" on="0"/>
        <pt x="363" y="673" on="1"/>
        <pt x="443" y="673" on="0"/>
        <pt x="508" y="645" on="1"/>
        <pt x="531" y="687" on="1"/>
        <pt x="541" y="705" on="0"/>
        <pt x="559" y="744" on="1"/>
        <pt x="605" y="739" on="0"/>
        <pt x="605" y="713" on="1"/>
        <pt x="605" y="702" on="0"/>
        <pt x="583" y="663" on="1"/>
        <pt x="559" y="619" on="1"/>
        <pt x="624" y="575" on="0"/>
        <pt x="696" y="427" on="0"/>
        <pt x="696" y="331" on="1"/>
        <pt x="696" y="176" on="0"/>
        <pt x="515" y="-10" on="0"/>
      </contour>
      <contour>
        <pt x="364" y="572" on="1"/>
        <pt x="286" y="572" on="0"/>
        <pt x="194" y="454" on="0"/>
        <pt x="194" y="362" on="1"/>
        <pt x="194" y="236" on="0"/>
        <pt x="241" y="161" on="1"/>
        <pt x="451" y="541" on="1"/>
        <pt x="413" y="572" on="0"/>
      </contour>
      <contour>
        <pt x="532" y="313" on="1"/>
        <pt x="532" y="424" on="0"/>
        <pt x="490" y="495" on="1"/>
        <pt x="282" y="116" on="1"/>
        <pt x="316" y="91" on="0"/>
        <pt x="362" y="91" on="1"/>
        <pt x="443" y="91" on="0"/>
        <pt x="532" y="214" on="0"/>
      </contour>
    </TTGlyph>
    <TTGlyph name="Otilde" xMin="32" yMin="-10" xMax="696" yMax="861">
      <contour>
        <pt x="363" y="-10" on="1"/>
        <pt x="212" y="-10" on="0"/>
        <pt x="32" y="176" on="0"/>
        <pt x="32" y="331" on="1"/>
        <pt x="32" y="488" on="0"/>
        <pt x="211" y="673" on="0"/>
        <pt x="363" y="673" on="1"/>
        <pt x="516" y="673" on="0"/>
        <pt x="696" y="488" on="0"/>
        <pt x="696" y="331" on="1"/>
        <pt x="696" y="176" on="0"/>
        <pt x="515" y="-10" on="0"/>
      </contour>
      <contour>
        <pt x="532" y="313" on="1"/>
        <pt x="532" y="379" on="0"/>
        <pt x="501" y="491" on="0"/>
        <pt x="422" y="572" on="0"/>
        <pt x="364" y="572" on="1"/>
        <pt x="286" y="572" on="0"/>
        <pt x="194" y="454" on="0"/>
        <pt x="194" y="362" on="1"/>
        <pt x="194" y="292" on="0"/>
        <pt x="225" y="175" on="0"/>
        <pt x="304" y="91" on="0"/>
        <pt x="362" y="91" on="1"/>
        <pt x="443" y="91" on="0"/>
        <pt x="532" y="214" on="0"/>
      </contour>
      <contour>
        <pt x="547" y="817" on="1"/>
        <pt x="547" y="782" on="0"/>
        <pt x="467" y="717" on="0"/>
        <pt x="419" y="717" on="1"/>
        <pt x="395" y="717" on="0"/>
        <pt x="307" y="760" on="0"/>
        <pt x="290" y="760" on="1"/>
        <pt x="268" y="760" on="0"/>
        <pt x="222" y="720" on="1"/>
        <pt x="183" y="734" on="0"/>
        <pt x="183" y="761" on="1"/>
        <pt x="183" y="795" on="0"/>
        <pt x="264" y="861" on="0"/>
        <pt x="311" y="861" on="1"/>
        <pt x="335" y="861" on="0"/>
        <pt x="424" y="818" on="0"/>
        <pt x="441" y="818" on="1"/>
        <pt x="464" y="818" on="0"/>
        <pt x="508" y="858" on="1"/>
        <pt x="521" y="856" on="0"/>
        <pt x="547" y="833" on="0"/>
      </contour>
    </TTGlyph>
    <TTGlyph name="P" xMin="43" yMin="-3" xMax="525" yMax="673">
      <contour>
        <pt x="271" y="324" on="1"/>
        <pt x="314" y="324" on="0"/>
        <pt x="362" y="392" on="0"/>
        <pt x="362" y="450" on="1"/>
        <pt x="362" y="519" on="0"/>
        <pt x="302" y="572" on="0"/>
        <pt x="239" y="572" on="1"/>
        <pt x="227" y="572" on="0"/>
        <pt x="207" y="568" on="1"/>
        <pt x="211" y="522" on="0"/>
        <pt x="211" y="408" on="1"/>
        <pt x="211" y="339" on="1"/>
        <pt x="243" y="324" on="0"/>
      </contour>
      <contour>
        <pt x="57" y="231" on="1"/>
        <pt x="57" y="431" on="1"/>
        <pt x="57" y="571" on="0"/>
        <pt x="43" y="661" on="1"/>
        <pt x="129" y="673" on="0"/>
        <pt x="215" y="673" on="1"/>
        <pt x="525" y="673" on="0"/>
        <pt x="525" y="457" on="1"/>
        <pt x="525" y="350" on="0"/>
        <pt x="400" y="226" on="0"/>
        <pt x="312" y="226" on="1"/>
        <pt x="260" y="226" on="0"/>
        <pt x="211" y="256" on="1"/>
        <pt x="211" y="189" on="1"/>
        <pt x="211" y="87" on="0"/>
        <pt x="235" y="11" on="1"/>
        <pt x="204" y="-3" on="0"/>
        <pt x="141" y="-3" on="1"/>
        <pt x="90" y="-3" on="0"/>
        <pt x="55" y="41" on="0"/>
        <pt x="55" y="83" on="1"/>
        <pt x="55" y="99" on="0"/>
        <pt x="57" y="196" on="0"/>
      </contour>
    </TTGlyph>
    <TTGlyph name="Q" xMin="32" yMin="-168" xMax="696" yMax="673">
      <contour>
        <pt x="532" y="313" on="1"/>
        <pt x="532" y="379" on="0"/>
        <pt x="501" y="491" on="0"/>
        <pt x="422" y="572" on="0"/>
        <pt x="364" y="572" on="1"/>
        <pt x="286" y="572" on="0"/>
        <pt x="194" y="454" on="0"/>
        <pt x="194" y="362" on="1"/>
        <pt x="194" y="292" on="0"/>
        <pt x="225" y="175" on="0"/>
        <pt x="304" y="91" on="0"/>
        <pt x="362" y="91" on="1"/>
        <pt x="443" y="91" on="0"/>
        <pt x="532" y="214" on="0"/>
      </contour>
      <contour>
        <pt x="538" y="-168" on="1"/>
        <pt x="453" y="-168" on="0"/>
        <pt x="316" y="-86" on="0"/>
        <pt x="302" y="-5" on="1"/>
        <pt x="176" y="13" on="0"/>
        <pt x="32" y="192" on="0"/>
        <pt x="32" y="331" on="1"/>
        <pt x="32" y="488" on="0"/>
        <pt x="211" y="673" on="0"/>
        <pt x="363" y="673" on="1"/>
        <pt x="516" y="673" on="0"/>
        <pt x="696" y="488" on="0"/>
        <pt x="696" y="331" on="1"/>
        <pt x="696" y="190" on="0"/>
        <pt x="544" y="9" on="0"/>
        <pt x="414" y="-7" on="1"/>
        <pt x="433" y="-66" on="0"/>
        <pt x="513" y="-66" on="1"/>
        <pt x="549" y="-66" on="0"/>
        <pt x="618" y="-38" on="0"/>
        <pt x="636" y="-14" on="1"/>
        <pt x="658" y="-28" on="0"/>
        <pt x="687" y="-72" on="0"/>
        <pt x="687" y="-94" on="1"/>
        <pt x="687" y="-127" on="0"/>
        <pt x="600" y="-168" on="0"/>
      </contour>
    </TTGlyph>
    <TTGlyph name="R" xMin="43" yMin="-10" xMax="578" yMax="673">
      <contour>
        <pt x="489" y="119" on="1"/>
        <pt x="510" y="95" on="0"/>
        <pt x="541" y="95" on="1"/>
        <pt x="554" y="95" on="0"/>
        <pt x="569" y="98" on="1"/>
        <pt x="578" y="73" on="0"/>
        <pt x="578" y="53" on="1"/>
        <pt x="578" y="19" on="0"/>
        <pt x="513" y="-10" on="0"/>
        <pt x="471" y="-10" on="1"/>
        <pt x="417" y="-10" on="0"/>
        <pt x="384" y="24" on="1"/>
        <pt x="321" y="88" on="0"/>
        <pt x="254" y="272" on="1"/>
        <pt x="235" y="279" on="0"/>
        <pt x="235" y="301" on="1"/>
        <pt x="235" y="321" on="0"/>
        <pt x="246" y="347" on="1"/>
        <pt x="257" y="344" on="0"/>
        <pt x="272" y="344" on="1"/>
        <pt x="316" y="344" on="0"/>
        <pt x="362" y="413" on="0"/>
        <pt x="362" y="469" on="1"/>
        <pt x="362" y="526" on="0"/>
        <pt x="304" y="571" on="0"/>
        <pt x="244" y="571" on="1"/>
        <pt x="228" y="571" on="0"/>
        <pt x="206" y="569" on="1"/>
        <pt x="209" y="529" on="0"/>
        <pt x="209" y="378" on="1"/>
        <pt x="209" y="199" on="1"/>
        <pt x="209" y="86" on="0"/>
        <pt x="233" y="11" on="1"/>
        <pt x="196" y="-3" on="0"/>
        <pt x="139" y="-3" on="1"/>
        <pt x="89" y="-3" on="0"/>
        <pt x="53" y="40" on="0"/>
        <pt x="53" y="83" on="1"/>
        <pt x="53" y="99" on="0"/>
        <pt x="55" y="196" on="0"/>
        <pt x="55" y="231" on="1"/>
        <pt x="55" y="431" on="1"/>
        <pt x="55" y="565" on="0"/>
        <pt x="43" y="661" on="1"/>
        <pt x="129" y="673" on="0"/>
        <pt x="215" y="673" on="1"/>
        <pt x="524" y="673" on="0"/>
        <pt x="524" y="464" on="1"/>
        <pt x="524" y="328" on="0"/>
        <pt x="403" y="281" on="1"/>
        <pt x="452" y="161" on="0"/>
      </contour>
    </TTGlyph>
    <TTGlyph name="S" xMin="29" yMin="-10" xMax="517" yMax="673">
      <contour>
        <pt x="419" y="498" on="1"/>
        <pt x="403" y="527" on="0"/>
        <pt x="317" y="570" on="0"/>
        <pt x="277" y="570" on="1"/>
        <pt x="244" y="570" on="0"/>
        <pt x="203" y="535" on="0"/>
        <pt x="203" y="499" on="1"/>
        <pt x="203" y="467" on="0"/>
        <pt x="250" y="423" on="0"/>
        <pt x="319" y="402" on="0"/>
        <pt x="401" y="370" on="0"/>
        <pt x="470" y="334" on="0"/>
        <pt x="517" y="258" on="0"/>
        <pt x="517" y="204" on="1"/>
        <pt x="517" y="145" on="0"/>
        <pt x="472" y="59" on="0"/>
        <pt x="394" y="12" on="0"/>
        <pt x="305" y="-10" on="0"/>
        <pt x="254" y="-10" on="1"/>
        <pt x="162" y="-10" on="0"/>
        <pt x="29" y="42" on="0"/>
        <pt x="29" y="84" on="1"/>
        <pt x="29" y="115" on="0"/>
        <pt x="63" y="153" on="0"/>
        <pt x="104" y="175" on="1"/>
        <pt x="129" y="140" on="0"/>
        <pt x="229" y="93" on="0"/>
        <pt x="276" y="93" on="1"/>
        <pt x="316" y="93" on="0"/>
        <pt x="366" y="131" on="0"/>
        <pt x="366" y="171" on="1"/>
        <pt x="366" y="209" on="0"/>
        <pt x="301" y="255" on="0"/>
        <pt x="209" y="283" on="0"/>
        <pt x="117" y="322" on="0"/>
        <pt x="52" y="412" on="0"/>
        <pt x="52" y="483" on="1"/>
        <pt x="52" y="534" on="0"/>
        <pt x="96" y="610" on="0"/>
        <pt x="171" y="653" on="0"/>
        <pt x="260" y="673" on="0"/>
        <pt x="312" y="673" on="1"/>
        <pt x="394" y="673" on="0"/>
        <pt x="512" y="625" on="0"/>
        <pt x="512" y="582" on="1"/>
        <pt x="512" y="556" on="0"/>
        <pt x="463" y="510" on="0"/>
      </contour>
    </TTGlyph>
    <TTGlyph name="Scaron" xMin="29" yMin="-10" xMax="517" yMax="916">
      <contour>
        <pt x="419" y="498" on="1"/>
        <pt x="403" y="527" on="0"/>
        <pt x="317" y="570" on="0"/>
        <pt x="277" y="570" on="1"/>
        <pt x="244" y="570" on="0"/>
        <pt x="203" y="535" on="0"/>
        <pt x="203" y="499" on="1"/>
        <pt x="203" y="467" on="0"/>
        <pt x="250" y="423" on="0"/>
        <pt x="319" y="402" on="0"/>
        <pt x="401" y="370" on="0"/>
        <pt x="470" y="334" on="0"/>
        <pt x="517" y="258" on="0"/>
        <pt x="517" y="204" on="1"/>
        <pt x="517" y="145" on="0"/>
        <pt x="472" y="59" on="0"/>
        <pt x="394" y="12" on="0"/>
        <pt x="305" y="-10" on="0"/>
        <pt x="254" y="-10" on="1"/>
        <pt x="162" y="-10" on="0"/>
        <pt x="29" y="42" on="0"/>
        <pt x="29" y="84" on="1"/>
        <pt x="29" y="115" on="0"/>
        <pt x="63" y="153" on="0"/>
        <pt x="104" y="175" on="1"/>
        <pt x="129" y="140" on="0"/>
        <pt x="229" y="93" on="0"/>
        <pt x="276" y="93" on="1"/>
        <pt x="316" y="93" on="0"/>
        <pt x="366" y="131" on="0"/>
        <pt x="366" y="171" on="1"/>
        <pt x="366" y="209" on="0"/>
        <pt x="301" y="255" on="0"/>
        <pt x="209" y="283" on="0"/>
        <pt x="117" y="322" on="0"/>
        <pt x="52" y="412" on="0"/>
        <pt x="52" y="483" on="1"/>
        <pt x="52" y="534" on="0"/>
        <pt x="96" y="610" on="0"/>
        <pt x="171" y="653" on="0"/>
        <pt x="260" y="673" on="0"/>
        <pt x="312" y="673" on="1"/>
        <pt x="394" y="673" on="0"/>
        <pt x="512" y="625" on="0"/>
        <pt x="512" y="582" on="1"/>
        <pt x="512" y="556" on="0"/>
        <pt x="463" y="510" on="0"/>
      </contour>
      <contour>
        <pt x="293" y="712" on="1"/>
        <pt x="239" y="741" on="0"/>
        <pt x="127" y="831" on="0"/>
        <pt x="127" y="854" on="1"/>
        <pt x="127" y="887" on="0"/>
        <pt x="184" y="916" on="1"/>
        <pt x="203" y="892" on="0"/>
        <pt x="258" y="846" on="0"/>
        <pt x="276" y="835" on="1"/>
        <pt x="295" y="824" on="1"/>
        <pt x="332" y="857" on="0"/>
        <pt x="365" y="883" on="0"/>
        <pt x="402" y="904" on="0"/>
        <pt x="415" y="904" on="1"/>
        <pt x="439" y="904" on="0"/>
        <pt x="474" y="866" on="1"/>
        <pt x="392" y="777" on="0"/>
      </contour>
    </TTGlyph>
    <TTGlyph name="T" xMin="0" yMin="-3" xMax="545" yMax="665">
      <contour>
        <pt x="196" y="218" on="1"/>
        <pt x="196" y="403" on="1"/>
        <pt x="196" y="490" on="0"/>
        <pt x="193" y="562" on="1"/>
        <pt x="65" y="562" on="0"/>
        <pt x="5" y="556" on="1"/>
        <pt x="0" y="571" on="0"/>
        <pt x="0" y="605" on="1"/>
        <pt x="0" y="624" on="0"/>
        <pt x="14" y="648" on="0"/>
        <pt x="45" y="658" on="0"/>
        <pt x="73" y="661" on="0"/>
        <pt x="97" y="661" on="1"/>
        <pt x="312" y="661" on="1"/>
        <pt x="480" y="661" on="0"/>
        <pt x="540" y="665" on="1"/>
        <pt x="545" y="643" on="0"/>
        <pt x="545" y="619" on="1"/>
        <pt x="545" y="562" on="0"/>
        <pt x="469" y="562" on="1"/>
        <pt x="355" y="562" on="1"/>
        <pt x="350" y="467" on="0"/>
        <pt x="350" y="377" on="1"/>
        <pt x="350" y="190" on="1"/>
        <pt x="350" y="89" on="0"/>
        <pt x="374" y="11" on="1"/>
        <pt x="330" y="-3" on="0"/>
        <pt x="278" y="-3" on="1"/>
        <pt x="230" y="-3" on="0"/>
        <pt x="194" y="40" on="0"/>
        <pt x="194" y="83" on="1"/>
        <pt x="194" y="98" on="0"/>
        <pt x="196" y="186" on="0"/>
      </contour>
    </TTGlyph>
    <TTGlyph name="Thorn" xMin="43" yMin="-3" xMax="520" yMax="666">
      <contour>
        <pt x="52" y="231" on="1"/>
        <pt x="52" y="431" on="1"/>
        <pt x="52" y="541" on="0"/>
        <pt x="43" y="658" on="1"/>
        <pt x="81" y="666" on="0"/>
        <pt x="122" y="666" on="1"/>
        <pt x="160" y="666" on="0"/>
        <pt x="213" y="639" on="0"/>
        <pt x="213" y="611" on="1"/>
        <pt x="213" y="606" on="0"/>
        <pt x="211" y="568" on="1"/>
        <pt x="520" y="566" on="0"/>
        <pt x="520" y="352" on="1"/>
        <pt x="520" y="245" on="0"/>
        <pt x="395" y="121" on="0"/>
        <pt x="307" y="121" on="1"/>
        <pt x="256" y="121" on="0"/>
        <pt x="207" y="150" on="1"/>
        <pt x="210" y="76" on="0"/>
        <pt x="230" y="11" on="1"/>
        <pt x="193" y="-3" on="0"/>
        <pt x="139" y="-3" on="1"/>
        <pt x="119" y="-3" on="0"/>
        <pt x="93" y="2" on="0"/>
        <pt x="64" y="17" on="0"/>
        <pt x="50" y="54" on="0"/>
        <pt x="50" y="83" on="1"/>
        <pt x="50" y="102" on="0"/>
        <pt x="52" y="207" on="0"/>
      </contour>
      <contour>
        <pt x="266" y="219" on="1"/>
        <pt x="309" y="219" on="0"/>
        <pt x="357" y="287" on="0"/>
        <pt x="357" y="345" on="1"/>
        <pt x="357" y="414" on="0"/>
        <pt x="297" y="467" on="0"/>
        <pt x="234" y="467" on="1"/>
        <pt x="207" y="464" on="1"/>
        <pt x="206" y="444" on="0"/>
        <pt x="206" y="404" on="1"/>
        <pt x="206" y="234" on="1"/>
        <pt x="238" y="219" on="0"/>
      </contour>
    </TTGlyph>
    <TTGlyph name="U" xMin="47" yMin="-10" xMax="638" yMax="666">
      <contour>
        <pt x="457" y="77" on="1"/>
        <pt x="415" y="36" on="0"/>
        <pt x="306" y="-10" on="0"/>
        <pt x="258" y="-10" on="1"/>
        <pt x="164" y="-10" on="0"/>
        <pt x="55" y="79" on="0"/>
        <pt x="55" y="192" on="1"/>
        <pt x="55" y="251" on="0"/>
        <pt x="64" y="453" on="0"/>
        <pt x="64" y="501" on="1"/>
        <pt x="64" y="595" on="0"/>
        <pt x="47" y="652" on="1"/>
        <pt x="84" y="666" on="0"/>
        <pt x="128" y="666" on="1"/>
        <pt x="182" y="666" on="0"/>
        <pt x="226" y="622" on="0"/>
        <pt x="226" y="562" on="1"/>
        <pt x="226" y="540" on="0"/>
        <pt x="213" y="275" on="0"/>
        <pt x="213" y="198" on="1"/>
        <pt x="213" y="147" on="0"/>
        <pt x="270" y="94" on="0"/>
        <pt x="307" y="94" on="1"/>
        <pt x="345" y="94" on="0"/>
        <pt x="432" y="139" on="0"/>
        <pt x="459" y="169" on="1"/>
        <pt x="459" y="176" on="0"/>
        <pt x="460" y="227" on="0"/>
        <pt x="460" y="350" on="0"/>
        <pt x="460" y="446" on="1"/>
        <pt x="460" y="548" on="0"/>
        <pt x="451" y="658" on="1"/>
        <pt x="489" y="666" on="0"/>
        <pt x="529" y="666" on="1"/>
        <pt x="573" y="666" on="0"/>
        <pt x="621" y="637" on="0"/>
        <pt x="621" y="612" on="1"/>
        <pt x="618" y="534" on="1"/>
        <pt x="614" y="455" on="0"/>
        <pt x="614" y="366" on="1"/>
        <pt x="614" y="259" on="1"/>
        <pt x="614" y="152" on="0"/>
        <pt x="624" y="56" on="0"/>
        <pt x="638" y="11" on="1"/>
        <pt x="601" y="-3" on="0"/>
        <pt x="547" y="-3" on="1"/>
        <pt x="498" y="-3" on="0"/>
        <pt x="462" y="31" on="0"/>
      </contour>
    </TTGlyph>
    <TTGlyph name="Uacute" xMin="47" yMin="-10" xMax="638" yMax="936">
      <contour>
        <pt x="457" y="77" on="1"/>
        <pt x="415" y="36" on="0"/>
        <pt x="306" y="-10" on="0"/>
        <pt x="258" y="-10" on="1"/>
        <pt x="164" y="-10" on="0"/>
        <pt x="55" y="79" on="0"/>
        <pt x="55" y="192" on="1"/>
        <pt x="55" y="251" on="0"/>
        <pt x="64" y="453" on="0"/>
        <pt x="64" y="501" on="1"/>
        <pt x="64" y="595" on="0"/>
        <pt x="47" y="652" on="1"/>
        <pt x="84" y="666" on="0"/>
        <pt x="128" y="666" on="1"/>
        <pt x="182" y="666" on="0"/>
        <pt x="226" y="622" on="0"/>
        <pt x="226" y="562" on="1"/>
        <pt x="226" y="540" on="0"/>
        <pt x="213" y="275" on="0"/>
        <pt x="213" y="198" on="1"/>
        <pt x="213" y="147" on="0"/>
        <pt x="270" y="94" on="0"/>
        <pt x="307" y="94" on="1"/>
        <pt x="345" y="94" on="0"/>
        <pt x="432" y="139" on="0"/>
        <pt x="459" y="169" on="1"/>
        <pt x="459" y="176" on="0"/>
        <pt x="460" y="227" on="0"/>
        <pt x="460" y="350" on="0"/>
        <pt x="460" y="446" on="1"/>
        <pt x="460" y="548" on="0"/>
        <pt x="451" y="658" on="1"/>
        <pt x="489" y="666" on="0"/>
        <pt x="529" y="666" on="1"/>
        <pt x="573" y="666" on="0"/>
        <pt x="621" y="637" on="0"/>
        <pt x="621" y="612" on="1"/>
        <pt x="618" y="534" on="1"/>
        <pt x="614" y="455" on="0"/>
        <pt x="614" y="366" on="1"/>
        <pt x="614" y="259" on="1"/>
        <pt x="614" y="152" on="0"/>
        <pt x="624" y="56" on="0"/>
        <pt x="638" y="11" on="1"/>
        <pt x="601" y="-3" on="0"/>
        <pt x="547" y="-3" on="1"/>
        <pt x="498" y="-3" on="0"/>
        <pt x="462" y="31" on="0"/>
      </contour>
      <contour>
        <pt x="511" y="822" on="1"/>
        <pt x="487" y="807" on="0"/>
        <pt x="313" y="734" on="0"/>
        <pt x="295" y="716" on="1"/>
        <pt x="260" y="744" on="0"/>
        <pt x="260" y="767" on="1"/>
        <pt x="260" y="786" on="0"/>
        <pt x="312" y="825" on="0"/>
        <pt x="380" y="855" on="0"/>
        <pt x="461" y="908" on="0"/>
        <pt x="482" y="936" on="1"/>
        <pt x="535" y="907" on="0"/>
        <pt x="535" y="867" on="1"/>
        <pt x="535" y="838" on="0"/>
      </contour>
    </TTGlyph>
    <TTGlyph name="Ucircumflex" xMin="47" yMin="-10" xMax="638" yMax="912">
      <contour>
        <pt x="457" y="77" on="1"/>
        <pt x="415" y="36" on="0"/>
        <pt x="306" y="-10" on="0"/>
        <pt x="258" y="-10" on="1"/>
        <pt x="164" y="-10" on="0"/>
        <pt x="55" y="79" on="0"/>
        <pt x="55" y="192" on="1"/>
        <pt x="55" y="251" on="0"/>
        <pt x="64" y="453" on="0"/>
        <pt x="64" y="501" on="1"/>
        <pt x="64" y="595" on="0"/>
        <pt x="47" y="652" on="1"/>
        <pt x="84" y="666" on="0"/>
        <pt x="128" y="666" on="1"/>
        <pt x="182" y="666" on="0"/>
        <pt x="226" y="622" on="0"/>
        <pt x="226" y="562" on="1"/>
        <pt x="226" y="540" on="0"/>
        <pt x="213" y="275" on="0"/>
        <pt x="213" y="198" on="1"/>
        <pt x="213" y="147" on="0"/>
        <pt x="270" y="94" on="0"/>
        <pt x="307" y="94" on="1"/>
        <pt x="345" y="94" on="0"/>
        <pt x="432" y="139" on="0"/>
        <pt x="459" y="169" on="1"/>
        <pt x="459" y="176" on="0"/>
        <pt x="460" y="227" on="0"/>
        <pt x="460" y="350" on="0"/>
        <pt x="460" y="446" on="1"/>
        <pt x="460" y="548" on="0"/>
        <pt x="451" y="658" on="1"/>
        <pt x="489" y="666" on="0"/>
        <pt x="529" y="666" on="1"/>
        <pt x="573" y="666" on="0"/>
        <pt x="621" y="637" on="0"/>
        <pt x="621" y="612" on="1"/>
        <pt x="618" y="534" on="1"/>
        <pt x="614" y="455" on="0"/>
        <pt x="614" y="366" on="1"/>
        <pt x="614" y="259" on="1"/>
        <pt x="614" y="152" on="0"/>
        <pt x="624" y="56" on="0"/>
        <pt x="638" y="11" on="1"/>
        <pt x="601" y="-3" on="0"/>
        <pt x="547" y="-3" on="1"/>
        <pt x="498" y="-3" on="0"/>
        <pt x="462" y="31" on="0"/>
      </contour>
      <contour>
        <pt x="342" y="912" on="1"/>
        <pt x="506" y="822" on="0"/>
        <pt x="506" y="769" on="1"/>
        <pt x="506" y="752" on="0"/>
        <pt x="471" y="718" on="0"/>
        <pt x="444" y="712" on="1"/>
        <pt x="420" y="740" on="0"/>
        <pt x="368" y="784" on="0"/>
        <pt x="354" y="792" on="1"/>
        <pt x="340" y="801" on="1"/>
        <pt x="241" y="720" on="0"/>
        <pt x="217" y="720" on="1"/>
        <pt x="200" y="720" on="0"/>
        <pt x="177" y="735" on="0"/>
        <pt x="161" y="758" on="1"/>
        <pt x="243" y="847" on="0"/>
      </contour>
    </TTGlyph>
    <TTGlyph name="Udieresis" xMin="47" yMin="-10" xMax="638" yMax="900">
      <contour>
        <pt x="457" y="77" on="1"/>
        <pt x="415" y="36" on="0"/>
        <pt x="306" y="-10" on="0"/>
        <pt x="258" y="-10" on="1"/>
        <pt x="164" y="-10" on="0"/>
        <pt x="55" y="79" on="0"/>
        <pt x="55" y="192" on="1"/>
        <pt x="55" y="251" on="0"/>
        <pt x="64" y="453" on="0"/>
        <pt x="64" y="501" on="1"/>
        <pt x="64" y="595" on="0"/>
        <pt x="47" y="652" on="1"/>
        <pt x="84" y="666" on="0"/>
        <pt x="128" y="666" on="1"/>
        <pt x="182" y="666" on="0"/>
        <pt x="226" y="622" on="0"/>
        <pt x="226" y="562" on="1"/>
        <pt x="226" y="540" on="0"/>
        <pt x="213" y="275" on="0"/>
        <pt x="213" y="198" on="1"/>
        <pt x="213" y="147" on="0"/>
        <pt x="270" y="94" on="0"/>
        <pt x="307" y="94" on="1"/>
        <pt x="345" y="94" on="0"/>
        <pt x="432" y="139" on="0"/>
        <pt x="459" y="169" on="1"/>
        <pt x="459" y="176" on="0"/>
        <pt x="460" y="227" on="0"/>
        <pt x="460" y="350" on="0"/>
        <pt x="460" y="446" on="1"/>
        <pt x="460" y="548" on="0"/>
        <pt x="451" y="658" on="1"/>
        <pt x="489" y="666" on="0"/>
        <pt x="529" y="666" on="1"/>
        <pt x="573" y="666" on="0"/>
        <pt x="621" y="637" on="0"/>
        <pt x="621" y="612" on="1"/>
        <pt x="618" y="534" on="1"/>
        <pt x="614" y="455" on="0"/>
        <pt x="614" y="366" on="1"/>
        <pt x="614" y="259" on="1"/>
        <pt x="614" y="152" on="0"/>
        <pt x="624" y="56" on="0"/>
        <pt x="638" y="11" on="1"/>
        <pt x="601" y="-3" on="0"/>
        <pt x="547" y="-3" on="1"/>
        <pt x="498" y="-3" on="0"/>
        <pt x="462" y="31" on="0"/>
      </contour>
      <contour>
        <pt x="451" y="713" on="1"/>
        <pt x="413" y="713" on="0"/>
        <pt x="360" y="766" on="0"/>
        <pt x="360" y="807" on="1"/>
        <pt x="360" y="846" on="0"/>
        <pt x="416" y="900" on="0"/>
        <pt x="490" y="900" on="0"/>
        <pt x="543" y="846" on="0"/>
        <pt x="543" y="807" on="1"/>
        <pt x="543" y="766" on="0"/>
        <pt x="487" y="713" on="0"/>
      </contour>
      <contour>
        <pt x="222" y="713" on="1"/>
        <pt x="184" y="713" on="0"/>
        <pt x="131" y="766" on="0"/>
        <pt x="131" y="807" on="1"/>
        <pt x="131" y="846" on="0"/>
        <pt x="187" y="900" on="0"/>
        <pt x="261" y="900" on="0"/>
        <pt x="314" y="846" on="0"/>
        <pt x="314" y="807" on="1"/>
        <pt x="314" y="766" on="0"/>
        <pt x="258" y="713" on="0"/>
      </contour>
    </TTGlyph>
    <TTGlyph name="Ugrave" xMin="47" yMin="-10" xMax="638" yMax="948">
      <contour>
        <pt x="457" y="77" on="1"/>
        <pt x="415" y="36" on="0"/>
        <pt x="306" y="-10" on="0"/>
        <pt x="258" y="-10" on="1"/>
        <pt x="164" y="-10" on="0"/>
        <pt x="55" y="79" on="0"/>
        <pt x="55" y="192" on="1"/>
        <pt x="55" y="251" on="0"/>
        <pt x="64" y="453" on="0"/>
        <pt x="64" y="501" on="1"/>
        <pt x="64" y="595" on="0"/>
        <pt x="47" y="652" on="1"/>
        <pt x="84" y="666" on="0"/>
        <pt x="128" y="666" on="1"/>
        <pt x="182" y="666" on="0"/>
        <pt x="226" y="622" on="0"/>
        <pt x="226" y="562" on="1"/>
        <pt x="226" y="540" on="0"/>
        <pt x="213" y="275" on="0"/>
        <pt x="213" y="198" on="1"/>
        <pt x="213" y="147" on="0"/>
        <pt x="270" y="94" on="0"/>
        <pt x="307" y="94" on="1"/>
        <pt x="345" y="94" on="0"/>
        <pt x="432" y="139" on="0"/>
        <pt x="459" y="169" on="1"/>
        <pt x="459" y="176" on="0"/>
        <pt x="460" y="227" on="0"/>
        <pt x="460" y="350" on="0"/>
        <pt x="460" y="446" on="1"/>
        <pt x="460" y="548" on="0"/>
        <pt x="451" y="658" on="1"/>
        <pt x="489" y="666" on="0"/>
        <pt x="529" y="666" on="1"/>
        <pt x="573" y="666" on="0"/>
        <pt x="621" y="637" on="0"/>
        <pt x="621" y="612" on="1"/>
        <pt x="618" y="534" on="1"/>
        <pt x="614" y="455" on="0"/>
        <pt x="614" y="366" on="1"/>
        <pt x="614" y="259" on="1"/>
        <pt x="614" y="152" on="0"/>
        <pt x="624" y="56" on="0"/>
        <pt x="638" y="11" on="1"/>
        <pt x="601" y="-3" on="0"/>
        <pt x="547" y="-3" on="1"/>
        <pt x="498" y="-3" on="0"/>
        <pt x="462" y="31" on="0"/>
      </contour>
      <contour>
        <pt x="212" y="948" on="1"/>
        <pt x="232" y="922" on="0"/>
        <pt x="304" y="868" on="0"/>
        <pt x="362" y="833" on="0"/>
        <pt x="407" y="790" on="0"/>
        <pt x="407" y="771" on="1"/>
        <pt x="407" y="744" on="0"/>
        <pt x="368" y="716" on="1"/>
        <pt x="331" y="743" on="0"/>
        <pt x="208" y="806" on="0"/>
        <pt x="145" y="851" on="0"/>
        <pt x="145" y="877" on="1"/>
        <pt x="145" y="916" on="0"/>
      </contour>
    </TTGlyph>
    <TTGlyph name="V" xMin="-13" yMin="-3" xMax="618" yMax="673">
      <contour>
        <pt x="449" y="662" on="1"/>
        <pt x="491" y="673" on="0"/>
        <pt x="526" y="673" on="1"/>
        <pt x="618" y="673" on="0"/>
        <pt x="618" y="611" on="1"/>
        <pt x="618" y="515" on="0"/>
        <pt x="486" y="162" on="0"/>
        <pt x="419" y="70" on="1"/>
        <pt x="366" y="-3" on="0"/>
        <pt x="283" y="-3" on="1"/>
        <pt x="239" y="-3" on="0"/>
        <pt x="210" y="4" on="1"/>
        <pt x="178" y="162" on="0"/>
        <pt x="45" y="534" on="0"/>
        <pt x="-13" y="610" on="1"/>
        <pt x="48" y="666" on="0"/>
        <pt x="100" y="666" on="1"/>
        <pt x="136" y="666" on="0"/>
        <pt x="156" y="633" on="1"/>
        <pt x="227" y="514" on="0"/>
        <pt x="306" y="115" on="1"/>
        <pt x="355" y="196" on="0"/>
        <pt x="455" y="495" on="0"/>
        <pt x="455" y="603" on="1"/>
        <pt x="455" y="635" on="0"/>
      </contour>
    </TTGlyph>
    <TTGlyph name="W" xMin="-13" yMin="-3" xMax="990" yMax="673">
      <contour>
        <pt x="416" y="662" on="1"/>
        <pt x="458" y="673" on="0"/>
        <pt x="493" y="673" on="1"/>
        <pt x="585" y="673" on="0"/>
        <pt x="585" y="611" on="1"/>
        <pt x="585" y="580" on="0"/>
        <pt x="577" y="535" on="1"/>
        <pt x="639" y="426" on="0"/>
        <pt x="694" y="115" on="1"/>
        <pt x="738" y="196" on="0"/>
        <pt x="827" y="495" on="0"/>
        <pt x="827" y="603" on="1"/>
        <pt x="827" y="635" on="0"/>
        <pt x="821" y="662" on="1"/>
        <pt x="863" y="673" on="0"/>
        <pt x="898" y="673" on="1"/>
        <pt x="990" y="673" on="0"/>
        <pt x="990" y="611" on="1"/>
        <pt x="990" y="515" on="0"/>
        <pt x="865" y="162" on="0"/>
        <pt x="801" y="70" on="1"/>
        <pt x="751" y="-3" on="0"/>
        <pt x="673" y="-3" on="1"/>
        <pt x="631" y="-3" on="0"/>
        <pt x="603" y="4" on="1"/>
        <pt x="563" y="207" on="0"/>
        <pt x="523" y="342" on="1"/>
        <pt x="461" y="164" on="0"/>
        <pt x="396" y="70" on="1"/>
        <pt x="346" y="-3" on="0"/>
        <pt x="268" y="-3" on="1"/>
        <pt x="226" y="-3" on="0"/>
        <pt x="198" y="4" on="1"/>
        <pt x="168" y="163" on="0"/>
        <pt x="42" y="534" on="0"/>
        <pt x="-13" y="610" on="1"/>
        <pt x="48" y="666" on="0"/>
        <pt x="100" y="666" on="1"/>
        <pt x="136" y="666" on="0"/>
        <pt x="156" y="633" on="1"/>
        <pt x="191" y="566" on="0"/>
        <pt x="264" y="260" on="0"/>
        <pt x="289" y="115" on="1"/>
        <pt x="333" y="196" on="0"/>
        <pt x="422" y="495" on="0"/>
        <pt x="422" y="603" on="1"/>
        <pt x="422" y="635" on="0"/>
      </contour>
    </TTGlyph>
    <TTGlyph name="X" xMin="16" yMin="-10" xMax="637" yMax="673">
      <contour>
        <pt x="18" y="65" on="1"/>
        <pt x="18" y="82" on="0"/>
        <pt x="51" y="137" on="0"/>
        <pt x="109" y="204" on="0"/>
        <pt x="162" y="261" on="0"/>
        <pt x="230" y="330" on="0"/>
        <pt x="243" y="345" on="1"/>
        <pt x="188" y="434" on="0"/>
        <pt x="61" y="567" on="0"/>
        <pt x="16" y="596" on="1"/>
        <pt x="79" y="673" on="0"/>
        <pt x="137" y="673" on="1"/>
        <pt x="171" y="673" on="0"/>
        <pt x="218" y="643" on="0"/>
        <pt x="238" y="608" on="1"/>
        <pt x="289" y="518" on="0"/>
        <pt x="327" y="424" on="1"/>
        <pt x="426" y="589" on="0"/>
        <pt x="436" y="673" on="1"/>
        <pt x="581" y="657" on="0"/>
        <pt x="581" y="598" on="1"/>
        <pt x="581" y="585" on="0"/>
        <pt x="558" y="542" on="0"/>
        <pt x="511" y="482" on="0"/>
        <pt x="473" y="437" on="0"/>
        <pt x="406" y="361" on="0"/>
        <pt x="393" y="346" on="1"/>
        <pt x="452" y="246" on="0"/>
        <pt x="590" y="92" on="0"/>
        <pt x="637" y="63" on="1"/>
        <pt x="577" y="-10" on="0"/>
        <pt x="510" y="-10" on="1"/>
        <pt x="456" y="-10" on="0"/>
        <pt x="431" y="38" on="1"/>
        <pt x="324" y="235" on="0"/>
        <pt x="310" y="264" on="1"/>
        <pt x="262" y="209" on="0"/>
        <pt x="172" y="48" on="0"/>
        <pt x="162" y="-10" on="1"/>
        <pt x="103" y="-5" on="0"/>
        <pt x="18" y="32" on="0"/>
      </contour>
    </TTGlyph>
    <TTGlyph name="Y" xMin="-7" yMin="-3" xMax="561" yMax="673">
      <contour>
        <pt x="298" y="391" on="1"/>
        <pt x="333" y="445" on="0"/>
        <pt x="416" y="640" on="0"/>
        <pt x="417" y="673" on="1"/>
        <pt x="561" y="658" on="0"/>
        <pt x="561" y="598" on="1"/>
        <pt x="561" y="589" on="0"/>
        <pt x="548" y="558" on="0"/>
        <pt x="519" y="512" on="0"/>
        <pt x="493" y="473" on="0"/>
        <pt x="446" y="409" on="0"/>
        <pt x="422" y="377" on="0"/>
        <pt x="370" y="309" on="0"/>
        <pt x="364" y="301" on="1"/>
        <pt x="364" y="203" on="1"/>
        <pt x="364" y="91" on="0"/>
        <pt x="388" y="11" on="1"/>
        <pt x="351" y="-3" on="0"/>
        <pt x="297" y="-3" on="1"/>
        <pt x="277" y="-3" on="0"/>
        <pt x="251" y="2" on="0"/>
        <pt x="222" y="17" on="0"/>
        <pt x="208" y="54" on="0"/>
        <pt x="208" y="83" on="1"/>
        <pt x="208" y="102" on="0"/>
        <pt x="210" y="207" on="0"/>
        <pt x="210" y="231" on="1"/>
        <pt x="210" y="294" on="1"/>
        <pt x="64" y="569" on="0"/>
        <pt x="-7" y="600" on="1"/>
        <pt x="44" y="669" on="0"/>
        <pt x="156" y="669" on="0"/>
        <pt x="192" y="606" on="1"/>
        <pt x="223" y="550" on="0"/>
      </contour>
    </TTGlyph>
    <TTGlyph name="Yacute" xMin="-7" yMin="-3" xMax="561" yMax="936">
      <contour>
        <pt x="298" y="391" on="1"/>
        <pt x="333" y="445" on="0"/>
        <pt x="416" y="640" on="0"/>
        <pt x="417" y="673" on="1"/>
        <pt x="561" y="658" on="0"/>
        <pt x="561" y="598" on="1"/>
        <pt x="561" y="589" on="0"/>
        <pt x="548" y="558" on="0"/>
        <pt x="519" y="512" on="0"/>
        <pt x="493" y="473" on="0"/>
        <pt x="446" y="409" on="0"/>
        <pt x="422" y="377" on="0"/>
        <pt x="370" y="309" on="0"/>
        <pt x="364" y="301" on="1"/>
        <pt x="364" y="203" on="1"/>
        <pt x="364" y="91" on="0"/>
        <pt x="388" y="11" on="1"/>
        <pt x="351" y="-3" on="0"/>
        <pt x="297" y="-3" on="1"/>
        <pt x="277" y="-3" on="0"/>
        <pt x="251" y="2" on="0"/>
        <pt x="222" y="17" on="0"/>
        <pt x="208" y="54" on="0"/>
        <pt x="208" y="83" on="1"/>
        <pt x="208" y="102" on="0"/>
        <pt x="210" y="207" on="0"/>
        <pt x="210" y="231" on="1"/>
        <pt x="210" y="294" on="1"/>
        <pt x="64" y="569" on="0"/>
        <pt x="-7" y="600" on="1"/>
        <pt x="44" y="669" on="0"/>
        <pt x="156" y="669" on="0"/>
        <pt x="192" y="606" on="1"/>
        <pt x="223" y="550" on="0"/>
      </contour>
      <contour>
        <pt x="468" y="822" on="1"/>
        <pt x="444" y="807" on="0"/>
        <pt x="270" y="734" on="0"/>
        <pt x="252" y="716" on="1"/>
        <pt x="217" y="744" on="0"/>
        <pt x="217" y="767" on="1"/>
        <pt x="217" y="786" on="0"/>
        <pt x="269" y="825" on="0"/>
        <pt x="337" y="855" on="0"/>
        <pt x="418" y="908" on="0"/>
        <pt x="439" y="936" on="1"/>
        <pt x="492" y="907" on="0"/>
        <pt x="492" y="867" on="1"/>
        <pt x="492" y="838" on="0"/>
      </contour>
    </TTGlyph>
    <TTGlyph name="Ydieresis" xMin="-7" yMin="-3" xMax="561" yMax="900">
      <contour>
        <pt x="298" y="391" on="1"/>
        <pt x="333" y="445" on="0"/>
        <pt x="416" y="640" on="0"/>
        <pt x="417" y="673" on="1"/>
        <pt x="561" y="658" on="0"/>
        <pt x="561" y="598" on="1"/>
        <pt x="561" y="589" on="0"/>
        <pt x="548" y="558" on="0"/>
        <pt x="519" y="512" on="0"/>
        <pt x="493" y="473" on="0"/>
        <pt x="446" y="409" on="0"/>
        <pt x="422" y="377" on="0"/>
        <pt x="370" y="309" on="0"/>
        <pt x="364" y="301" on="1"/>
        <pt x="364" y="203" on="1"/>
        <pt x="364" y="91" on="0"/>
        <pt x="388" y="11" on="1"/>
        <pt x="351" y="-3" on="0"/>
        <pt x="297" y="-3" on="1"/>
        <pt x="277" y="-3" on="0"/>
        <pt x="251" y="2" on="0"/>
        <pt x="222" y="17" on="0"/>
        <pt x="208" y="54" on="0"/>
        <pt x="208" y="83" on="1"/>
        <pt x="208" y="102" on="0"/>
        <pt x="210" y="207" on="0"/>
        <pt x="210" y="231" on="1"/>
        <pt x="210" y="294" on="1"/>
        <pt x="64" y="569" on="0"/>
        <pt x="-7" y="600" on="1"/>
        <pt x="44" y="669" on="0"/>
        <pt x="156" y="669" on="0"/>
        <pt x="192" y="606" on="1"/>
        <pt x="223" y="550" on="0"/>
      </contour>
      <contour>
        <pt x="408" y="713" on="1"/>
        <pt x="370" y="713" on="0"/>
        <pt x="317" y="766" on="0"/>
        <pt x="317" y="807" on="1"/>
        <pt x="317" y="846" on="0"/>
        <pt x="373" y="900" on="0"/>
        <pt x="447" y="900" on="0"/>
        <pt x="500" y="846" on="0"/>
        <pt x="500" y="807" on="1"/>
        <pt x="500" y="766" on="0"/>
        <pt x="444" y="713" on="0"/>
      </contour>
      <contour>
        <pt x="179" y="713" on="1"/>
        <pt x="141" y="713" on="0"/>
        <pt x="88" y="766" on="0"/>
        <pt x="88" y="807" on="1"/>
        <pt x="88" y="846" on="0"/>
        <pt x="144" y="900" on="0"/>
        <pt x="218" y="900" on="0"/>
        <pt x="271" y="846" on="0"/>
        <pt x="271" y="807" on="1"/>
        <pt x="271" y="766" on="0"/>
        <pt x="215" y="713" on="0"/>
      </contour>
    </TTGlyph>
    <TTGlyph name="Z" xMin="17" yMin="-6" xMax="554" yMax="667">
      <contour>
        <pt x="537" y="648" on="1"/>
        <pt x="554" y="631" on="0"/>
        <pt x="554" y="610" on="1"/>
        <pt x="554" y="587" on="0"/>
        <pt x="532" y="556" on="1"/>
        <pt x="396" y="372" on="0"/>
        <pt x="220" y="140" on="0"/>
        <pt x="200" y="116" on="1"/>
        <pt x="180" y="93" on="1"/>
        <pt x="225" y="93" on="0"/>
        <pt x="250" y="94" on="1"/>
        <pt x="417" y="100" on="0"/>
        <pt x="522" y="126" on="1"/>
        <pt x="541" y="83" on="0"/>
        <pt x="541" y="53" on="1"/>
        <pt x="541" y="7" on="0"/>
        <pt x="461" y="0" on="1"/>
        <pt x="395" y="-6" on="0"/>
        <pt x="289" y="-6" on="1"/>
        <pt x="134" y="-6" on="0"/>
        <pt x="35" y="6" on="1"/>
        <pt x="17" y="28" on="0"/>
        <pt x="17" y="52" on="1"/>
        <pt x="17" y="78" on="0"/>
        <pt x="43" y="116" on="1"/>
        <pt x="326" y="511" on="0"/>
        <pt x="376" y="567" on="1"/>
        <pt x="328" y="567" on="0"/>
        <pt x="297" y="566" on="1"/>
        <pt x="145" y="560" on="0"/>
        <pt x="58" y="539" on="1"/>
        <pt x="37" y="583" on="0"/>
        <pt x="37" y="611" on="1"/>
        <pt x="37" y="626" on="0"/>
        <pt x="55" y="654" on="0"/>
        <pt x="72" y="657" on="1"/>
        <pt x="116" y="667" on="0"/>
        <pt x="227" y="667" on="1"/>
        <pt x="416" y="667" on="0"/>
      </contour>
    </TTGlyph>
    <TTGlyph name="Zcaron" xMin="17" yMin="-6" xMax="554" yMax="916">
      <contour>
        <pt x="537" y="648" on="1"/>
        <pt x="554" y="631" on="0"/>
        <pt x="554" y="610" on="1"/>
        <pt x="554" y="587" on="0"/>
        <pt x="532" y="556" on="1"/>
        <pt x="396" y="372" on="0"/>
        <pt x="220" y="140" on="0"/>
        <pt x="200" y="116" on="1"/>
        <pt x="180" y="93" on="1"/>
        <pt x="225" y="93" on="0"/>
        <pt x="250" y="94" on="1"/>
        <pt x="417" y="100" on="0"/>
        <pt x="522" y="126" on="1"/>
        <pt x="541" y="83" on="0"/>
        <pt x="541" y="53" on="1"/>
        <pt x="541" y="7" on="0"/>
        <pt x="461" y="0" on="1"/>
        <pt x="395" y="-6" on="0"/>
        <pt x="289" y="-6" on="1"/>
        <pt x="134" y="-6" on="0"/>
        <pt x="35" y="6" on="1"/>
        <pt x="17" y="28" on="0"/>
        <pt x="17" y="52" on="1"/>
        <pt x="17" y="78" on="0"/>
        <pt x="43" y="116" on="1"/>
        <pt x="326" y="511" on="0"/>
        <pt x="376" y="567" on="1"/>
        <pt x="328" y="567" on="0"/>
        <pt x="297" y="566" on="1"/>
        <pt x="145" y="560" on="0"/>
        <pt x="58" y="539" on="1"/>
        <pt x="37" y="583" on="0"/>
        <pt x="37" y="611" on="1"/>
        <pt x="37" y="626" on="0"/>
        <pt x="55" y="654" on="0"/>
        <pt x="72" y="657" on="1"/>
        <pt x="116" y="667" on="0"/>
        <pt x="227" y="667" on="1"/>
        <pt x="416" y="667" on="0"/>
      </contour>
      <contour>
        <pt x="305" y="712" on="1"/>
        <pt x="251" y="741" on="0"/>
        <pt x="139" y="831" on="0"/>
        <pt x="139" y="854" on="1"/>
        <pt x="139" y="887" on="0"/>
        <pt x="196" y="916" on="1"/>
        <pt x="215" y="892" on="0"/>
        <pt x="270" y="846" on="0"/>
        <pt x="288" y="835" on="1"/>
        <pt x="307" y="824" on="1"/>
        <pt x="344" y="857" on="0"/>
        <pt x="377" y="883" on="0"/>
        <pt x="414" y="904" on="0"/>
        <pt x="427" y="904" on="1"/>
        <pt x="451" y="904" on="0"/>
        <pt x="486" y="866" on="1"/>
        <pt x="404" y="777" on="0"/>
      </contour>
    </TTGlyph>
    <TTGlyph name="a" xMin="29" yMin="-10" xMax="458" yMax="485">
      <contour>
        <pt x="128" y="314" on="1"/>
        <pt x="40" y="330" on="0"/>
        <pt x="40" y="389" on="1"/>
        <pt x="40" y="429" on="0"/>
        <pt x="155" y="485" on="0"/>
        <pt x="236" y="485" on="1"/>
        <pt x="341" y="485" on="0"/>
        <pt x="441" y="405" on="0"/>
        <pt x="441" y="312" on="1"/>
        <pt x="441" y="304" on="0"/>
        <pt x="439" y="202" on="0"/>
        <pt x="439" y="177" on="1"/>
        <pt x="439" y="62" on="0"/>
        <pt x="458" y="5" on="1"/>
        <pt x="414" y="-7" on="0"/>
        <pt x="380" y="-7" on="1"/>
        <pt x="308" y="-7" on="0"/>
        <pt x="296" y="51" on="1"/>
        <pt x="272" y="23" on="0"/>
        <pt x="197" y="-10" on="0"/>
        <pt x="159" y="-10" on="1"/>
        <pt x="104" y="-10" on="0"/>
        <pt x="29" y="61" on="0"/>
        <pt x="29" y="131" on="1"/>
        <pt x="29" y="187" on="0"/>
        <pt x="74" y="239" on="0"/>
        <pt x="113" y="252" on="1"/>
        <pt x="189" y="276" on="0"/>
        <pt x="293" y="282" on="1"/>
        <pt x="293" y="343" on="0"/>
        <pt x="266" y="392" on="0"/>
        <pt x="223" y="392" on="1"/>
        <pt x="198" y="392" on="0"/>
        <pt x="141" y="350" on="0"/>
      </contour>
      <contour>
        <pt x="292" y="210" on="1"/>
        <pt x="262" y="205" on="0"/>
        <pt x="230" y="197" on="0"/>
        <pt x="193" y="180" on="0"/>
        <pt x="178" y="153" on="0"/>
        <pt x="178" y="133" on="1"/>
        <pt x="178" y="108" on="0"/>
        <pt x="202" y="83" on="0"/>
        <pt x="220" y="83" on="1"/>
        <pt x="262" y="83" on="0"/>
        <pt x="290" y="108" on="1"/>
        <pt x="289" y="117" on="0"/>
        <pt x="289" y="138" on="1"/>
        <pt x="289" y="174" on="0"/>
      </contour>
    </TTGlyph>
    <TTGlyph name="a_alt" xMin="29" yMin="-10" xMax="513" yMax="485">
      <contour>
        <pt x="272" y="84" on="1"/>
        <pt x="317" y="84" on="0"/>
        <pt x="346" y="128" on="1"/>
        <pt x="345" y="140" on="0"/>
        <pt x="345" y="166" on="1"/>
        <pt x="345" y="198" on="0"/>
        <pt x="356" y="351" on="0"/>
        <pt x="356" y="362" on="1"/>
        <pt x="312" y="389" on="0"/>
        <pt x="275" y="389" on="1"/>
        <pt x="226" y="389" on="0"/>
        <pt x="179" y="307" on="0"/>
        <pt x="179" y="251" on="1"/>
        <pt x="179" y="179" on="0"/>
        <pt x="234" y="84" on="0"/>
      </contour>
      <contour>
        <pt x="223" y="-10" on="1"/>
        <pt x="143" y="-10" on="0"/>
        <pt x="29" y="128" on="0"/>
        <pt x="29" y="231" on="1"/>
        <pt x="29" y="347" on="0"/>
        <pt x="167" y="485" on="0"/>
        <pt x="280" y="485" on="1"/>
        <pt x="402" y="485" on="0"/>
        <pt x="506" y="407" on="1"/>
        <pt x="494" y="287" on="0"/>
        <pt x="494" y="177" on="1"/>
        <pt x="494" y="62" on="0"/>
        <pt x="513" y="5" on="1"/>
        <pt x="461" y="-7" on="0"/>
        <pt x="437" y="-7" on="1"/>
        <pt x="364" y="-7" on="0"/>
        <pt x="351" y="51" on="1"/>
        <pt x="301" y="-10" on="0"/>
      </contour>
    </TTGlyph>
    <TTGlyph name="aacute" xMin="29" yMin="-10" xMax="458" yMax="743">
      <contour>
        <pt x="128" y="314" on="1"/>
        <pt x="40" y="330" on="0"/>
        <pt x="40" y="389" on="1"/>
        <pt x="40" y="429" on="0"/>
        <pt x="155" y="485" on="0"/>
        <pt x="236" y="485" on="1"/>
        <pt x="341" y="485" on="0"/>
        <pt x="441" y="405" on="0"/>
        <pt x="441" y="312" on="1"/>
        <pt x="441" y="304" on="0"/>
        <pt x="439" y="202" on="0"/>
        <pt x="439" y="177" on="1"/>
        <pt x="439" y="62" on="0"/>
        <pt x="458" y="5" on="1"/>
        <pt x="414" y="-7" on="0"/>
        <pt x="380" y="-7" on="1"/>
        <pt x="308" y="-7" on="0"/>
        <pt x="296" y="51" on="1"/>
        <pt x="272" y="23" on="0"/>
        <pt x="197" y="-10" on="0"/>
        <pt x="159" y="-10" on="1"/>
        <pt x="104" y="-10" on="0"/>
        <pt x="29" y="61" on="0"/>
        <pt x="29" y="131" on="1"/>
        <pt x="29" y="187" on="0"/>
        <pt x="74" y="239" on="0"/>
        <pt x="113" y="252" on="1"/>
        <pt x="189" y="276" on="0"/>
        <pt x="293" y="282" on="1"/>
        <pt x="293" y="343" on="0"/>
        <pt x="266" y="392" on="0"/>
        <pt x="223" y="392" on="1"/>
        <pt x="198" y="392" on="0"/>
        <pt x="141" y="350" on="0"/>
      </contour>
      <contour>
        <pt x="292" y="210" on="1"/>
        <pt x="262" y="205" on="0"/>
        <pt x="230" y="197" on="0"/>
        <pt x="193" y="180" on="0"/>
        <pt x="178" y="153" on="0"/>
        <pt x="178" y="133" on="1"/>
        <pt x="178" y="108" on="0"/>
        <pt x="202" y="83" on="0"/>
        <pt x="220" y="83" on="1"/>
        <pt x="262" y="83" on="0"/>
        <pt x="290" y="108" on="1"/>
        <pt x="289" y="117" on="0"/>
        <pt x="289" y="138" on="1"/>
        <pt x="289" y="174" on="0"/>
      </contour>
      <contour>
        <pt x="412" y="629" on="1"/>
        <pt x="388" y="614" on="0"/>
        <pt x="214" y="541" on="0"/>
        <pt x="196" y="523" on="1"/>
        <pt x="161" y="551" on="0"/>
        <pt x="161" y="574" on="1"/>
        <pt x="161" y="593" on="0"/>
        <pt x="213" y="632" on="0"/>
        <pt x="281" y="662" on="0"/>
        <pt x="362" y="715" on="0"/>
        <pt x="383" y="743" on="1"/>
        <pt x="436" y="714" on="0"/>
        <pt x="436" y="674" on="1"/>
        <pt x="436" y="645" on="0"/>
      </contour>
    </TTGlyph>
    <TTGlyph name="aacute_alt" xMin="29" yMin="-10" xMax="513" yMax="743">
      <contour>
        <pt x="272" y="84" on="1"/>
        <pt x="317" y="84" on="0"/>
        <pt x="346" y="128" on="1"/>
        <pt x="345" y="140" on="0"/>
        <pt x="345" y="166" on="1"/>
        <pt x="345" y="198" on="0"/>
        <pt x="356" y="351" on="0"/>
        <pt x="356" y="362" on="1"/>
        <pt x="312" y="389" on="0"/>
        <pt x="275" y="389" on="1"/>
        <pt x="226" y="389" on="0"/>
        <pt x="179" y="307" on="0"/>
        <pt x="179" y="251" on="1"/>
        <pt x="179" y="179" on="0"/>
        <pt x="234" y="84" on="0"/>
      </contour>
      <contour>
        <pt x="223" y="-10" on="1"/>
        <pt x="143" y="-10" on="0"/>
        <pt x="29" y="128" on="0"/>
        <pt x="29" y="231" on="1"/>
        <pt x="29" y="347" on="0"/>
        <pt x="167" y="485" on="0"/>
        <pt x="280" y="485" on="1"/>
        <pt x="402" y="485" on="0"/>
        <pt x="506" y="407" on="1"/>
        <pt x="494" y="287" on="0"/>
        <pt x="494" y="177" on="1"/>
        <pt x="494" y="62" on="0"/>
        <pt x="513" y="5" on="1"/>
        <pt x="461" y="-7" on="0"/>
        <pt x="437" y="-7" on="1"/>
        <pt x="364" y="-7" on="0"/>
        <pt x="351" y="51" on="1"/>
        <pt x="301" y="-10" on="0"/>
      </contour>
      <contour>
        <pt x="425" y="629" on="1"/>
        <pt x="401" y="614" on="0"/>
        <pt x="227" y="541" on="0"/>
        <pt x="209" y="523" on="1"/>
        <pt x="174" y="551" on="0"/>
        <pt x="174" y="574" on="1"/>
        <pt x="174" y="593" on="0"/>
        <pt x="226" y="632" on="0"/>
        <pt x="294" y="662" on="0"/>
        <pt x="375" y="715" on="0"/>
        <pt x="396" y="743" on="1"/>
        <pt x="449" y="714" on="0"/>
        <pt x="449" y="674" on="1"/>
        <pt x="449" y="645" on="0"/>
      </contour>
    </TTGlyph>
    <TTGlyph name="acircumflex" xMin="29" yMin="-10" xMax="458" yMax="719">
      <contour>
        <pt x="128" y="314" on="1"/>
        <pt x="40" y="330" on="0"/>
        <pt x="40" y="389" on="1"/>
        <pt x="40" y="429" on="0"/>
        <pt x="155" y="485" on="0"/>
        <pt x="236" y="485" on="1"/>
        <pt x="341" y="485" on="0"/>
        <pt x="441" y="405" on="0"/>
        <pt x="441" y="312" on="1"/>
        <pt x="441" y="304" on="0"/>
        <pt x="439" y="202" on="0"/>
        <pt x="439" y="177" on="1"/>
        <pt x="439" y="62" on="0"/>
        <pt x="458" y="5" on="1"/>
        <pt x="414" y="-7" on="0"/>
        <pt x="380" y="-7" on="1"/>
        <pt x="308" y="-7" on="0"/>
        <pt x="296" y="51" on="1"/>
        <pt x="272" y="23" on="0"/>
        <pt x="197" y="-10" on="0"/>
        <pt x="159" y="-10" on="1"/>
        <pt x="104" y="-10" on="0"/>
        <pt x="29" y="61" on="0"/>
        <pt x="29" y="131" on="1"/>
        <pt x="29" y="187" on="0"/>
        <pt x="74" y="239" on="0"/>
        <pt x="113" y="252" on="1"/>
        <pt x="189" y="276" on="0"/>
        <pt x="293" y="282" on="1"/>
        <pt x="293" y="343" on="0"/>
        <pt x="266" y="392" on="0"/>
        <pt x="223" y="392" on="1"/>
        <pt x="198" y="392" on="0"/>
        <pt x="141" y="350" on="0"/>
      </contour>
      <contour>
        <pt x="292" y="210" on="1"/>
        <pt x="262" y="205" on="0"/>
        <pt x="230" y="197" on="0"/>
        <pt x="193" y="180" on="0"/>
        <pt x="178" y="153" on="0"/>
        <pt x="178" y="133" on="1"/>
        <pt x="178" y="108" on="0"/>
        <pt x="202" y="83" on="0"/>
        <pt x="220" y="83" on="1"/>
        <pt x="262" y="83" on="0"/>
        <pt x="290" y="108" on="1"/>
        <pt x="289" y="117" on="0"/>
        <pt x="289" y="138" on="1"/>
        <pt x="289" y="174" on="0"/>
      </contour>
      <contour>
        <pt x="243" y="719" on="1"/>
        <pt x="407" y="629" on="0"/>
        <pt x="407" y="576" on="1"/>
        <pt x="407" y="559" on="0"/>
        <pt x="372" y="525" on="0"/>
        <pt x="345" y="519" on="1"/>
        <pt x="321" y="547" on="0"/>
        <pt x="269" y="592" on="0"/>
        <pt x="255" y="600" on="1"/>
        <pt x="241" y="608" on="1"/>
        <pt x="142" y="527" on="0"/>
        <pt x="118" y="527" on="1"/>
        <pt x="101" y="527" on="0"/>
        <pt x="78" y="542" on="0"/>
        <pt x="62" y="565" on="1"/>
        <pt x="144" y="654" on="0"/>
      </contour>
    </TTGlyph>
    <TTGlyph name="acircumflex_alt" xMin="29" yMin="-10" xMax="513" yMax="719">
      <contour>
        <pt x="272" y="84" on="1"/>
        <pt x="317" y="84" on="0"/>
        <pt x="346" y="128" on="1"/>
        <pt x="345" y="140" on="0"/>
        <pt x="345" y="166" on="1"/>
        <pt x="345" y="198" on="0"/>
        <pt x="356" y="351" on="0"/>
        <pt x="356" y="362" on="1"/>
        <pt x="312" y="389" on="0"/>
        <pt x="275" y="389" on="1"/>
        <pt x="226" y="389" on="0"/>
        <pt x="179" y="307" on="0"/>
        <pt x="179" y="251" on="1"/>
        <pt x="179" y="179" on="0"/>
        <pt x="234" y="84" on="0"/>
      </contour>
      <contour>
        <pt x="223" y="-10" on="1"/>
        <pt x="143" y="-10" on="0"/>
        <pt x="29" y="128" on="0"/>
        <pt x="29" y="231" on="1"/>
        <pt x="29" y="347" on="0"/>
        <pt x="167" y="485" on="0"/>
        <pt x="280" y="485" on="1"/>
        <pt x="402" y="485" on="0"/>
        <pt x="506" y="407" on="1"/>
        <pt x="494" y="287" on="0"/>
        <pt x="494" y="177" on="1"/>
        <pt x="494" y="62" on="0"/>
        <pt x="513" y="5" on="1"/>
        <pt x="461" y="-7" on="0"/>
        <pt x="437" y="-7" on="1"/>
        <pt x="364" y="-7" on="0"/>
        <pt x="351" y="51" on="1"/>
        <pt x="301" y="-10" on="0"/>
      </contour>
      <contour>
        <pt x="274" y="719" on="1"/>
        <pt x="438" y="629" on="0"/>
        <pt x="438" y="576" on="1"/>
        <pt x="438" y="559" on="0"/>
        <pt x="403" y="525" on="0"/>
        <pt x="376" y="519" on="1"/>
        <pt x="352" y="547" on="0"/>
        <pt x="300" y="592" on="0"/>
        <pt x="286" y="600" on="1"/>
        <pt x="272" y="608" on="1"/>
        <pt x="173" y="527" on="0"/>
        <pt x="149" y="527" on="1"/>
        <pt x="132" y="527" on="0"/>
        <pt x="109" y="542" on="0"/>
        <pt x="93" y="565" on="1"/>
        <pt x="175" y="654" on="0"/>
      </contour>
    </TTGlyph>
    <TTGlyph name="acute" xMin="39" yMin="523" xMax="314" yMax="743">
      <contour>
        <pt x="290" y="629" on="1"/>
        <pt x="266" y="614" on="0"/>
        <pt x="92" y="541" on="0"/>
        <pt x="74" y="523" on="1"/>
        <pt x="39" y="551" on="0"/>
        <pt x="39" y="574" on="1"/>
        <pt x="39" y="593" on="0"/>
        <pt x="91" y="632" on="0"/>
        <pt x="159" y="662" on="0"/>
        <pt x="240" y="715" on="0"/>
        <pt x="261" y="743" on="1"/>
        <pt x="314" y="714" on="0"/>
        <pt x="314" y="674" on="1"/>
        <pt x="314" y="645" on="0"/>
      </contour>
    </TTGlyph>
    <TTGlyph name="adieresis" xMin="29" yMin="-10" xMax="458" yMax="707">
      <contour>
        <pt x="128" y="314" on="1"/>
        <pt x="40" y="330" on="0"/>
        <pt x="40" y="389" on="1"/>
        <pt x="40" y="429" on="0"/>
        <pt x="155" y="485" on="0"/>
        <pt x="236" y="485" on="1"/>
        <pt x="341" y="485" on="0"/>
        <pt x="441" y="405" on="0"/>
        <pt x="441" y="312" on="1"/>
        <pt x="441" y="304" on="0"/>
        <pt x="439" y="202" on="0"/>
        <pt x="439" y="177" on="1"/>
        <pt x="439" y="62" on="0"/>
        <pt x="458" y="5" on="1"/>
        <pt x="414" y="-7" on="0"/>
        <pt x="380" y="-7" on="1"/>
        <pt x="308" y="-7" on="0"/>
        <pt x="296" y="51" on="1"/>
        <pt x="272" y="23" on="0"/>
        <pt x="197" y="-10" on="0"/>
        <pt x="159" y="-10" on="1"/>
        <pt x="104" y="-10" on="0"/>
        <pt x="29" y="61" on="0"/>
        <pt x="29" y="131" on="1"/>
        <pt x="29" y="187" on="0"/>
        <pt x="74" y="239" on="0"/>
        <pt x="113" y="252" on="1"/>
        <pt x="189" y="276" on="0"/>
        <pt x="293" y="282" on="1"/>
        <pt x="293" y="343" on="0"/>
        <pt x="266" y="392" on="0"/>
        <pt x="223" y="392" on="1"/>
        <pt x="198" y="392" on="0"/>
        <pt x="141" y="350" on="0"/>
      </contour>
      <contour>
        <pt x="292" y="210" on="1"/>
        <pt x="262" y="205" on="0"/>
        <pt x="230" y="197" on="0"/>
        <pt x="193" y="180" on="0"/>
        <pt x="178" y="153" on="0"/>
        <pt x="178" y="133" on="1"/>
        <pt x="178" y="108" on="0"/>
        <pt x="202" y="83" on="0"/>
        <pt x="220" y="83" on="1"/>
        <pt x="262" y="83" on="0"/>
        <pt x="290" y="108" on="1"/>
        <pt x="289" y="117" on="0"/>
        <pt x="289" y="138" on="1"/>
        <pt x="289" y="174" on="0"/>
      </contour>
      <contour>
        <pt x="352" y="520" on="1"/>
        <pt x="314" y="520" on="0"/>
        <pt x="261" y="573" on="0"/>
        <pt x="261" y="614" on="1"/>
        <pt x="261" y="653" on="0"/>
        <pt x="317" y="707" on="0"/>
        <pt x="391" y="707" on="0"/>
        <pt x="444" y="653" on="0"/>
        <pt x="444" y="614" on="1"/>
        <pt x="444" y="574" on="0"/>
        <pt x="388" y="520" on="0"/>
      </contour>
      <contour>
        <pt x="123" y="520" on="1"/>
        <pt x="85" y="520" on="0"/>
        <pt x="32" y="573" on="0"/>
        <pt x="32" y="614" on="1"/>
        <pt x="32" y="653" on="0"/>
        <pt x="88" y="707" on="0"/>
        <pt x="162" y="707" on="0"/>
        <pt x="215" y="653" on="0"/>
        <pt x="215" y="614" on="1"/>
        <pt x="215" y="574" on="0"/>
        <pt x="159" y="520" on="0"/>
      </contour>
    </TTGlyph>
    <TTGlyph name="adieresis_alt" xMin="45" yMin="-10" xMax="529" yMax="707">
      <contour>
        <pt x="288" y="84" on="1"/>
        <pt x="333" y="84" on="0"/>
        <pt x="362" y="128" on="1"/>
        <pt x="361" y="140" on="0"/>
        <pt x="361" y="166" on="1"/>
        <pt x="361" y="198" on="0"/>
        <pt x="372" y="351" on="0"/>
        <pt x="372" y="362" on="1"/>
        <pt x="328" y="389" on="0"/>
        <pt x="291" y="389" on="1"/>
        <pt x="242" y="389" on="0"/>
        <pt x="195" y="307" on="0"/>
        <pt x="195" y="251" on="1"/>
        <pt x="195" y="179" on="0"/>
        <pt x="250" y="84" on="0"/>
      </contour>
      <contour>
        <pt x="239" y="-10" on="1"/>
        <pt x="159" y="-10" on="0"/>
        <pt x="45" y="128" on="0"/>
        <pt x="45" y="231" on="1"/>
        <pt x="45" y="347" on="0"/>
        <pt x="183" y="485" on="0"/>
        <pt x="296" y="485" on="1"/>
        <pt x="418" y="485" on="0"/>
        <pt x="522" y="407" on="1"/>
        <pt x="510" y="287" on="0"/>
        <pt x="510" y="177" on="1"/>
        <pt x="510" y="62" on="0"/>
        <pt x="529" y="5" on="1"/>
        <pt x="477" y="-7" on="0"/>
        <pt x="453" y="-7" on="1"/>
        <pt x="380" y="-7" on="0"/>
        <pt x="367" y="51" on="1"/>
        <pt x="317" y="-10" on="0"/>
      </contour>
      <contour>
        <pt x="419" y="520" on="1"/>
        <pt x="381" y="520" on="0"/>
        <pt x="328" y="573" on="0"/>
        <pt x="328" y="614" on="1"/>
        <pt x="328" y="653" on="0"/>
        <pt x="384" y="707" on="0"/>
        <pt x="458" y="707" on="0"/>
        <pt x="511" y="653" on="0"/>
        <pt x="511" y="614" on="1"/>
        <pt x="511" y="574" on="0"/>
        <pt x="455" y="520" on="0"/>
      </contour>
      <contour>
        <pt x="190" y="520" on="1"/>
        <pt x="152" y="520" on="0"/>
        <pt x="99" y="573" on="0"/>
        <pt x="99" y="614" on="1"/>
        <pt x="99" y="653" on="0"/>
        <pt x="155" y="707" on="0"/>
        <pt x="229" y="707" on="0"/>
        <pt x="282" y="653" on="0"/>
        <pt x="282" y="614" on="1"/>
        <pt x="282" y="574" on="0"/>
        <pt x="226" y="520" on="0"/>
      </contour>
    </TTGlyph>
    <TTGlyph name="ae" xMin="29" yMin="-10" xMax="723" yMax="485">
      <contour>
        <pt x="533" y="390" on="1"/>
        <pt x="497" y="390" on="0"/>
        <pt x="443" y="325" on="0"/>
        <pt x="442" y="262" on="1"/>
        <pt x="470" y="264" on="0"/>
        <pt x="493" y="267" on="0"/>
        <pt x="536" y="277" on="0"/>
        <pt x="555" y="294" on="0"/>
        <pt x="571" y="325" on="0"/>
        <pt x="571" y="348" on="1"/>
        <pt x="571" y="364" on="0"/>
        <pt x="549" y="390" on="0"/>
      </contour>
      <contour>
        <pt x="220" y="83" on="1"/>
        <pt x="264" y="83" on="0"/>
        <pt x="310" y="119" on="1"/>
        <pt x="293" y="159" on="0"/>
        <pt x="290" y="209" on="1"/>
        <pt x="251" y="202" on="0"/>
        <pt x="211" y="191" on="0"/>
        <pt x="178" y="159" on="0"/>
        <pt x="178" y="133" on="1"/>
        <pt x="178" y="108" on="0"/>
        <pt x="202" y="83" on="0"/>
      </contour>
      <contour>
        <pt x="541" y="485" on="1"/>
        <pt x="615" y="485" on="0"/>
        <pt x="723" y="411" on="0"/>
        <pt x="723" y="338" on="1"/>
        <pt x="723" y="190" on="0"/>
        <pt x="511" y="190" on="1"/>
        <pt x="492" y="190" on="0"/>
        <pt x="442" y="192" on="1"/>
        <pt x="442" y="135" on="0"/>
        <pt x="499" y="83" on="0"/>
        <pt x="541" y="83" on="1"/>
        <pt x="615" y="83" on="0"/>
        <pt x="656" y="131" on="1"/>
        <pt x="679" y="120" on="0"/>
        <pt x="708" y="83" on="0"/>
        <pt x="708" y="64" on="1"/>
        <pt x="708" y="34" on="0"/>
        <pt x="637" y="-2" on="0"/>
        <pt x="570" y="-10" on="0"/>
        <pt x="539" y="-10" on="1"/>
        <pt x="402" y="-10" on="0"/>
        <pt x="335" y="77" on="1"/>
        <pt x="250" y="-10" on="0"/>
        <pt x="159" y="-10" on="1"/>
        <pt x="104" y="-10" on="0"/>
        <pt x="29" y="61" on="0"/>
        <pt x="29" y="131" on="1"/>
        <pt x="29" y="187" on="0"/>
        <pt x="74" y="239" on="0"/>
        <pt x="113" y="252" on="1"/>
        <pt x="189" y="276" on="0"/>
        <pt x="293" y="282" on="1"/>
        <pt x="292" y="344" on="0"/>
        <pt x="266" y="392" on="0"/>
        <pt x="223" y="392" on="1"/>
        <pt x="198" y="392" on="0"/>
        <pt x="141" y="350" on="0"/>
        <pt x="128" y="314" on="1"/>
        <pt x="40" y="330" on="0"/>
        <pt x="40" y="389" on="1"/>
        <pt x="40" y="429" on="0"/>
        <pt x="155" y="485" on="0"/>
        <pt x="236" y="485" on="1"/>
        <pt x="348" y="485" on="0"/>
        <pt x="393" y="433" on="1"/>
        <pt x="453" y="485" on="0"/>
      </contour>
    </TTGlyph>
    <TTGlyph name="agrave" xMin="29" yMin="-10" xMax="458" yMax="755">
      <contour>
        <pt x="128" y="314" on="1"/>
        <pt x="40" y="330" on="0"/>
        <pt x="40" y="389" on="1"/>
        <pt x="40" y="429" on="0"/>
        <pt x="155" y="485" on="0"/>
        <pt x="236" y="485" on="1"/>
        <pt x="341" y="485" on="0"/>
        <pt x="441" y="405" on="0"/>
        <pt x="441" y="312" on="1"/>
        <pt x="441" y="304" on="0"/>
        <pt x="439" y="202" on="0"/>
        <pt x="439" y="177" on="1"/>
        <pt x="439" y="62" on="0"/>
        <pt x="458" y="5" on="1"/>
        <pt x="414" y="-7" on="0"/>
        <pt x="380" y="-7" on="1"/>
        <pt x="308" y="-7" on="0"/>
        <pt x="296" y="51" on="1"/>
        <pt x="272" y="23" on="0"/>
        <pt x="197" y="-10" on="0"/>
        <pt x="159" y="-10" on="1"/>
        <pt x="104" y="-10" on="0"/>
        <pt x="29" y="61" on="0"/>
        <pt x="29" y="131" on="1"/>
        <pt x="29" y="187" on="0"/>
        <pt x="74" y="239" on="0"/>
        <pt x="113" y="252" on="1"/>
        <pt x="189" y="276" on="0"/>
        <pt x="293" y="282" on="1"/>
        <pt x="293" y="343" on="0"/>
        <pt x="266" y="392" on="0"/>
        <pt x="223" y="392" on="1"/>
        <pt x="198" y="392" on="0"/>
        <pt x="141" y="350" on="0"/>
      </contour>
      <contour>
        <pt x="292" y="210" on="1"/>
        <pt x="262" y="205" on="0"/>
        <pt x="230" y="197" on="0"/>
        <pt x="193" y="180" on="0"/>
        <pt x="178" y="153" on="0"/>
        <pt x="178" y="133" on="1"/>
        <pt x="178" y="108" on="0"/>
        <pt x="202" y="83" on="0"/>
        <pt x="220" y="83" on="1"/>
        <pt x="262" y="83" on="0"/>
        <pt x="290" y="108" on="1"/>
        <pt x="289" y="117" on="0"/>
        <pt x="289" y="138" on="1"/>
        <pt x="289" y="174" on="0"/>
      </contour>
      <contour>
        <pt x="113" y="755" on="1"/>
        <pt x="133" y="729" on="0"/>
        <pt x="205" y="675" on="0"/>
        <pt x="263" y="640" on="0"/>
        <pt x="308" y="597" on="0"/>
        <pt x="308" y="578" on="1"/>
        <pt x="308" y="551" on="0"/>
        <pt x="269" y="523" on="1"/>
        <pt x="232" y="550" on="0"/>
        <pt x="109" y="613" on="0"/>
        <pt x="46" y="658" on="0"/>
        <pt x="46" y="684" on="1"/>
        <pt x="46" y="723" on="0"/>
      </contour>
    </TTGlyph>
    <TTGlyph name="agrave_alt" xMin="29" yMin="-10" xMax="513" yMax="755">
      <contour>
        <pt x="272" y="84" on="1"/>
        <pt x="317" y="84" on="0"/>
        <pt x="346" y="128" on="1"/>
        <pt x="345" y="140" on="0"/>
        <pt x="345" y="166" on="1"/>
        <pt x="345" y="198" on="0"/>
        <pt x="356" y="351" on="0"/>
        <pt x="356" y="362" on="1"/>
        <pt x="312" y="389" on="0"/>
        <pt x="275" y="389" on="1"/>
        <pt x="226" y="389" on="0"/>
        <pt x="179" y="307" on="0"/>
        <pt x="179" y="251" on="1"/>
        <pt x="179" y="179" on="0"/>
        <pt x="234" y="84" on="0"/>
      </contour>
      <contour>
        <pt x="223" y="-10" on="1"/>
        <pt x="143" y="-10" on="0"/>
        <pt x="29" y="128" on="0"/>
        <pt x="29" y="231" on="1"/>
        <pt x="29" y="347" on="0"/>
        <pt x="167" y="485" on="0"/>
        <pt x="280" y="485" on="1"/>
        <pt x="402" y="485" on="0"/>
        <pt x="506" y="407" on="1"/>
        <pt x="494" y="287" on="0"/>
        <pt x="494" y="177" on="1"/>
        <pt x="494" y="62" on="0"/>
        <pt x="513" y="5" on="1"/>
        <pt x="461" y="-7" on="0"/>
        <pt x="437" y="-7" on="1"/>
        <pt x="364" y="-7" on="0"/>
        <pt x="351" y="51" on="1"/>
        <pt x="301" y="-10" on="0"/>
      </contour>
      <contour>
        <pt x="176" y="755" on="1"/>
        <pt x="196" y="729" on="0"/>
        <pt x="268" y="675" on="0"/>
        <pt x="326" y="640" on="0"/>
        <pt x="371" y="597" on="0"/>
        <pt x="371" y="578" on="1"/>
        <pt x="371" y="551" on="0"/>
        <pt x="332" y="523" on="1"/>
        <pt x="295" y="550" on="0"/>
        <pt x="172" y="613" on="0"/>
        <pt x="109" y="658" on="0"/>
        <pt x="109" y="684" on="1"/>
        <pt x="109" y="723" on="0"/>
      </contour>
    </TTGlyph>
    <TTGlyph name="ampersand" xMin="32" yMin="-10" xMax="654" yMax="673">
      <contour>
        <pt x="201" y="245" on="1"/>
        <pt x="182" y="216" on="0"/>
        <pt x="182" y="183" on="1"/>
        <pt x="182" y="135" on="0"/>
        <pt x="252" y="83" on="0"/>
        <pt x="301" y="83" on="1"/>
        <pt x="327" y="83" on="0"/>
        <pt x="349" y="90" on="1"/>
        <pt x="271" y="154" on="0"/>
      </contour>
      <contour>
        <pt x="273" y="581" on="1"/>
        <pt x="244" y="581" on="0"/>
        <pt x="210" y="540" on="0"/>
        <pt x="210" y="506" on="1"/>
        <pt x="210" y="458" on="0"/>
        <pt x="244" y="403" on="1"/>
        <pt x="320" y="458" on="0"/>
        <pt x="320" y="521" on="1"/>
        <pt x="320" y="547" on="0"/>
        <pt x="292" y="581" on="0"/>
      </contour>
      <contour>
        <pt x="32" y="171" on="1"/>
        <pt x="32" y="269" on="0"/>
        <pt x="136" y="342" on="1"/>
        <pt x="72" y="434" on="0"/>
        <pt x="72" y="515" on="1"/>
        <pt x="72" y="587" on="0"/>
        <pt x="182" y="673" on="0"/>
        <pt x="286" y="673" on="1"/>
        <pt x="371" y="673" on="0"/>
        <pt x="468" y="598" on="0"/>
        <pt x="468" y="546" on="1"/>
        <pt x="468" y="514" on="0"/>
        <pt x="444" y="456" on="0"/>
        <pt x="413" y="417" on="0"/>
        <pt x="357" y="372" on="0"/>
        <pt x="323" y="351" on="0"/>
        <pt x="293" y="333" on="1"/>
        <pt x="356" y="253" on="0"/>
        <pt x="424" y="197" on="1"/>
        <pt x="429" y="227" on="0"/>
        <pt x="429" y="245" on="1"/>
        <pt x="429" y="275" on="0"/>
        <pt x="415" y="319" on="1"/>
        <pt x="447" y="338" on="0"/>
        <pt x="482" y="338" on="1"/>
        <pt x="574" y="338" on="0"/>
        <pt x="574" y="271" on="1"/>
        <pt x="574" y="230" on="0"/>
        <pt x="554" y="171" on="0"/>
        <pt x="528" y="127" on="1"/>
        <pt x="590" y="96" on="0"/>
        <pt x="648" y="96" on="1"/>
        <pt x="654" y="70" on="0"/>
        <pt x="654" y="56" on="1"/>
        <pt x="654" y="-10" on="0"/>
        <pt x="584" y="-10" on="1"/>
        <pt x="512" y="-10" on="0"/>
        <pt x="430" y="35" on="1"/>
        <pt x="365" y="-9" on="0"/>
        <pt x="273" y="-9" on="1"/>
        <pt x="176" y="-9" on="0"/>
        <pt x="32" y="88" on="0"/>
      </contour>
    </TTGlyph>
    <TTGlyph name="ampersandsmall" xMin="29" yMin="-10" xMax="458" yMax="738">
      <contour>
        <pt x="343" y="569" on="1"/>
        <pt x="309" y="569" on="0"/>
        <pt x="261" y="617" on="0"/>
        <pt x="261" y="654" on="1"/>
        <pt x="261" y="689" on="0"/>
        <pt x="311" y="738" on="0"/>
        <pt x="345" y="738" on="1"/>
        <pt x="378" y="738" on="0"/>
        <pt x="426" y="690" on="0"/>
        <pt x="426" y="618" on="0"/>
        <pt x="375" y="569" on="0"/>
      </contour>
      <contour>
        <pt x="133" y="569" on="1"/>
        <pt x="99" y="569" on="0"/>
        <pt x="51" y="617" on="0"/>
        <pt x="51" y="654" on="1"/>
        <pt x="51" y="689" on="0"/>
        <pt x="101" y="738" on="0"/>
        <pt x="135" y="738" on="1"/>
        <pt x="168" y="738" on="0"/>
        <pt x="216" y="690" on="0"/>
        <pt x="216" y="618" on="0"/>
        <pt x="165" y="569" on="0"/>
      </contour>
      <contour>
        <pt x="128" y="314" on="1"/>
        <pt x="40" y="330" on="0"/>
        <pt x="40" y="389" on="1"/>
        <pt x="40" y="429" on="0"/>
        <pt x="155" y="485" on="0"/>
        <pt x="236" y="485" on="1"/>
        <pt x="341" y="485" on="0"/>
        <pt x="441" y="405" on="0"/>
        <pt x="441" y="312" on="1"/>
        <pt x="441" y="304" on="0"/>
        <pt x="439" y="202" on="0"/>
        <pt x="439" y="177" on="1"/>
        <pt x="439" y="62" on="0"/>
        <pt x="458" y="5" on="1"/>
        <pt x="414" y="-7" on="0"/>
        <pt x="380" y="-7" on="1"/>
        <pt x="308" y="-7" on="0"/>
        <pt x="296" y="51" on="1"/>
        <pt x="272" y="23" on="0"/>
        <pt x="197" y="-10" on="0"/>
        <pt x="159" y="-10" on="1"/>
        <pt x="104" y="-10" on="0"/>
        <pt x="29" y="61" on="0"/>
        <pt x="29" y="131" on="1"/>
        <pt x="29" y="187" on="0"/>
        <pt x="74" y="239" on="0"/>
        <pt x="113" y="252" on="1"/>
        <pt x="189" y="276" on="0"/>
        <pt x="293" y="282" on="1"/>
        <pt x="293" y="343" on="0"/>
        <pt x="266" y="392" on="0"/>
        <pt x="223" y="392" on="1"/>
        <pt x="198" y="392" on="0"/>
        <pt x="141" y="350" on="0"/>
      </contour>
      <contour>
        <pt x="292" y="210" on="1"/>
        <pt x="262" y="205" on="0"/>
        <pt x="230" y="197" on="0"/>
        <pt x="193" y="180" on="0"/>
        <pt x="178" y="153" on="0"/>
        <pt x="178" y="133" on="1"/>
        <pt x="178" y="108" on="0"/>
        <pt x="202" y="83" on="0"/>
        <pt x="220" y="83" on="1"/>
        <pt x="262" y="83" on="0"/>
        <pt x="290" y="108" on="1"/>
        <pt x="289" y="117" on="0"/>
        <pt x="289" y="138" on="1"/>
        <pt x="289" y="174" on="0"/>
      </contour>
    </TTGlyph>
    <TTGlyph name="apple" xMin="80" yMin="-1" xMax="736" yMax="688">
      <contour>
        <pt x="713" y="162" on="1"/>
        <pt x="721" y="132" on="0"/>
        <pt x="724" y="117" on="1"/>
        <pt x="736" y="62" on="0"/>
        <pt x="736" y="6" on="1"/>
        <pt x="736" y="-1" on="0"/>
        <pt x="729" y="-1" on="1"/>
        <pt x="703" y="-1" on="1"/>
        <pt x="697" y="-1" on="0"/>
        <pt x="697" y="5" on="1"/>
        <pt x="697" y="12" on="0"/>
        <pt x="704" y="12" on="1"/>
        <pt x="723" y="12" on="1"/>
        <pt x="723" y="59" on="0"/>
        <pt x="705" y="137" on="1"/>
        <pt x="700" y="159" on="1"/>
        <pt x="696" y="179" on="0"/>
        <pt x="660" y="211" on="0"/>
        <pt x="631" y="214" on="1"/>
        <pt x="588" y="218" on="0"/>
        <pt x="533" y="236" on="1"/>
        <pt x="519" y="241" on="0"/>
        <pt x="518" y="243" on="1"/>
        <pt x="517" y="249" on="0"/>
        <pt x="514" y="289" on="0"/>
        <pt x="513" y="296" on="1"/>
        <pt x="486" y="296" on="0"/>
        <pt x="460" y="309" on="1"/>
        <pt x="457" y="310" on="0"/>
        <pt x="457" y="322" on="0"/>
        <pt x="464" y="322" on="1"/>
        <pt x="465" y="322" on="0"/>
        <pt x="498" y="309" on="0"/>
        <pt x="522" y="309" on="1"/>
        <pt x="542" y="309" on="0"/>
        <pt x="549" y="316" on="1"/>
        <pt x="553" y="321" on="0"/>
        <pt x="570" y="430" on="0"/>
        <pt x="577" y="445" on="1"/>
        <pt x="581" y="458" on="0"/>
        <pt x="581" y="510" on="1"/>
        <pt x="581" y="556" on="0"/>
        <pt x="577" y="576" on="1"/>
        <pt x="559" y="673" on="0"/>
        <pt x="447" y="673" on="1"/>
        <pt x="363" y="673" on="0"/>
        <pt x="269" y="588" on="0"/>
        <pt x="269" y="512" on="1"/>
        <pt x="269" y="447" on="0"/>
        <pt x="314" y="358" on="0"/>
        <pt x="353" y="348" on="1"/>
        <pt x="359" y="346" on="0"/>
        <pt x="359" y="334" on="0"/>
        <pt x="353" y="241" on="0"/>
        <pt x="352" y="239" on="1"/>
        <pt x="350" y="237" on="0"/>
        <pt x="348" y="237" on="1"/>
        <pt x="322" y="237" on="0"/>
        <pt x="261" y="214" on="1"/>
        <pt x="208" y="193" on="0"/>
        <pt x="186" y="190" on="1"/>
        <pt x="130" y="182" on="0"/>
        <pt x="118" y="136" on="1"/>
        <pt x="111" y="107" on="1"/>
        <pt x="97" y="47" on="0"/>
        <pt x="94" y="12" on="1"/>
        <pt x="236" y="12" on="1"/>
        <pt x="243" y="12" on="0"/>
        <pt x="243" y="6" on="1"/>
        <pt x="243" y="-1" on="0"/>
        <pt x="236" y="-1" on="1"/>
        <pt x="87" y="-1" on="1"/>
        <pt x="80" y="-1" on="0"/>
        <pt x="80" y="6" on="1"/>
        <pt x="83" y="48" on="0"/>
        <pt x="98" y="108" on="1"/>
        <pt x="106" y="138" on="1"/>
        <pt x="110" y="162" on="0"/>
        <pt x="153" y="201" on="0"/>
        <pt x="185" y="205" on="1"/>
        <pt x="207" y="208" on="0"/>
        <pt x="266" y="230" on="1"/>
        <pt x="318" y="249" on="0"/>
        <pt x="341" y="250" on="1"/>
        <pt x="345" y="306" on="0"/>
        <pt x="346" y="336" on="1"/>
        <pt x="303" y="350" on="0"/>
        <pt x="256" y="443" on="0"/>
        <pt x="256" y="512" on="1"/>
        <pt x="256" y="595" on="0"/>
        <pt x="356" y="688" on="0"/>
        <pt x="447" y="688" on="1"/>
        <pt x="568" y="688" on="0"/>
        <pt x="592" y="579" on="1"/>
        <pt x="595" y="561" on="0"/>
        <pt x="595" y="527" on="1"/>
        <pt x="595" y="467" on="0"/>
        <pt x="590" y="440" on="1"/>
        <pt x="577" y="408" on="0"/>
        <pt x="572" y="358" on="1"/>
        <pt x="567" y="319" on="0"/>
        <pt x="556" y="306" on="1"/>
        <pt x="548" y="297" on="0"/>
        <pt x="526" y="295" on="1"/>
        <pt x="527" y="286" on="0"/>
        <pt x="530" y="253" on="0"/>
        <pt x="530" y="250" on="1"/>
        <pt x="591" y="232" on="0"/>
        <pt x="634" y="227" on="1"/>
        <pt x="665" y="224" on="0"/>
        <pt x="707" y="185" on="0"/>
      </contour>
      <contour>
        <pt x="507" y="563" on="1"/>
        <pt x="512" y="558" on="1"/>
        <pt x="494" y="530" on="1"/>
        <pt x="481" y="541" on="1"/>
      </contour>
      <contour>
        <pt x="515" y="558" on="1"/>
        <pt x="520" y="563" on="1"/>
        <pt x="546" y="541" on="1"/>
        <pt x="533" y="530" on="1"/>
      </contour>
      <contour>
        <pt x="517" y="574" on="1"/>
        <pt x="510" y="574" on="1"/>
        <pt x="505" y="605" on="1"/>
        <pt x="522" y="605" on="1"/>
      </contour>
      <contour>
        <pt x="509" y="572" on="1"/>
        <pt x="506" y="565" on="1"/>
        <pt x="475" y="572" on="1"/>
        <pt x="481" y="587" on="1"/>
      </contour>
      <contour>
        <pt x="520" y="565" on="1"/>
        <pt x="518" y="572" on="1"/>
        <pt x="546" y="587" on="1"/>
        <pt x="552" y="572" on="1"/>
      </contour>
    </TTGlyph>
    <TTGlyph name="approxequal" xMin="3" yMin="14" xMax="571" yMax="444">
      <contour>
        <pt x="571" y="137" on="1"/>
        <pt x="571" y="106" on="0"/>
        <pt x="487" y="14" on="0"/>
        <pt x="435" y="14" on="1"/>
        <pt x="397" y="14" on="0"/>
        <pt x="313" y="48" on="0"/>
        <pt x="251" y="90" on="0"/>
        <pt x="179" y="124" on="0"/>
        <pt x="153" y="124" on="1"/>
        <pt x="128" y="124" on="0"/>
        <pt x="82" y="84" on="0"/>
        <pt x="55" y="40" on="1"/>
        <pt x="3" y="62" on="0"/>
        <pt x="3" y="94" on="1"/>
        <pt x="3" y="137" on="0"/>
        <pt x="96" y="214" on="0"/>
        <pt x="143" y="214" on="1"/>
        <pt x="183" y="214" on="0"/>
        <pt x="272" y="179" on="0"/>
        <pt x="334" y="137" on="0"/>
        <pt x="400" y="102" on="0"/>
        <pt x="421" y="102" on="1"/>
        <pt x="446" y="102" on="0"/>
        <pt x="490" y="144" on="0"/>
        <pt x="516" y="193" on="1"/>
        <pt x="571" y="177" on="0"/>
      </contour>
      <contour>
        <pt x="571" y="367" on="1"/>
        <pt x="571" y="336" on="0"/>
        <pt x="487" y="244" on="0"/>
        <pt x="435" y="244" on="1"/>
        <pt x="397" y="244" on="0"/>
        <pt x="313" y="278" on="0"/>
        <pt x="251" y="320" on="0"/>
        <pt x="179" y="354" on="0"/>
        <pt x="153" y="354" on="1"/>
        <pt x="128" y="354" on="0"/>
        <pt x="82" y="314" on="0"/>
        <pt x="55" y="270" on="1"/>
        <pt x="3" y="292" on="0"/>
        <pt x="3" y="324" on="1"/>
        <pt x="3" y="367" on="0"/>
        <pt x="96" y="444" on="0"/>
        <pt x="143" y="444" on="1"/>
        <pt x="183" y="444" on="0"/>
        <pt x="272" y="409" on="0"/>
        <pt x="334" y="367" on="0"/>
        <pt x="400" y="332" on="0"/>
        <pt x="421" y="332" on="1"/>
        <pt x="446" y="332" on="0"/>
        <pt x="490" y="374" on="0"/>
        <pt x="516" y="423" on="1"/>
        <pt x="571" y="407" on="0"/>
      </contour>
    </TTGlyph>
    <TTGlyph name="aring" xMin="29" yMin="-10" xMax="458" yMax="773">
      <contour>
        <pt x="128" y="314" on="1"/>
        <pt x="40" y="330" on="0"/>
        <pt x="40" y="389" on="1"/>
        <pt x="40" y="429" on="0"/>
        <pt x="155" y="485" on="0"/>
        <pt x="236" y="485" on="1"/>
        <pt x="341" y="485" on="0"/>
        <pt x="441" y="405" on="0"/>
        <pt x="441" y="312" on="1"/>
        <pt x="441" y="304" on="0"/>
        <pt x="439" y="202" on="0"/>
        <pt x="439" y="177" on="1"/>
        <pt x="439" y="62" on="0"/>
        <pt x="458" y="5" on="1"/>
        <pt x="414" y="-7" on="0"/>
        <pt x="380" y="-7" on="1"/>
        <pt x="308" y="-7" on="0"/>
        <pt x="296" y="51" on="1"/>
        <pt x="272" y="23" on="0"/>
        <pt x="197" y="-10" on="0"/>
        <pt x="159" y="-10" on="1"/>
        <pt x="104" y="-10" on="0"/>
        <pt x="29" y="61" on="0"/>
        <pt x="29" y="131" on="1"/>
        <pt x="29" y="187" on="0"/>
        <pt x="74" y="239" on="0"/>
        <pt x="113" y="252" on="1"/>
        <pt x="189" y="276" on="0"/>
        <pt x="293" y="282" on="1"/>
        <pt x="293" y="343" on="0"/>
        <pt x="266" y="392" on="0"/>
        <pt x="223" y="392" on="1"/>
        <pt x="198" y="392" on="0"/>
        <pt x="141" y="350" on="0"/>
      </contour>
      <contour>
        <pt x="292" y="210" on="1"/>
        <pt x="262" y="205" on="0"/>
        <pt x="230" y="197" on="0"/>
        <pt x="193" y="180" on="0"/>
        <pt x="178" y="153" on="0"/>
        <pt x="178" y="133" on="1"/>
        <pt x="178" y="108" on="0"/>
        <pt x="202" y="83" on="0"/>
        <pt x="220" y="83" on="1"/>
        <pt x="262" y="83" on="0"/>
        <pt x="290" y="108" on="1"/>
        <pt x="289" y="117" on="0"/>
        <pt x="289" y="138" on="1"/>
        <pt x="289" y="174" on="0"/>
      </contour>
      <contour>
        <pt x="243" y="540" on="1"/>
        <pt x="192" y="540" on="0"/>
        <pt x="127" y="604" on="0"/>
        <pt x="127" y="656" on="1"/>
        <pt x="127" y="709" on="0"/>
        <pt x="192" y="773" on="0"/>
        <pt x="243" y="773" on="1"/>
        <pt x="295" y="773" on="0"/>
        <pt x="358" y="709" on="0"/>
        <pt x="358" y="656" on="1"/>
        <pt x="358" y="604" on="0"/>
        <pt x="295" y="540" on="0"/>
      </contour>
      <contour>
        <pt x="297" y="651" on="1"/>
        <pt x="297" y="682" on="0"/>
        <pt x="267" y="723" on="0"/>
        <pt x="243" y="723" on="1"/>
        <pt x="218" y="723" on="0"/>
        <pt x="188" y="689" on="0"/>
        <pt x="188" y="661" on="1"/>
        <pt x="188" y="630" on="0"/>
        <pt x="218" y="590" on="0"/>
        <pt x="243" y="590" on="1"/>
        <pt x="269" y="590" on="0"/>
        <pt x="297" y="623" on="0"/>
      </contour>
    </TTGlyph>
    <TTGlyph name="aring_alt" xMin="45" yMin="-10" xMax="529" yMax="773">
      <contour>
        <pt x="288" y="84" on="1"/>
        <pt x="333" y="84" on="0"/>
        <pt x="362" y="128" on="1"/>
        <pt x="361" y="140" on="0"/>
        <pt x="361" y="166" on="1"/>
        <pt x="361" y="198" on="0"/>
        <pt x="372" y="351" on="0"/>
        <pt x="372" y="362" on="1"/>
        <pt x="328" y="389" on="0"/>
        <pt x="291" y="389" on="1"/>
        <pt x="242" y="389" on="0"/>
        <pt x="195" y="307" on="0"/>
        <pt x="195" y="251" on="1"/>
        <pt x="195" y="179" on="0"/>
        <pt x="250" y="84" on="0"/>
      </contour>
      <contour>
        <pt x="239" y="-10" on="1"/>
        <pt x="159" y="-10" on="0"/>
        <pt x="45" y="128" on="0"/>
        <pt x="45" y="231" on="1"/>
        <pt x="45" y="347" on="0"/>
        <pt x="183" y="485" on="0"/>
        <pt x="296" y="485" on="1"/>
        <pt x="418" y="485" on="0"/>
        <pt x="522" y="407" on="1"/>
        <pt x="510" y="287" on="0"/>
        <pt x="510" y="177" on="1"/>
        <pt x="510" y="62" on="0"/>
        <pt x="529" y="5" on="1"/>
        <pt x="477" y="-7" on="0"/>
        <pt x="453" y="-7" on="1"/>
        <pt x="380" y="-7" on="0"/>
        <pt x="367" y="51" on="1"/>
        <pt x="317" y="-10" on="0"/>
      </contour>
      <contour>
        <pt x="297" y="540" on="1"/>
        <pt x="246" y="540" on="0"/>
        <pt x="181" y="604" on="0"/>
        <pt x="181" y="656" on="1"/>
        <pt x="181" y="709" on="0"/>
        <pt x="246" y="773" on="0"/>
        <pt x="297" y="773" on="1"/>
        <pt x="349" y="773" on="0"/>
        <pt x="412" y="709" on="0"/>
        <pt x="412" y="656" on="1"/>
        <pt x="412" y="604" on="0"/>
        <pt x="349" y="540" on="0"/>
      </contour>
      <contour>
        <pt x="351" y="651" on="1"/>
        <pt x="351" y="682" on="0"/>
        <pt x="321" y="723" on="0"/>
        <pt x="297" y="723" on="1"/>
        <pt x="272" y="723" on="0"/>
        <pt x="242" y="689" on="0"/>
        <pt x="242" y="661" on="1"/>
        <pt x="242" y="630" on="0"/>
        <pt x="272" y="590" on="0"/>
        <pt x="297" y="590" on="1"/>
        <pt x="323" y="590" on="0"/>
        <pt x="351" y="623" on="0"/>
      </contour>
    </TTGlyph>
    <TTGlyph name="asciicircum" xMin="16" yMin="380" xMax="515" yMax="675">
      <contour>
        <pt x="267" y="543" on="1"/>
        <pt x="260" y="536" on="0"/>
        <pt x="208" y="480" on="0"/>
        <pt x="175" y="446" on="0"/>
        <pt x="127" y="402" on="0"/>
        <pt x="89" y="380" on="0"/>
        <pt x="75" y="380" on="1"/>
        <pt x="49" y="380" on="0"/>
        <pt x="16" y="413" on="1"/>
        <pt x="44" y="455" on="0"/>
        <pt x="213" y="628" on="0"/>
        <pt x="266" y="675" on="1"/>
        <pt x="320" y="626" on="0"/>
        <pt x="487" y="455" on="0"/>
        <pt x="515" y="413" on="1"/>
        <pt x="482" y="380" on="0"/>
        <pt x="457" y="380" on="1"/>
        <pt x="448" y="380" on="0"/>
        <pt x="423" y="393" on="0"/>
        <pt x="392" y="418" on="0"/>
        <pt x="363" y="443" on="0"/>
        <pt x="327" y="480" on="0"/>
        <pt x="303" y="504" on="0"/>
        <pt x="271" y="538" on="0"/>
      </contour>
    </TTGlyph>
    <TTGlyph name="asciitilde" xMin="26" yMin="193" xMax="572" yMax="349">
      <contour>
        <pt x="26" y="267" on="1"/>
        <pt x="26" y="349" on="0"/>
        <pt x="154" y="349" on="1"/>
        <pt x="209" y="349" on="0"/>
        <pt x="384" y="309" on="0"/>
        <pt x="426" y="309" on="1"/>
        <pt x="499" y="309" on="0"/>
        <pt x="538" y="344" on="1"/>
        <pt x="572" y="308" on="0"/>
        <pt x="572" y="275" on="1"/>
        <pt x="572" y="233" on="0"/>
        <pt x="481" y="193" on="0"/>
        <pt x="419" y="193" on="1"/>
        <pt x="384" y="193" on="0"/>
        <pt x="218" y="233" on="0"/>
        <pt x="173" y="233" on="1"/>
        <pt x="99" y="233" on="0"/>
        <pt x="60" y="198" on="1"/>
        <pt x="26" y="234" on="0"/>
      </contour>
    </TTGlyph>
    <TTGlyph name="asterisk" xMin="23" yMin="392" xMax="376" yMax="743">
      <contour>
        <pt x="258" y="697" on="1"/>
        <pt x="258" y="661" on="0"/>
        <pt x="248" y="621" on="1"/>
        <pt x="319" y="673" on="0"/>
        <pt x="332" y="686" on="1"/>
        <pt x="376" y="648" on="0"/>
        <pt x="376" y="620" on="1"/>
        <pt x="376" y="578" on="0"/>
        <pt x="257" y="548" on="1"/>
        <pt x="327" y="483" on="0"/>
        <pt x="362" y="457" on="1"/>
        <pt x="351" y="437" on="0"/>
        <pt x="313" y="409" on="0"/>
        <pt x="291" y="409" on="1"/>
        <pt x="267" y="409" on="0"/>
        <pt x="228" y="454" on="0"/>
        <pt x="202" y="503" on="1"/>
        <pt x="165" y="437" on="0"/>
        <pt x="137" y="392" on="1"/>
        <pt x="108" y="402" on="0"/>
        <pt x="63" y="437" on="0"/>
        <pt x="63" y="456" on="1"/>
        <pt x="63" y="490" on="0"/>
        <pt x="148" y="552" on="1"/>
        <pt x="73" y="579" on="0"/>
        <pt x="23" y="593" on="1"/>
        <pt x="27" y="620" on="0"/>
        <pt x="61" y="664" on="0"/>
        <pt x="86" y="664" on="1"/>
        <pt x="125" y="664" on="0"/>
        <pt x="163" y="624" on="1"/>
        <pt x="162" y="632" on="0"/>
        <pt x="152" y="712" on="0"/>
        <pt x="147" y="734" on="1"/>
        <pt x="178" y="743" on="0"/>
        <pt x="196" y="743" on="1"/>
        <pt x="258" y="743" on="0"/>
      </contour>
    </TTGlyph>
    <TTGlyph name="at" xMin="58" yMin="-110" xMax="780" yMax="590">
      <contour>
        <pt x="331" y="54" on="1"/>
        <pt x="285" y="54" on="0"/>
        <pt x="226" y="127" on="0"/>
        <pt x="226" y="196" on="1"/>
        <pt x="226" y="298" on="0"/>
        <pt x="345" y="443" on="0"/>
        <pt x="431" y="443" on="1"/>
        <pt x="530" y="443" on="0"/>
        <pt x="601" y="397" on="1"/>
        <pt x="565" y="253" on="0"/>
        <pt x="565" y="172" on="1"/>
        <pt x="565" y="117" on="0"/>
        <pt x="590" y="117" on="1"/>
        <pt x="616" y="117" on="0"/>
        <pt x="664" y="223" on="0"/>
        <pt x="664" y="310" on="1"/>
        <pt x="664" y="407" on="0"/>
        <pt x="564" y="514" on="0"/>
        <pt x="460" y="514" on="1"/>
        <pt x="373" y="514" on="0"/>
        <pt x="233" y="411" on="0"/>
        <pt x="162" y="261" on="0"/>
        <pt x="162" y="183" on="1"/>
        <pt x="162" y="125" on="0"/>
        <pt x="201" y="39" on="0"/>
        <pt x="268" y="-7" on="0"/>
        <pt x="342" y="-29" on="0"/>
        <pt x="384" y="-29" on="1"/>
        <pt x="440" y="-29" on="0"/>
        <pt x="529" y="5" on="0"/>
        <pt x="537" y="30" on="1"/>
        <pt x="589" y="10" on="0"/>
        <pt x="589" y="-28" on="1"/>
        <pt x="589" y="-61" on="0"/>
        <pt x="468" y="-110" on="0"/>
        <pt x="386" y="-110" on="1"/>
        <pt x="339" y="-110" on="0"/>
        <pt x="250" y="-92" on="0"/>
        <pt x="162" y="-49" on="0"/>
        <pt x="98" y="15" on="0"/>
        <pt x="58" y="117" on="0"/>
        <pt x="58" y="180" on="1"/>
        <pt x="58" y="253" on="0"/>
        <pt x="116" y="397" on="0"/>
        <pt x="219" y="516" on="0"/>
        <pt x="381" y="590" on="0"/>
        <pt x="475" y="590" on="1"/>
        <pt x="614" y="590" on="0"/>
        <pt x="780" y="447" on="0"/>
        <pt x="780" y="337" on="1"/>
        <pt x="780" y="223" on="0"/>
        <pt x="646" y="69" on="0"/>
        <pt x="548" y="69" on="1"/>
        <pt x="472" y="69" on="0"/>
        <pt x="450" y="146" on="1"/>
        <pt x="402" y="54" on="0"/>
      </contour>
      <contour>
        <pt x="443" y="204" on="1"/>
        <pt x="447" y="225" on="0"/>
        <pt x="462" y="329" on="0"/>
        <pt x="464" y="341" on="1"/>
        <pt x="442" y="354" on="0"/>
        <pt x="419" y="354" on="1"/>
        <pt x="389" y="354" on="0"/>
        <pt x="351" y="279" on="0"/>
        <pt x="351" y="217" on="1"/>
        <pt x="351" y="188" on="0"/>
        <pt x="370" y="149" on="0"/>
        <pt x="387" y="149" on="1"/>
        <pt x="419" y="149" on="0"/>
      </contour>
    </TTGlyph>
    <TTGlyph name="atilde" xMin="29" yMin="-10" xMax="458" yMax="678">
      <contour>
        <pt x="128" y="314" on="1"/>
        <pt x="40" y="330" on="0"/>
        <pt x="40" y="389" on="1"/>
        <pt x="40" y="429" on="0"/>
        <pt x="155" y="485" on="0"/>
        <pt x="236" y="485" on="1"/>
        <pt x="341" y="485" on="0"/>
        <pt x="441" y="405" on="0"/>
        <pt x="441" y="312" on="1"/>
        <pt x="441" y="304" on="0"/>
        <pt x="439" y="202" on="0"/>
        <pt x="439" y="177" on="1"/>
        <pt x="439" y="62" on="0"/>
        <pt x="458" y="5" on="1"/>
        <pt x="414" y="-7" on="0"/>
        <pt x="380" y="-7" on="1"/>
        <pt x="308" y="-7" on="0"/>
        <pt x="296" y="51" on="1"/>
        <pt x="272" y="23" on="0"/>
        <pt x="197" y="-10" on="0"/>
        <pt x="159" y="-10" on="1"/>
        <pt x="104" y="-10" on="0"/>
        <pt x="29" y="61" on="0"/>
        <pt x="29" y="131" on="1"/>
        <pt x="29" y="187" on="0"/>
        <pt x="74" y="239" on="0"/>
        <pt x="113" y="252" on="1"/>
        <pt x="189" y="276" on="0"/>
        <pt x="293" y="282" on="1"/>
        <pt x="293" y="343" on="0"/>
        <pt x="266" y="392" on="0"/>
        <pt x="223" y="392" on="1"/>
        <pt x="198" y="392" on="0"/>
        <pt x="141" y="350" on="0"/>
      </contour>
      <contour>
        <pt x="292" y="210" on="1"/>
        <pt x="262" y="205" on="0"/>
        <pt x="230" y="197" on="0"/>
        <pt x="193" y="180" on="0"/>
        <pt x="178" y="153" on="0"/>
        <pt x="178" y="133" on="1"/>
        <pt x="178" y="108" on="0"/>
        <pt x="202" y="83" on="0"/>
        <pt x="220" y="83" on="1"/>
        <pt x="262" y="83" on="0"/>
        <pt x="290" y="108" on="1"/>
        <pt x="289" y="117" on="0"/>
        <pt x="289" y="138" on="1"/>
        <pt x="289" y="174" on="0"/>
      </contour>
      <contour>
        <pt x="426" y="634" on="1"/>
        <pt x="426" y="599" on="0"/>
        <pt x="346" y="534" on="0"/>
        <pt x="298" y="534" on="1"/>
        <pt x="274" y="534" on="0"/>
        <pt x="186" y="577" on="0"/>
        <pt x="169" y="577" on="1"/>
        <pt x="147" y="577" on="0"/>
        <pt x="101" y="537" on="1"/>
        <pt x="62" y="551" on="0"/>
        <pt x="62" y="578" on="1"/>
        <pt x="62" y="612" on="0"/>
        <pt x="143" y="678" on="0"/>
        <pt x="190" y="678" on="1"/>
        <pt x="214" y="678" on="0"/>
        <pt x="303" y="635" on="0"/>
        <pt x="320" y="635" on="1"/>
        <pt x="343" y="635" on="0"/>
        <pt x="387" y="675" on="1"/>
        <pt x="400" y="673" on="0"/>
        <pt x="426" y="650" on="0"/>
      </contour>
    </TTGlyph>
    <TTGlyph name="atilde_alt" xMin="29" yMin="-10" xMax="513" yMax="688">
      <contour>
        <pt x="272" y="84" on="1"/>
        <pt x="317" y="84" on="0"/>
        <pt x="346" y="128" on="1"/>
        <pt x="345" y="140" on="0"/>
        <pt x="345" y="166" on="1"/>
        <pt x="345" y="198" on="0"/>
        <pt x="356" y="351" on="0"/>
        <pt x="356" y="362" on="1"/>
        <pt x="312" y="389" on="0"/>
        <pt x="275" y="389" on="1"/>
        <pt x="226" y="389" on="0"/>
        <pt x="179" y="307" on="0"/>
        <pt x="179" y="251" on="1"/>
        <pt x="179" y="179" on="0"/>
        <pt x="234" y="84" on="0"/>
      </contour>
      <contour>
        <pt x="223" y="-10" on="1"/>
        <pt x="143" y="-10" on="0"/>
        <pt x="29" y="128" on="0"/>
        <pt x="29" y="231" on="1"/>
        <pt x="29" y="347" on="0"/>
        <pt x="167" y="485" on="0"/>
        <pt x="280" y="485" on="1"/>
        <pt x="402" y="485" on="0"/>
        <pt x="506" y="407" on="1"/>
        <pt x="494" y="287" on="0"/>
        <pt x="494" y="177" on="1"/>
        <pt x="494" y="62" on="0"/>
        <pt x="513" y="5" on="1"/>
        <pt x="461" y="-7" on="0"/>
        <pt x="437" y="-7" on="1"/>
        <pt x="364" y="-7" on="0"/>
        <pt x="351" y="51" on="1"/>
        <pt x="301" y="-10" on="0"/>
      </contour>
      <contour>
        <pt x="457" y="644" on="1"/>
        <pt x="457" y="609" on="0"/>
        <pt x="377" y="544" on="0"/>
        <pt x="329" y="544" on="1"/>
        <pt x="305" y="544" on="0"/>
        <pt x="217" y="587" on="0"/>
        <pt x="200" y="587" on="1"/>
        <pt x="178" y="587" on="0"/>
        <pt x="132" y="547" on="1"/>
        <pt x="93" y="561" on="0"/>
        <pt x="93" y="588" on="1"/>
        <pt x="93" y="622" on="0"/>
        <pt x="174" y="688" on="0"/>
        <pt x="221" y="688" on="1"/>
        <pt x="245" y="688" on="0"/>
        <pt x="334" y="645" on="0"/>
        <pt x="351" y="645" on="1"/>
        <pt x="374" y="645" on="0"/>
        <pt x="418" y="685" on="1"/>
        <pt x="431" y="683" on="0"/>
        <pt x="457" y="660" on="0"/>
      </contour>
    </TTGlyph>
    <TTGlyph name="b" xMin="39" yMin="-10" xMax="519" yMax="743">
      <contour>
        <pt x="206" y="430" on="1"/>
        <pt x="264" y="484" on="0"/>
        <pt x="331" y="484" on="1"/>
        <pt x="421" y="484" on="0"/>
        <pt x="519" y="353" on="0"/>
        <pt x="519" y="250" on="1"/>
        <pt x="519" y="140" on="0"/>
        <pt x="393" y="-10" on="0"/>
        <pt x="275" y="-10" on="1"/>
        <pt x="147" y="-10" on="0"/>
        <pt x="55" y="58" on="1"/>
        <pt x="62" y="118" on="0"/>
        <pt x="62" y="273" on="1"/>
        <pt x="62" y="402" on="0"/>
        <pt x="56" y="568" on="1"/>
        <pt x="51" y="691" on="0"/>
        <pt x="39" y="730" on="1"/>
        <pt x="86" y="743" on="0"/>
        <pt x="123" y="743" on="1"/>
        <pt x="209" y="743" on="0"/>
        <pt x="209" y="678" on="1"/>
        <pt x="209" y="677" on="0"/>
        <pt x="207" y="533" on="1"/>
        <pt x="207" y="507" on="0"/>
        <pt x="206" y="439" on="0"/>
      </contour>
      <contour>
        <pt x="208" y="350" on="1"/>
        <pt x="208" y="339" on="0"/>
        <pt x="209" y="244" on="0"/>
        <pt x="209" y="216" on="1"/>
        <pt x="209" y="139" on="0"/>
        <pt x="205" y="107" on="1"/>
        <pt x="247" y="86" on="0"/>
        <pt x="282" y="86" on="1"/>
        <pt x="371" y="86" on="0"/>
        <pt x="371" y="240" on="1"/>
        <pt x="371" y="262" on="0"/>
        <pt x="366" y="304" on="0"/>
        <pt x="353" y="357" on="0"/>
        <pt x="321" y="389" on="0"/>
        <pt x="298" y="389" on="1"/>
        <pt x="259" y="389" on="0"/>
      </contour>
    </TTGlyph>
    <TTGlyph name="backslash" xMin="30" yMin="-118" xMax="229" yMax="741">
      <contour>
        <pt x="105" y="218" on="1"/>
        <pt x="30" y="681" on="0"/>
        <pt x="30" y="702" on="1"/>
        <pt x="30" y="741" on="0"/>
        <pt x="82" y="741" on="1"/>
        <pt x="99" y="741" on="0"/>
        <pt x="112" y="736" on="1"/>
        <pt x="118" y="663" on="0"/>
        <pt x="154" y="405" on="1"/>
        <pt x="159" y="367" on="0"/>
        <pt x="196" y="126" on="0"/>
        <pt x="229" y="-81" on="0"/>
        <pt x="229" y="-78" on="1"/>
        <pt x="229" y="-118" on="0"/>
        <pt x="182" y="-118" on="1"/>
        <pt x="169" y="-118" on="0"/>
        <pt x="147" y="-113" on="1"/>
        <pt x="138" y="-5" on="0"/>
      </contour>
    </TTGlyph>
    <TTGlyph name="bar" xMin="232" yMin="-249" xMax="343" yMax="737">
      <contour>
        <pt x="244" y="302" on="1"/>
        <pt x="244" y="319" on="1"/>
        <pt x="244" y="654" on="0"/>
        <pt x="232" y="732" on="1"/>
        <pt x="255" y="737" on="0"/>
        <pt x="275" y="737" on="1"/>
        <pt x="341" y="737" on="0"/>
        <pt x="341" y="682" on="1"/>
        <pt x="341" y="677" on="0"/>
        <pt x="336" y="535" on="0"/>
        <pt x="331" y="302" on="0"/>
        <pt x="331" y="186" on="1"/>
        <pt x="331" y="169" on="1"/>
        <pt x="331" y="-166" on="0"/>
        <pt x="343" y="-244" on="1"/>
        <pt x="320" y="-249" on="0"/>
        <pt x="300" y="-249" on="1"/>
        <pt x="234" y="-249" on="0"/>
        <pt x="234" y="-194" on="1"/>
        <pt x="234" y="-189" on="0"/>
        <pt x="239" y="-47" on="0"/>
        <pt x="244" y="186" on="0"/>
      </contour>
    </TTGlyph>
    <TTGlyph name="braceleft" xMin="45" yMin="-142" xMax="375" yMax="715">
      <contour>
        <pt x="172" y="286" on="1"/>
        <pt x="199" y="277" on="0"/>
        <pt x="250" y="214" on="0"/>
        <pt x="250" y="181" on="1"/>
        <pt x="250" y="2" on="1"/>
        <pt x="250" y="-23" on="0"/>
        <pt x="256" y="-44" on="0"/>
        <pt x="289" y="-58" on="0"/>
        <pt x="326" y="-58" on="1"/>
        <pt x="351" y="-58" on="0"/>
        <pt x="374" y="-79" on="0"/>
        <pt x="374" y="-108" on="1"/>
        <pt x="374" y="-129" on="0"/>
        <pt x="370" y="-141" on="1"/>
        <pt x="357" y="-142" on="0"/>
        <pt x="334" y="-142" on="1"/>
        <pt x="219" y="-142" on="0"/>
        <pt x="119" y="-87" on="0"/>
        <pt x="119" y="-31" on="1"/>
        <pt x="119" y="178" on="1"/>
        <pt x="119" y="208" on="0"/>
        <pt x="82" y="261" on="0"/>
        <pt x="45" y="261" on="1"/>
        <pt x="45" y="311" on="1"/>
        <pt x="82" y="311" on="0"/>
        <pt x="121" y="365" on="0"/>
        <pt x="121" y="395" on="1"/>
        <pt x="121" y="604" on="1"/>
        <pt x="121" y="660" on="0"/>
        <pt x="220" y="715" on="0"/>
        <pt x="335" y="715" on="1"/>
        <pt x="358" y="715" on="0"/>
        <pt x="371" y="714" on="1"/>
        <pt x="375" y="702" on="0"/>
        <pt x="375" y="681" on="1"/>
        <pt x="375" y="652" on="0"/>
        <pt x="352" y="631" on="0"/>
        <pt x="327" y="631" on="1"/>
        <pt x="275" y="631" on="0"/>
        <pt x="250" y="607" on="0"/>
        <pt x="250" y="571" on="1"/>
        <pt x="250" y="393" on="1"/>
        <pt x="250" y="358" on="0"/>
        <pt x="199" y="295" on="0"/>
      </contour>
    </TTGlyph>
    <TTGlyph name="braceright" xMin="19" yMin="-142" xMax="349" yMax="715">
      <contour>
        <pt x="222" y="286" on="1"/>
        <pt x="195" y="295" on="0"/>
        <pt x="144" y="358" on="0"/>
        <pt x="144" y="393" on="1"/>
        <pt x="144" y="571" on="1"/>
        <pt x="144" y="596" on="0"/>
        <pt x="137" y="617" on="0"/>
        <pt x="104" y="631" on="0"/>
        <pt x="67" y="631" on="1"/>
        <pt x="42" y="631" on="0"/>
        <pt x="19" y="652" on="0"/>
        <pt x="19" y="681" on="1"/>
        <pt x="19" y="702" on="0"/>
        <pt x="23" y="714" on="1"/>
        <pt x="36" y="715" on="0"/>
        <pt x="59" y="715" on="1"/>
        <pt x="174" y="715" on="0"/>
        <pt x="273" y="660" on="0"/>
        <pt x="273" y="604" on="1"/>
        <pt x="273" y="395" on="1"/>
        <pt x="273" y="365" on="0"/>
        <pt x="312" y="311" on="0"/>
        <pt x="349" y="311" on="1"/>
        <pt x="349" y="261" on="1"/>
        <pt x="312" y="261" on="0"/>
        <pt x="275" y="208" on="0"/>
        <pt x="275" y="178" on="1"/>
        <pt x="275" y="-31" on="1"/>
        <pt x="275" y="-87" on="0"/>
        <pt x="175" y="-142" on="0"/>
        <pt x="60" y="-142" on="1"/>
        <pt x="37" y="-142" on="0"/>
        <pt x="24" y="-141" on="1"/>
        <pt x="20" y="-129" on="0"/>
        <pt x="20" y="-108" on="1"/>
        <pt x="20" y="-79" on="0"/>
        <pt x="43" y="-58" on="0"/>
        <pt x="68" y="-58" on="1"/>
        <pt x="105" y="-58" on="0"/>
        <pt x="138" y="-44" on="0"/>
        <pt x="144" y="-23" on="0"/>
        <pt x="144" y="2" on="1"/>
        <pt x="144" y="181" on="1"/>
        <pt x="144" y="214" on="0"/>
        <pt x="195" y="277" on="0"/>
      </contour>
    </TTGlyph>
    <TTGlyph name="bracketleft" xMin="97" yMin="-190" xMax="352" yMax="720">
      <contour>
        <pt x="228" y="640" on="1"/>
        <pt x="228" y="-109" on="1"/>
        <pt x="266" y="-107" on="0"/>
        <pt x="308" y="-107" on="1"/>
        <pt x="333" y="-107" on="0"/>
        <pt x="352" y="-131" on="0"/>
        <pt x="352" y="-157" on="1"/>
        <pt x="352" y="-174" on="0"/>
        <pt x="348" y="-190" on="1"/>
        <pt x="97" y="-190" on="1"/>
        <pt x="97" y="720" on="1"/>
        <pt x="348" y="720" on="1"/>
        <pt x="352" y="708" on="0"/>
        <pt x="352" y="687" on="1"/>
        <pt x="352" y="659" on="0"/>
        <pt x="331" y="638" on="0"/>
        <pt x="308" y="638" on="1"/>
        <pt x="265" y="638" on="0"/>
      </contour>
    </TTGlyph>
    <TTGlyph name="bracketright" xMin="19" yMin="-190" xMax="274" yMax="720">
      <contour>
        <pt x="143" y="-109" on="1"/>
        <pt x="143" y="640" on="1"/>
        <pt x="106" y="638" on="0"/>
        <pt x="63" y="638" on="1"/>
        <pt x="40" y="638" on="0"/>
        <pt x="19" y="659" on="0"/>
        <pt x="19" y="687" on="1"/>
        <pt x="19" y="708" on="0"/>
        <pt x="23" y="720" on="1"/>
        <pt x="274" y="720" on="1"/>
        <pt x="274" y="-190" on="1"/>
        <pt x="23" y="-190" on="1"/>
        <pt x="19" y="-174" on="0"/>
        <pt x="19" y="-157" on="1"/>
        <pt x="19" y="-131" on="0"/>
        <pt x="38" y="-107" on="0"/>
        <pt x="63" y="-107" on="1"/>
        <pt x="105" y="-107" on="0"/>
      </contour>
    </TTGlyph>
    <TTGlyph name="breve" xMin="0" yMin="534" xMax="352" yMax="727">
      <contour>
        <pt x="138" y="639" on="0"/>
        <pt x="214" y="639" on="0"/>
        <pt x="254" y="682" on="0"/>
        <pt x="265" y="727" on="1"/>
        <pt x="352" y="723" on="0"/>
        <pt x="352" y="631" on="0"/>
        <pt x="253" y="534" on="0"/>
        <pt x="99" y="534" on="0"/>
        <pt x="0" y="631" on="0"/>
        <pt x="0" y="723" on="0"/>
        <pt x="87" y="727" on="1"/>
        <pt x="98" y="682" on="0"/>
      </contour>
    </TTGlyph>
    <TTGlyph name="brokenbar" xMin="232" yMin="-249" xMax="343" yMax="737">
      <contour>
        <pt x="244" y="11" on="1"/>
        <pt x="244" y="18" on="1"/>
        <pt x="244" y="157" on="0"/>
        <pt x="232" y="189" on="1"/>
        <pt x="255" y="194" on="0"/>
        <pt x="275" y="194" on="1"/>
        <pt x="341" y="194" on="0"/>
        <pt x="341" y="139" on="1"/>
        <pt x="341" y="137" on="0"/>
        <pt x="336" y="78" on="0"/>
        <pt x="331" y="-18" on="0"/>
        <pt x="331" y="-66" on="1"/>
        <pt x="331" y="-73" on="1"/>
        <pt x="331" y="-211" on="0"/>
        <pt x="343" y="-243" on="1"/>
        <pt x="320" y="-249" on="0"/>
        <pt x="300" y="-249" on="1"/>
        <pt x="234" y="-249" on="0"/>
        <pt x="234" y="-195" on="1"/>
        <pt x="234" y="-193" on="0"/>
        <pt x="239" y="-134" on="0"/>
        <pt x="244" y="-37" on="0"/>
      </contour>
      <contour>
        <pt x="244" y="554" on="1"/>
        <pt x="244" y="561" on="1"/>
        <pt x="244" y="700" on="0"/>
        <pt x="232" y="732" on="1"/>
        <pt x="255" y="737" on="0"/>
        <pt x="275" y="737" on="1"/>
        <pt x="341" y="737" on="0"/>
        <pt x="341" y="682" on="1"/>
        <pt x="341" y="680" on="0"/>
        <pt x="336" y="621" on="0"/>
        <pt x="331" y="525" on="0"/>
        <pt x="331" y="477" on="1"/>
        <pt x="331" y="470" on="1"/>
        <pt x="331" y="332" on="0"/>
        <pt x="343" y="300" on="1"/>
        <pt x="320" y="294" on="0"/>
        <pt x="300" y="294" on="1"/>
        <pt x="234" y="294" on="0"/>
        <pt x="234" y="348" on="1"/>
        <pt x="234" y="350" on="0"/>
        <pt x="239" y="409" on="0"/>
        <pt x="244" y="506" on="0"/>
      </contour>
    </TTGlyph>
    <TTGlyph name="bullet" xMin="16" yMin="106" xMax="328" yMax="432">
      <contour>
        <pt x="238" y="106" on="0"/>
        <pt x="108" y="106" on="0"/>
        <pt x="16" y="197" on="0"/>
        <pt x="16" y="268" on="1"/>
        <pt x="16" y="337" on="0"/>
        <pt x="109" y="432" on="0"/>
        <pt x="237" y="432" on="0"/>
        <pt x="328" y="337" on="0"/>
        <pt x="328" y="268" on="1"/>
        <pt x="328" y="197" on="0"/>
      </contour>
    </TTGlyph>
    <TTGlyph name="c" xMin="29" yMin="-10" xMax="451" yMax="485">
      <contour>
        <pt x="281" y="85" on="1"/>
        <pt x="312" y="85" on="0"/>
        <pt x="367" y="116" on="0"/>
        <pt x="377" y="143" on="1"/>
        <pt x="422" y="127" on="0"/>
        <pt x="450" y="97" on="0"/>
        <pt x="450" y="76" on="1"/>
        <pt x="450" y="35" on="0"/>
        <pt x="354" y="-10" on="0"/>
        <pt x="277" y="-10" on="1"/>
        <pt x="165" y="-10" on="0"/>
        <pt x="29" y="115" on="0"/>
        <pt x="29" y="227" on="1"/>
        <pt x="29" y="293" on="0"/>
        <pt x="74" y="395" on="0"/>
        <pt x="146" y="455" on="0"/>
        <pt x="230" y="485" on="0"/>
        <pt x="273" y="485" on="1"/>
        <pt x="336" y="485" on="0"/>
        <pt x="451" y="433" on="0"/>
        <pt x="451" y="387" on="1"/>
        <pt x="451" y="326" on="0"/>
        <pt x="353" y="314" on="1"/>
        <pt x="344" y="348" on="0"/>
        <pt x="298" y="388" on="0"/>
        <pt x="270" y="388" on="1"/>
        <pt x="233" y="388" on="0"/>
        <pt x="179" y="313" on="0"/>
        <pt x="179" y="240" on="1"/>
        <pt x="179" y="85" on="0"/>
      </contour>
    </TTGlyph>
    <TTGlyph name="caron" xMin="17" yMin="519" xMax="364" yMax="723">
      <contour>
        <pt x="183" y="519" on="1"/>
        <pt x="129" y="548" on="0"/>
        <pt x="17" y="638" on="0"/>
        <pt x="17" y="661" on="1"/>
        <pt x="17" y="694" on="0"/>
        <pt x="74" y="723" on="1"/>
        <pt x="93" y="699" on="0"/>
        <pt x="148" y="653" on="0"/>
        <pt x="166" y="642" on="1"/>
        <pt x="185" y="631" on="1"/>
        <pt x="222" y="664" on="0"/>
        <pt x="255" y="690" on="0"/>
        <pt x="292" y="711" on="0"/>
        <pt x="305" y="711" on="1"/>
        <pt x="329" y="711" on="0"/>
        <pt x="364" y="673" on="1"/>
        <pt x="282" y="584" on="0"/>
      </contour>
    </TTGlyph>
    <TTGlyph name="ccedilla" xMin="29" yMin="-252" xMax="451" yMax="485">
      <contour>
        <pt x="281" y="85" on="1"/>
        <pt x="312" y="85" on="0"/>
        <pt x="367" y="116" on="0"/>
        <pt x="377" y="143" on="1"/>
        <pt x="422" y="127" on="0"/>
        <pt x="450" y="97" on="0"/>
        <pt x="450" y="76" on="1"/>
        <pt x="450" y="35" on="0"/>
        <pt x="354" y="-10" on="0"/>
        <pt x="277" y="-10" on="1"/>
        <pt x="270" y="-10" on="1"/>
        <pt x="266" y="-26" on="0"/>
        <pt x="266" y="-30" on="1"/>
        <pt x="266" y="-41" on="0"/>
        <pt x="294" y="-61" on="0"/>
        <pt x="327" y="-79" on="0"/>
        <pt x="355" y="-118" on="0"/>
        <pt x="355" y="-144" on="1"/>
        <pt x="355" y="-183" on="0"/>
        <pt x="262" y="-252" on="0"/>
        <pt x="195" y="-252" on="1"/>
        <pt x="160" y="-252" on="0"/>
        <pt x="125" y="-226" on="0"/>
        <pt x="125" y="-207" on="1"/>
        <pt x="125" y="-180" on="0"/>
        <pt x="150" y="-153" on="1"/>
        <pt x="163" y="-166" on="0"/>
        <pt x="184" y="-166" on="1"/>
        <pt x="214" y="-166" on="0"/>
        <pt x="214" y="-128" on="1"/>
        <pt x="214" y="-108" on="0"/>
        <pt x="169" y="-72" on="0"/>
        <pt x="169" y="-54" on="1"/>
        <pt x="169" y="-33" on="0"/>
        <pt x="184" y="3" on="1"/>
        <pt x="111" y="25" on="0"/>
        <pt x="29" y="141" on="0"/>
        <pt x="29" y="227" on="1"/>
        <pt x="29" y="293" on="0"/>
        <pt x="74" y="395" on="0"/>
        <pt x="146" y="455" on="0"/>
        <pt x="230" y="485" on="0"/>
        <pt x="273" y="485" on="1"/>
        <pt x="336" y="485" on="0"/>
        <pt x="451" y="433" on="0"/>
        <pt x="451" y="387" on="1"/>
        <pt x="451" y="326" on="0"/>
        <pt x="353" y="314" on="1"/>
        <pt x="344" y="348" on="0"/>
        <pt x="298" y="388" on="0"/>
        <pt x="270" y="388" on="1"/>
        <pt x="233" y="388" on="0"/>
        <pt x="179" y="313" on="0"/>
        <pt x="179" y="240" on="1"/>
        <pt x="179" y="85" on="0"/>
      </contour>
    </TTGlyph>
    <TTGlyph name="cedilla" xMin="19" yMin="-252" xMax="249" yMax="32">
      <contour>
        <pt x="92" y="32" on="1"/>
        <pt x="178" y="27" on="1"/>
        <pt x="160" y="-27" on="0"/>
        <pt x="160" y="-30" on="1"/>
        <pt x="160" y="-41" on="0"/>
        <pt x="188" y="-61" on="0"/>
        <pt x="221" y="-79" on="0"/>
        <pt x="249" y="-118" on="0"/>
        <pt x="249" y="-144" on="1"/>
        <pt x="249" y="-183" on="0"/>
        <pt x="156" y="-252" on="0"/>
        <pt x="89" y="-252" on="1"/>
        <pt x="54" y="-252" on="0"/>
        <pt x="19" y="-226" on="0"/>
        <pt x="19" y="-207" on="1"/>
        <pt x="19" y="-180" on="0"/>
        <pt x="44" y="-153" on="1"/>
        <pt x="57" y="-166" on="0"/>
        <pt x="78" y="-166" on="1"/>
        <pt x="108" y="-166" on="0"/>
        <pt x="108" y="-128" on="1"/>
        <pt x="108" y="-108" on="0"/>
        <pt x="63" y="-72" on="0"/>
        <pt x="63" y="-54" on="1"/>
        <pt x="63" y="-21" on="0"/>
      </contour>
    </TTGlyph>
    <TTGlyph name="cent" xMin="60" yMin="-16" xMax="542" yMax="684">
      <contour>
        <pt x="542" y="151" on="1"/>
        <pt x="542" y="111" on="0"/>
        <pt x="424" y="65" on="0"/>
        <pt x="357" y="62" on="1"/>
        <pt x="359" y="21" on="0"/>
        <pt x="363" y="-13" on="1"/>
        <pt x="341" y="-16" on="1"/>
        <pt x="301" y="-16" on="0"/>
        <pt x="298" y="23" on="1"/>
        <pt x="298" y="65" on="1"/>
        <pt x="192" y="77" on="0"/>
        <pt x="60" y="215" on="0"/>
        <pt x="60" y="327" on="1"/>
        <pt x="60" y="435" on="0"/>
        <pt x="190" y="572" on="0"/>
        <pt x="298" y="587" on="1"/>
        <pt x="296" y="637" on="0"/>
        <pt x="292" y="679" on="1"/>
        <pt x="309" y="684" on="0"/>
        <pt x="317" y="684" on="1"/>
        <pt x="355" y="684" on="0"/>
        <pt x="355" y="645" on="1"/>
        <pt x="355" y="591" on="1"/>
        <pt x="391" y="590" on="0"/>
        <pt x="473" y="572" on="0"/>
        <pt x="542" y="529" on="0"/>
        <pt x="542" y="500" on="1"/>
        <pt x="542" y="475" on="0"/>
        <pt x="493" y="434" on="0"/>
        <pt x="451" y="427" on="1"/>
        <pt x="410" y="491" on="0"/>
        <pt x="355" y="495" on="1"/>
        <pt x="356" y="157" on="1"/>
        <pt x="411" y="159" on="0"/>
        <pt x="452" y="227" on="1"/>
        <pt x="494" y="220" on="0"/>
        <pt x="542" y="178" on="0"/>
      </contour>
      <contour>
        <pt x="212" y="325" on="1"/>
        <pt x="212" y="270" on="0"/>
        <pt x="255" y="184" on="0"/>
        <pt x="298" y="167" on="1"/>
        <pt x="298" y="487" on="1"/>
        <pt x="258" y="470" on="0"/>
        <pt x="212" y="383" on="0"/>
      </contour>
    </TTGlyph>
    <TTGlyph name="centoldstyle" xMin="52" yMin="-100" xMax="522" yMax="575">
      <contour>
        <pt x="429" y="320" on="1"/>
        <pt x="390" y="383" on="0"/>
        <pt x="340" y="389" on="1"/>
        <pt x="341" y="86" on="1"/>
        <pt x="402" y="90" on="0"/>
        <pt x="441" y="145" on="1"/>
        <pt x="522" y="122" on="0"/>
        <pt x="522" y="71" on="1"/>
        <pt x="522" y="31" on="0"/>
        <pt x="418" y="-10" on="0"/>
        <pt x="341" y="-10" on="1"/>
        <pt x="341" y="-43" on="0"/>
        <pt x="347" y="-97" on="1"/>
        <pt x="325" y="-100" on="1"/>
        <pt x="282" y="-100" on="0"/>
        <pt x="282" y="-60" on="1"/>
        <pt x="282" y="-6" on="1"/>
        <pt x="176" y="8" on="0"/>
        <pt x="52" y="132" on="0"/>
        <pt x="52" y="234" on="1"/>
        <pt x="52" y="337" on="0"/>
        <pt x="179" y="469" on="0"/>
        <pt x="282" y="482" on="1"/>
        <pt x="281" y="501" on="0"/>
        <pt x="275" y="566" on="0"/>
        <pt x="275" y="570" on="1"/>
        <pt x="300" y="575" on="0"/>
        <pt x="301" y="575" on="1"/>
        <pt x="340" y="575" on="0"/>
        <pt x="340" y="535" on="1"/>
        <pt x="340" y="485" on="1"/>
        <pt x="377" y="483" on="0"/>
        <pt x="456" y="463" on="0"/>
        <pt x="521" y="416" on="0"/>
        <pt x="521" y="385" on="1"/>
        <pt x="521" y="362" on="0"/>
        <pt x="472" y="327" on="0"/>
      </contour>
      <contour>
        <pt x="207" y="232" on="1"/>
        <pt x="207" y="125" on="0"/>
        <pt x="282" y="95" on="1"/>
        <pt x="282" y="380" on="1"/>
        <pt x="247" y="364" on="0"/>
        <pt x="207" y="286" on="0"/>
      </contour>
    </TTGlyph>
</ttFont>
